<svg width="50" height="50" viewBox="0 0 50 50" fill="none" xmlns="http://www.w3.org/2000/svg">
<path d="M49.3235 27.2038C49.1175 27.1207 48.8819 27.0712 48.638 27.0599C48.3941 27.0486 48.1495 27.0757 47.9264 27.139L42.647 28.6019L34.4411 26.0278C34.1652 25.9389 33.8516 25.9071 33.5453 25.937C33.2389 25.9669 32.9554 26.0571 32.7353 26.1945L27.6617 29.389L21.2941 26.9815C21.0377 26.8866 20.7416 26.8429 20.4449 26.8561C20.1483 26.8694 19.8649 26.9389 19.6323 27.0556L13.2353 30.3241L2.36764 25.5927C2.15193 25.5028 1.90239 25.4503 1.64419 25.4406C1.386 25.4308 1.12828 25.4641 0.897053 25.5371C0.659486 25.6146 0.459995 25.7314 0.320062 25.875C0.180129 26.0186 0.105059 26.1835 0.102936 26.3519V49.0741C0.102936 49.3197 0.257872 49.5552 0.533661 49.7289C0.80945 49.9025 1.1835 50.0001 1.57352 50.0001H48.5294C48.9194 50.0001 49.2934 49.9025 49.5692 49.7289C49.845 49.5552 49.9999 49.3197 49.9999 49.0741V27.9815C49.9995 27.8266 49.9374 27.6742 49.8192 27.5383C49.701 27.4025 49.5306 27.2874 49.3235 27.2038ZM47.0588 48.1482H2.94117V28.1204L12.397 32.2408C12.6516 32.361 12.9612 32.426 13.2794 32.426C13.5976 32.426 13.9072 32.361 14.1617 32.2408L20.7059 28.9352L27.1911 31.389C27.4721 31.4949 27.8011 31.5387 28.1261 31.5136C28.4511 31.4884 28.7535 31.3957 28.9853 31.2501L34.1176 28.0186L41.9852 30.4908C42.1828 30.55 42.3988 30.5808 42.6176 30.5808C42.8364 30.5808 43.0524 30.55 43.25 30.4908L47.0588 29.4075V48.1482Z" fill="black"/>
<path d="M48.5294 0H1.47059C1.08056 0 0.706514 0.0975528 0.430725 0.271198C0.154937 0.444842 0 0.680355 0 0.925926V20.7963C0.000390159 20.9456 0.058098 21.0926 0.168204 21.2248C0.27831 21.357 0.437551 21.4705 0.632353 21.5556L12.397 26.6852C12.6429 26.7932 12.9354 26.8514 13.2353 26.8519C13.572 26.8527 13.8991 26.7808 14.1618 26.6481L20.7059 23.3519L27.1912 25.7963C27.4721 25.9022 27.8011 25.9461 28.1261 25.9209C28.4511 25.8957 28.7535 25.803 28.9853 25.6574L34.1176 22.4259L41.9853 24.8981C42.1828 24.9574 42.3988 24.9881 42.6176 24.9881C42.8364 24.9881 43.0524 24.9574 43.25 24.8981L49.1323 23.2593C49.3926 23.1856 49.6133 23.0658 49.7673 22.9146C49.9214 22.7633 50.0022 22.5871 50 22.4074V0.925926C50 0.680355 49.845 0.444842 49.5692 0.271198C49.2934 0.0975528 48.9194 0 48.5294 0ZM47.0588 21.8241L42.647 23.0463L34.4411 20.4722C34.1652 20.3832 33.8516 20.3514 33.5453 20.3814C33.2389 20.4113 32.9554 20.5014 32.7353 20.6389L27.6617 23.8333L21.2941 21.4259C21.0377 21.331 20.7416 21.2873 20.445 21.3005C20.1483 21.3137 19.8649 21.3833 19.6323 21.5L13.2353 24.7685L2.94117 20.3148V1.85185H47.0588V21.8241Z" fill="black"/>
<path d="M11.7647 9.25926H39.7059C40.0959 9.25926 40.4699 9.16171 40.7457 8.98806C41.0215 8.81442 41.1764 8.57891 41.1764 8.33334C41.1764 8.08776 41.0215 7.85225 40.7457 7.67861C40.4699 7.50496 40.0959 7.40741 39.7059 7.40741H11.7647C11.3747 7.40741 11.0006 7.50496 10.7248 7.67861C10.449 7.85225 10.2941 8.08776 10.2941 8.33334C10.2941 8.57891 10.449 8.81442 10.7248 8.98806C11.0006 9.16171 11.3747 9.25926 11.7647 9.25926ZM11.7647 14.8148H39.7059C40.0959 14.8148 40.4699 14.7173 40.7457 14.5436C41.0215 14.37 41.1764 14.1345 41.1764 13.8889C41.1764 13.6433 41.0215 13.4078 40.7457 13.2342C40.4699 13.0605 40.0959 12.963 39.7059 12.963H11.7647C11.3747 12.963 11.0006 13.0605 10.7248 13.2342C10.449 13.4078 10.2941 13.6433 10.2941 13.8889C10.2941 14.1345 10.449 14.37 10.7248 14.5436C11.0006 14.7173 11.3747 14.8148 11.7647 14.8148ZM39.7059 36.1111H11.7647C11.3747 36.1111 11.0006 36.2087 10.7248 36.3823C10.449 36.556 10.2941 36.7915 10.2941 37.037C10.2941 37.2826 10.449 37.5181 10.7248 37.6918C11.0006 37.8654 11.3747 37.963 11.7647 37.963H39.7059C40.0959 37.963 40.4699 37.8654 40.7457 37.6918C41.0215 37.5181 41.1764 37.2826 41.1764 37.037C41.1764 36.7915 41.0215 36.556 40.7457 36.3823C40.4699 36.2087 40.0959 36.1111 39.7059 36.1111ZM39.7059 41.6667H11.7647C11.3747 41.6667 11.0006 41.7642 10.7248 41.9379C10.449 42.1115 10.2941 42.347 10.2941 42.5926C10.2941 42.8382 10.449 43.0737 10.7248 43.2473C11.0006 43.421 11.3747 43.5185 11.7647 43.5185H39.7059C40.0959 43.5185 40.4699 43.421 40.7457 43.2473C41.0215 43.0737 41.1764 42.8382 41.1764 42.5926C41.1764 42.347 41.0215 42.1115 40.7457 41.9379C40.4699 41.7642 40.0959 41.6667 39.7059 41.6667Z" fill="black"/>
</svg>
