<svg width="50" height="50" viewBox="0 0 50 50" fill="none" xmlns="http://www.w3.org/2000/svg">
<path d="M28.9062 43.75H3.90625C2.87063 43.7483 1.87778 43.1991 1.14548 42.2227C0.413189 41.2463 0.00124051 39.9225 0 38.5417L0 11.4583C0.00124051 10.0775 0.413189 8.75371 1.14548 7.77731C1.87778 6.80092 2.87063 6.25165 3.90625 6.25H41.4062C42.4419 6.25165 43.4347 6.80092 44.167 7.77731C44.8993 8.75371 45.3113 10.0775 45.3125 11.4583V21.875C45.3125 22.1513 45.2302 22.4162 45.0837 22.6116C44.9372 22.8069 44.7385 22.9167 44.5312 22.9167C44.324 22.9167 44.1253 22.8069 43.9788 22.6116C43.8323 22.4162 43.75 22.1513 43.75 21.875V11.4583C43.75 10.6295 43.5031 9.83468 43.0635 9.24862C42.624 8.66257 42.0279 8.33333 41.4062 8.33333H3.90625C3.28465 8.33333 2.68851 8.66257 2.24897 9.24862C1.80943 9.83468 1.5625 10.6295 1.5625 11.4583V38.5417C1.5625 39.3705 1.80943 40.1653 2.24897 40.7514C2.68851 41.3374 3.28465 41.6667 3.90625 41.6667H28.9062C29.1135 41.6667 29.3122 41.7764 29.4587 41.9718C29.6052 42.1671 29.6875 42.4321 29.6875 42.7083C29.6875 42.9846 29.6052 43.2496 29.4587 43.4449C29.3122 43.6403 29.1135 43.75 28.9062 43.75Z" fill="black"/>
<path d="M49.2188 28.125C49.0115 28.125 48.8128 28.0153 48.6663 27.8199C48.5198 27.6246 48.4375 27.3596 48.4375 27.0833V5.20833C48.4375 4.37953 48.1906 3.58468 47.751 2.99862C47.3115 2.41257 46.7154 2.08333 46.0938 2.08333H8.59375C8.07479 2.08443 7.57077 2.31515 7.16074 2.73931C6.75071 3.16348 6.45787 3.7571 6.32813 4.42708C6.27633 4.69479 6.14689 4.92409 5.96829 5.06454C5.78969 5.205 5.57656 5.24511 5.37578 5.17604C5.17501 5.10697 5.00303 4.93439 4.89769 4.69626C4.79234 4.45813 4.76226 4.17395 4.81406 3.90625C5.03046 2.78881 5.51908 1.79884 6.2032 1.09181C6.88732 0.384787 7.72818 0.000745415 8.59375 0H46.0938C47.1294 0.00165402 48.1222 0.550919 48.8545 1.52731C49.5868 2.50371 49.9988 3.82751 50 5.20833V27.0833C50 27.3596 49.9177 27.6246 49.7712 27.8199C49.6247 28.0153 49.426 28.125 49.2188 28.125Z" fill="black"/>
<path d="M44.5312 20.8333H0.78125C0.57405 20.8333 0.375336 20.7236 0.228823 20.5282C0.08231 20.3329 0 20.0679 0 19.7917V13.5417C0 13.2654 0.08231 13.0004 0.228823 12.8051C0.375336 12.6097 0.57405 12.5 0.78125 12.5H44.5312C44.7385 12.5 44.9372 12.6097 45.0837 12.8051C45.2302 13.0004 45.3125 13.2654 45.3125 13.5417V19.7917C45.3125 20.0679 45.2302 20.3329 45.0837 20.5282C44.9372 20.7236 44.7385 20.8333 44.5312 20.8333ZM1.5625 18.75H43.75V14.5833H1.5625V18.75ZM25 37.5H5.46875C5.26155 37.5 5.06284 37.3903 4.91632 37.1949C4.76981 36.9996 4.6875 36.7346 4.6875 36.4583C4.6875 36.1821 4.76981 35.9171 4.91632 35.7218C5.06284 35.5264 5.26155 35.4167 5.46875 35.4167H25C25.2072 35.4167 25.4059 35.5264 25.5524 35.7218C25.6989 35.9171 25.7812 36.1821 25.7812 36.4583C25.7812 36.7346 25.6989 36.9996 25.5524 37.1949C25.4059 37.3903 25.2072 37.5 25 37.5ZM16.4062 33.3333H5.46875C5.26155 33.3333 5.06284 33.2236 4.91632 33.0282C4.76981 32.8329 4.6875 32.5679 4.6875 32.2917C4.6875 32.0154 4.76981 31.7504 4.91632 31.5551C5.06284 31.3597 5.26155 31.25 5.46875 31.25H16.4062C16.6135 31.25 16.8122 31.3597 16.9587 31.5551C17.1052 31.7504 17.1875 32.0154 17.1875 32.2917C17.1875 32.5679 17.1052 32.8329 16.9587 33.0282C16.8122 33.2236 16.6135 33.3333 16.4062 33.3333Z" fill="black"/>
<path d="M39.8437 50C37.835 50 35.8714 49.2058 34.2012 47.7178C32.5311 46.2299 31.2293 44.1149 30.4606 41.6405C29.6919 39.1661 29.4908 36.4433 29.8826 33.8165C30.2745 31.1897 31.2418 28.7768 32.6622 26.883C34.0826 24.9891 35.8922 23.6994 37.8624 23.1769C39.8325 22.6544 41.8746 22.9226 43.7304 23.9475C45.5862 24.9724 47.1724 26.7081 48.2884 28.935C49.4043 31.1619 50 33.7801 50 36.4584C49.9969 40.0486 48.9259 43.4905 47.0219 46.0292C45.1179 48.5679 42.5364 49.9959 39.8437 50ZM39.8437 25C38.1441 25 36.4826 25.672 35.0693 26.9311C33.6561 28.1902 32.5546 29.9797 31.9042 32.0734C31.2537 34.1672 31.0835 36.4711 31.4151 38.6938C31.7467 40.9165 32.5652 42.9581 33.767 44.5606C34.9689 46.1631 36.5002 47.2544 38.1672 47.6965C39.8342 48.1386 41.5621 47.9117 43.1324 47.0445C44.7027 46.1772 46.0449 44.7086 46.9892 42.8243C47.9335 40.94 48.4375 38.7246 48.4375 36.4584C48.4348 33.4205 47.5285 30.5081 45.9175 28.3601C44.3064 26.212 42.1221 25.0036 39.8437 25Z" fill="black"/>
<path d="M35.1563 43.75C35.0018 43.75 34.8507 43.6889 34.7223 43.5744C34.5939 43.4599 34.4937 43.2973 34.4346 43.107C34.3755 42.9166 34.36 42.7072 34.3902 42.5052C34.4203 42.3032 34.4947 42.1176 34.6039 41.9719L43.9789 29.4719C44.1263 29.2821 44.3236 29.1772 44.5284 29.1795C44.7333 29.1819 44.9292 29.2915 45.0741 29.4846C45.2189 29.6777 45.3011 29.939 45.3029 30.2121C45.3047 30.4852 45.2259 30.7484 45.0836 30.9448L35.7086 43.4448C35.5621 43.6402 35.3634 43.75 35.1563 43.75ZM36.7188 35.4167C36.2552 35.4167 35.8021 35.2334 35.4166 34.89C35.0312 34.5467 34.7308 34.0586 34.5534 33.4876C34.376 32.9166 34.3296 32.2882 34.42 31.682C34.5105 31.0758 34.7337 30.519 35.0615 30.082C35.3892 29.6449 35.8069 29.3473 36.2615 29.2267C36.7162 29.1062 37.1874 29.168 37.6157 29.4046C38.0439 29.6411 38.41 30.0416 38.6675 30.5555C38.925 31.0694 39.0625 31.6736 39.0625 32.2917C39.0625 33.1205 38.8156 33.9153 38.376 34.5014C37.9365 35.0874 37.3404 35.4167 36.7188 35.4167ZM36.7188 31.25C36.5642 31.25 36.4132 31.3111 36.2847 31.4256C36.1562 31.54 36.0561 31.7027 35.997 31.8931C35.9378 32.0834 35.9224 32.2928 35.9525 32.4949C35.9827 32.697 36.0571 32.8826 36.1663 33.0283C36.2756 33.1739 36.4148 33.2731 36.5663 33.3133C36.7179 33.3535 36.875 33.3329 37.0177 33.2541C37.1605 33.1752 37.2825 33.0417 37.3683 32.8704C37.4542 32.6991 37.5 32.4977 37.5 32.2917C37.5 32.0154 37.4177 31.7505 37.2712 31.5551C37.1247 31.3598 36.926 31.25 36.7188 31.25ZM42.9688 43.75C42.5052 43.75 42.0521 43.5667 41.6666 43.2234C41.2812 42.88 40.9808 42.3919 40.8034 41.8209C40.626 41.2499 40.5796 40.6216 40.67 40.0154C40.7605 39.4092 40.9837 38.8524 41.3115 38.4153C41.6392 37.9783 42.0569 37.6806 42.5115 37.5601C42.9662 37.4395 43.4374 37.5014 43.8657 37.7379C44.2939 37.9744 44.66 38.375 44.9175 38.8889C45.175 39.4028 45.3125 40.007 45.3125 40.625C45.3125 41.4538 45.0656 42.2487 44.626 42.8347C44.1865 43.4208 43.5904 43.75 42.9688 43.75ZM42.9688 39.5834C42.8142 39.5834 42.6632 39.6444 42.5347 39.7589C42.4062 39.8734 42.3061 40.0361 42.247 40.2264C42.1878 40.4167 42.1724 40.6262 42.2025 40.8282C42.2327 41.0303 42.3071 41.2159 42.4163 41.3616C42.5256 41.5073 42.6648 41.6065 42.8163 41.6467C42.9679 41.6869 43.125 41.6662 43.2677 41.5874C43.4105 41.5086 43.5325 41.375 43.6183 41.2037C43.7042 41.0324 43.75 40.831 43.75 40.625C43.75 40.3488 43.6677 40.0838 43.5212 39.8885C43.3747 39.6931 43.176 39.5834 42.9688 39.5834Z" fill="black"/>
</svg>
