<svg width="50" height="50" viewBox="0 0 50 50" fill="none" xmlns="http://www.w3.org/2000/svg">
<path fill-rule="evenodd" clip-rule="evenodd" d="M8.86005 3.166C6.15252 6.19085 4.42829 9.7273 3.84864 13.4446C3.26899 17.1619 3.85285 20.9385 5.54562 24.4213C7.52536 28.4939 10.9388 31.9955 15.3544 34.4832C19.7699 36.971 24.9893 38.3333 30.3525 38.3978C35.9716 38.4652 41.4776 37.1048 46.1093 34.5048C46.2725 34.4131 46.3586 34.2979 46.3686 34.0996C46.3802 33.8684 46.2682 33.5572 45.9549 33.2937L10.3374 3.32758C10.0241 3.06416 9.64652 2.96346 9.36333 2.96614C9.12042 2.9684 8.97692 3.03549 8.86005 3.166ZM5.92943 1.41515C7.62027 -0.473831 10.9465 -0.417616 12.9419 1.2612L48.5596 31.2273C50.5551 32.9062 50.5262 35.624 48.1655 36.9493C42.9138 39.8977 36.6705 41.4402 30.299 41.3634C22.1444 41.2654 14.3715 38.5251 8.68993 33.7452C3.63173 29.49 0.579815 23.9097 0.0745753 17.9925C-0.430665 12.0753 1.64337 6.20292 5.92943 1.41515ZM39.3933 11.9351C41.5418 11.9351 43.2833 10.5123 43.2833 8.75709C43.2833 7.00201 41.5418 5.57913 39.3933 5.57913C37.245 5.57913 35.5033 7.00201 35.5033 8.75709C35.5033 10.5123 37.245 11.9351 39.3933 11.9351ZM39.3933 14.9012C43.5469 14.9012 46.9139 12.1505 46.9139 8.75709C46.9139 5.36388 43.5469 2.61303 39.3933 2.61303C35.2398 2.61303 31.8727 5.36388 31.8727 8.75709C31.8727 12.1505 35.2398 14.9012 39.3933 14.9012Z" fill="black"/>
<path fill-rule="evenodd" clip-rule="evenodd" d="M38.0966 12.5L29.4522 19.2797L26.9379 17.14L35.5823 10.3604L38.0966 12.5ZM13.3736 33.8983C14.3762 33.8983 15.189 34.5623 15.189 35.3814V43.8559C15.189 44.675 14.3762 45.339 13.3736 45.339C12.3711 45.339 11.5583 44.675 11.5583 43.8559V35.3814C11.5583 34.5623 12.3711 33.8983 13.3736 33.8983ZM4.12413 48.517C4.12413 47.6979 4.93688 47.0339 5.93945 47.0339H20.6349C21.6375 47.0339 22.4503 47.6979 22.4503 48.517C22.4503 49.336 21.6375 50 20.6349 50H5.93945C4.93688 50 4.12413 49.336 4.12413 48.517Z" fill="black"/>
</svg>
