<svg width="58" height="58" viewBox="0 0 58 58" fill="none" xmlns="http://www.w3.org/2000/svg">
<g filter="url(#filter0_d_4_82)">
<path d="M34.6896 15.6761L31.5771 13.8088V8.3286C31.5775 7.95304 31.4192 7.58839 31.1279 7.29382C30.8365 6.99924 30.4292 6.79203 29.972 6.70581C29.5149 6.61959 29.0347 6.65942 28.6094 6.81883C28.1841 6.97825 27.8387 7.2479 27.6292 7.58402L22.6958 15.4745C22.4491 15.8695 22.4086 16.3267 22.5832 16.7455C22.7579 17.1644 23.1333 17.5106 23.6271 17.7083L26.4229 18.826V23.3201C26.423 23.6817 26.5702 24.0334 26.8423 24.3221C27.1144 24.6109 27.4966 24.8211 27.9313 24.9209C28.1182 24.9636 28.3117 24.9855 28.5062 24.9858C28.8596 24.9858 29.2071 24.914 29.5162 24.777C29.8252 24.6401 30.0856 24.4425 30.2729 24.2029L35.2062 17.8898C35.4823 17.5361 35.5823 17.1125 35.4867 16.7026C35.391 16.2927 35.1066 15.9264 34.6896 15.6761ZM39.4167 32.4816H18.5833C18.0308 32.4816 17.5009 32.3061 17.1102 31.9937C16.7195 31.6813 16.5 31.2576 16.5 30.8159C16.5 30.3741 16.7195 29.9504 17.1102 29.638C17.5009 29.3256 18.0308 29.1501 18.5833 29.1501H39.4167C39.9692 29.1501 40.4991 29.3256 40.8898 29.638C41.2805 29.9504 41.5 30.3741 41.5 30.8159C41.5 31.2576 41.2805 31.6813 40.8898 31.9937C40.4991 32.3061 39.9692 32.4816 39.4167 32.4816ZM39.4167 39.1445H18.5833C18.0308 39.1445 17.5009 38.969 17.1102 38.6566C16.7195 38.3442 16.5 37.9205 16.5 37.4787C16.5 37.037 16.7195 36.6133 17.1102 36.3009C17.5009 35.9885 18.0308 35.813 18.5833 35.813H39.4167C39.9692 35.813 40.4991 35.9885 40.8898 36.3009C41.2805 36.6133 41.5 37.037 41.5 37.4787C41.5 37.9205 41.2805 38.3442 40.8898 38.6566C40.4991 38.969 39.9692 39.1445 39.4167 39.1445Z" fill="black"/>
<path d="M22.0708 50C21.2312 50.0011 20.4017 49.8541 19.6411 49.5697C18.8806 49.2852 18.2079 48.8702 17.6708 48.3543L15.975 46.7285C15.8397 46.5978 15.6723 46.4907 15.483 46.4139C15.2938 46.3371 15.0868 46.2922 14.875 46.2821C14.6636 46.2735 14.4522 46.2985 14.253 46.3557C14.0539 46.4129 13.8708 46.5011 13.7146 46.6152L10.9917 48.6191C10.3963 49.0582 9.65384 49.349 8.85504 49.456C8.05624 49.5629 7.23576 49.4815 6.49396 49.2215C5.75217 48.9615 5.12121 48.5343 4.67828 47.9922C4.23535 47.45 3.99965 46.8164 4 46.1688V3.33144C4 2.44789 4.43899 1.60052 5.22039 0.975758C6.00179 0.350991 7.0616 0 8.16667 0H49.8333C50.9384 0 51.9982 0.350991 52.7796 0.975758C53.561 1.60052 54 2.44789 54 3.33144V46.1655C54.0003 46.8133 53.7645 47.447 53.3213 47.9893C52.8781 48.5315 52.2468 48.9587 51.5047 49.2185C50.7625 49.4783 49.9418 49.5596 49.1428 49.4522C48.3439 49.3449 47.6014 49.0536 47.0062 48.6141L44.2979 46.6152C44.1422 46.5005 43.9593 46.4119 43.7599 46.3547C43.5606 46.2974 43.349 46.2728 43.1375 46.2821C42.9255 46.2926 42.7185 46.3377 42.5293 46.4148C42.3401 46.4919 42.1727 46.5992 42.0375 46.7302L40.3562 48.3443C39.8186 48.8604 39.1455 49.2756 38.3848 49.5606C37.6241 49.8456 36.7943 49.9933 35.9542 49.9933C35.1141 49.9933 34.2843 49.8456 33.5235 49.5606C32.7628 49.2756 32.0898 48.8604 31.5521 48.3443L30.2146 47.0617C30.0688 46.9197 29.8852 46.8056 29.6773 46.7275C29.4693 46.6494 29.2422 46.6093 29.0125 46.6102C28.7833 46.6094 28.5567 46.6493 28.3492 46.7271C28.1416 46.8049 27.9583 46.9186 27.8125 47.06L26.4729 48.3476C25.9359 48.8643 25.263 49.28 24.5021 49.5651C23.7412 49.8501 22.9111 49.9975 22.0708 49.9967V50ZM14.7792 42.9473C14.9 42.9473 15.025 42.9473 15.1479 42.9573C15.9221 42.999 16.6777 43.1654 17.3694 43.4465C18.0611 43.7276 18.6745 44.1176 19.1729 44.5931L20.8708 46.2205C21.0175 46.3611 21.201 46.4742 21.4083 46.5518C21.6157 46.6294 21.8419 46.6696 22.0708 46.6696C22.2998 46.6696 22.526 46.6294 22.7333 46.5518C22.9407 46.4742 23.1242 46.3611 23.2708 46.2205L24.6104 44.9345C25.1471 44.4174 25.8199 44.0013 26.5808 43.716C27.3418 43.4307 28.172 43.2831 29.0125 43.2838C29.8532 43.2833 30.6837 43.431 31.4449 43.7163C32.2061 44.0016 32.8794 44.4175 33.4167 44.9345L34.7521 46.2171C34.8991 46.3578 35.083 46.4709 35.2907 46.5486C35.4984 46.6262 35.7249 46.6664 35.9542 46.6664C36.1834 46.6664 36.4099 46.6262 36.6176 46.5486C36.8253 46.4709 37.0092 46.3578 37.1563 46.2171L38.8354 44.6031C39.3328 44.1257 39.9463 43.7343 40.6388 43.4525C41.3313 43.1706 42.0882 43.0043 42.8635 42.9637C43.6389 42.923 44.4165 43.0088 45.1491 43.2159C45.8816 43.423 46.5539 43.747 47.125 44.1683L49.8333 46.1672V3.33144H8.16667V46.1688L10.8896 44.17C11.9484 43.3868 13.3367 42.9504 14.7792 42.9473Z" fill="black"/>
</g>
<defs>
<filter id="filter0_d_4_82" x="0" y="0" width="58" height="58" filterUnits="userSpaceOnUse" color-interpolation-filters="sRGB">
<feFlood flood-opacity="0" result="BackgroundImageFix"/>
<feColorMatrix in="SourceAlpha" type="matrix" values="0 0 0 0 0 0 0 0 0 0 0 0 0 0 0 0 0 0 127 0" result="hardAlpha"/>
<feOffset dy="4"/>
<feGaussianBlur stdDeviation="2"/>
<feComposite in2="hardAlpha" operator="out"/>
<feColorMatrix type="matrix" values="0 0 0 0 0 0 0 0 0 0 0 0 0 0 0 0 0 0 0.25 0"/>
<feBlend mode="normal" in2="BackgroundImageFix" result="effect1_dropShadow_4_82"/>
<feBlend mode="normal" in="SourceGraphic" in2="effect1_dropShadow_4_82" result="shape"/>
</filter>
</defs>
</svg>
