<svg width="50" height="50" viewBox="0 0 50 50" fill="none" xmlns="http://www.w3.org/2000/svg">
<path fill-rule="evenodd" clip-rule="evenodd" d="M48.8903 20.1832H11.032L47.3954 10.9127C47.678 10.8404 47.9164 10.6725 48.0585 10.4458C48.1289 10.3335 48.1734 10.2101 48.1896 10.0826C48.2057 9.9552 48.1931 9.8262 48.1525 9.70303L46.2497 3.92187C45.4894 1.61289 43.0464 0 40.3086 0C39.7318 0 39.157 0.0720703 38.5996 0.213965L4.45815 8.91807C2.8791 9.32041 1.57038 10.2443 0.772422 11.5188C-0.0251991 12.7933 -0.212398 14.2608 0.244891 15.6502L2.10401 21.2982V44.5652C2.1039 47.562 4.87427 50 8.27903 50H21.6131C22.2261 50 22.7228 49.5628 22.7228 49.0234C22.7228 48.4841 22.2261 48.0469 21.6131 48.0469H8.27947C6.09788 48.0469 4.32332 46.4852 4.32332 44.5652V31.2756H47.7806V44.5652C47.7806 46.4852 46.0061 48.0469 43.8245 48.0469H30.4904C29.8778 48.0469 29.3807 48.4841 29.3807 49.0234C29.3807 49.5628 29.8778 50 30.4904 50H43.8245C47.2297 50 50 47.562 50 44.5652V21.1598C50 20.6203 49.5032 20.1832 48.8903 20.1832ZM29.3235 29.3225L34.0383 22.1363H40.1704L35.4561 29.3225H29.3235ZM20.6283 29.3225L25.3431 22.1363H31.4752L26.7609 29.3225H20.6283ZM11.9336 29.3225L16.6478 22.1363H22.7805L18.0658 29.3225H11.9336ZM16.0593 16.6802L8.16418 10.0067L14.0796 8.49873C14.1222 8.5532 14.171 8.60369 14.2252 8.64941L22.1203 15.3229L16.2049 16.8309C16.1623 16.7764 16.1135 16.7259 16.0593 16.6802ZM30.9287 4.39111L38.8235 11.0645L32.9082 12.5724C32.8657 12.5178 32.8169 12.4673 32.7625 12.4217L24.8675 5.74824L30.7829 4.24033C30.8255 4.2948 30.8743 4.3453 30.9286 4.39102L30.9287 4.39111ZM22.5767 6.52051L30.4717 13.1936L24.5564 14.7019C24.5139 14.6473 24.465 14.5968 24.4107 14.5512L16.5157 7.87773L22.4311 6.36982C22.4731 6.42285 22.5217 6.47353 22.5767 6.52051ZM39.2172 2.09004C39.5734 1.99922 39.9407 1.95312 40.3087 1.95312C42.0646 1.95312 43.6307 2.98613 44.1179 4.46553L45.7122 9.3083L41.2602 10.4431C41.2173 10.3887 41.1684 10.3383 41.1141 10.2925L33.2194 3.61934L39.2172 2.09004ZM2.71643 12.4611C3.22798 11.6436 4.06577 11.0516 5.07578 10.7941L5.7277 10.6277C5.77045 10.6821 5.81926 10.7326 5.8734 10.7784L13.7684 17.4519L3.9709 19.9497L2.37665 15.1069C2.08404 14.2186 2.20499 13.279 2.71643 12.4611ZM4.32321 22.1363H14.0853L9.37093 29.3225H4.32332L4.32321 22.1363ZM38.0187 29.3225L42.7331 22.1363H47.7807V29.3225H38.0187Z" fill="black"/>
<path fill-rule="evenodd" clip-rule="evenodd" d="M33.7249 39.5618C33.7249 39.3904 33.6737 39.222 33.5763 39.0735C33.4789 38.9251 33.3388 38.8018 33.1701 38.7161L23.4211 33.7627C23.2524 33.677 23.061 33.632 22.8662 33.632C22.6715 33.632 22.4801 33.677 22.3114 33.7627C22.1427 33.8484 22.0026 33.9717 21.9052 34.1201C21.8078 34.2686 21.7566 34.437 21.7566 34.6084V44.5152C21.7566 44.6866 21.8079 44.8549 21.9053 45.0033C22.0027 45.1517 22.1428 45.2749 22.3114 45.3606C22.48 45.4464 22.6714 45.4916 22.8662 45.4916C23.0611 45.4916 23.2524 45.4464 23.4211 45.3606L33.1701 40.4075C33.3388 40.3218 33.4789 40.1986 33.5763 40.0501C33.6737 39.9017 33.7249 39.7332 33.7249 39.5618ZM23.9759 42.8238V36.2998L30.3959 39.5617L23.9759 42.8238ZM26.0517 48.0469C25.4406 48.0469 24.9421 48.4856 24.9421 49.0234C24.9421 49.5613 25.4406 50 26.0517 50C26.6634 50 27.1614 49.5613 27.1614 49.0234C27.1614 48.4856 26.6634 48.0469 26.0517 48.0469Z" fill="black"/>
</svg>
