<svg width="58" height="58" viewBox="0 0 58 58" fill="none" xmlns="http://www.w3.org/2000/svg">
<g filter="url(#filter0_d_4_88)">
<path d="M40.4486 0H8.67289C6.09623 0 4 1.72536 4 3.84614V45.3845C4 47.5053 6.09623 49.2307 8.67289 49.2307H34.3804C35.9947 49.7295 37.7258 49.9938 39.5101 49.9999C39.5308 50 39.5512 50 39.5719 50C43.4006 50 47.0054 48.7729 49.7279 46.5414C52.4828 44.2834 54 41.2773 54 38.0768C54 33.138 50.3325 28.891 45.1215 27.0836V3.84614C45.1215 1.72536 43.0253 0 40.4486 0ZM8.67289 47.6922C7.1269 47.6922 5.86915 46.657 5.86915 45.3845V3.84614C5.86915 2.57367 7.1269 1.53845 8.67289 1.53845H40.4486C41.9946 1.53845 43.2523 2.57367 43.2523 3.84614V26.5571C42.0592 26.2946 40.8063 26.1538 39.514 26.1538C35.6471 26.1538 32.0125 27.3941 29.2796 29.6463C28.7132 30.1131 28.1941 30.6173 27.7277 31.1538H11.4766C10.9605 31.1538 10.5421 31.4982 10.5421 31.923C10.5421 32.3478 10.9605 32.6922 11.4766 32.6922H26.5926C25.577 34.3394 25.0356 36.1725 25.028 38.0743C25.0255 38.7191 25.0857 39.363 25.208 39.9999H11.4766C10.9605 39.9999 10.542 40.3443 10.542 40.7691C10.542 41.194 10.9605 41.5384 11.4766 41.5384H25.6317C26.3046 43.3923 27.5267 45.0894 29.2309 46.4945C29.7577 46.9289 30.3243 47.3293 30.9257 47.6922L8.67289 47.6922ZM52.1308 38.0768C52.1308 40.8651 50.8091 43.4841 48.409 45.4513C46.0266 47.404 42.8667 48.4724 39.5179 48.4614C32.5363 48.4374 26.8746 43.78 26.8972 38.0794C26.9199 32.3519 32.5797 27.6922 39.514 27.6922C46.471 27.6922 52.1308 32.3507 52.1308 38.0768Z" fill="black"/>
<path d="M11.4767 23.8461H37.6449C38.161 23.8461 38.5795 23.5017 38.5795 23.0768C38.5795 22.652 38.1611 22.3076 37.6449 22.3076H11.4767C10.9605 22.3076 10.5421 22.652 10.5421 23.0768C10.5421 23.5017 10.9605 23.8461 11.4767 23.8461ZM19.5267 18.4778C19.9247 18.7482 20.5138 18.7018 20.8424 18.3741C21.1709 18.0465 21.1145 17.5616 20.7163 17.2912C19.6453 16.5637 18.9533 15.3994 18.9533 14.3249C18.9533 12.8037 22.1392 8.85963 24.5608 6.25057C26.9823 8.85964 30.1682 12.8037 30.1682 14.3249C30.1682 15.3993 29.4761 16.5637 28.4051 17.2913C28.007 17.5617 27.9507 18.0466 28.2792 18.3742C28.464 18.5585 28.7312 18.6538 29.0005 18.6538C29.2175 18.6539 29.4277 18.5917 29.5949 18.4778C31.0787 17.4698 32.0374 15.8397 32.0374 14.3249C32.0374 11.5578 25.9817 5.23232 25.2912 4.52014C25.2037 4.42985 25.0926 4.35694 24.9661 4.30684C24.8397 4.25673 24.7011 4.23071 24.5608 4.23071C24.4204 4.23071 24.2819 4.25673 24.1554 4.30684C24.029 4.35694 23.9178 4.42985 23.8303 4.52014C23.1398 5.2323 17.0841 11.5578 17.0841 14.3249C17.0841 15.8398 18.0429 17.47 19.5267 18.4778Z" fill="black"/>
<path d="M25.3216 10.4992C25.1466 10.2891 24.8576 10.1665 24.5469 10.1649C24.3944 10.1654 24.2444 10.1966 24.11 10.2558C23.9755 10.3149 23.8607 10.4003 23.7755 10.5044C23.7105 10.5838 22.1726 12.4675 21.1615 14.0682C20.9234 14.4451 21.1016 14.9096 21.5596 15.1056C22.0175 15.3016 22.5818 15.1548 22.8199 14.7779C23.3425 13.9507 24.0326 13.0198 24.5563 12.3392C25.0841 13.0169 25.7786 13.9454 26.3007 14.7764C26.4669 15.0408 26.7933 15.1925 27.1317 15.1925C27.2808 15.1924 27.4278 15.1629 27.5602 15.1064C28.0186 14.9112 28.1981 14.4471 27.961 14.0698C26.9475 12.4566 25.3875 10.5784 25.3216 10.4992ZM38.5795 31.5384V32.6922H37.5026C35.7482 32.6922 34.3739 33.6094 34.3739 34.7801V36.7582C34.3739 37.9289 35.7482 38.8461 37.5026 38.8461H41.5254C42.2827 38.8461 42.785 39.1768 42.785 39.3955V41.3735C42.785 41.5923 42.2827 41.923 41.5254 41.923H37.5026C36.7454 41.923 36.243 41.5923 36.243 41.3735C36.243 40.9487 35.8246 40.6043 35.3085 40.6043C34.7923 40.6043 34.3739 40.9487 34.3739 41.3735C34.3739 42.5443 35.7482 43.4614 37.5026 43.4614H38.5795V44.6153C38.5795 45.0401 38.9979 45.3845 39.514 45.3845C40.0302 45.3845 40.4486 45.0401 40.4486 44.6153V43.4614H41.5254C43.2799 43.4614 44.6542 42.5443 44.6542 41.3735V39.3955C44.6542 38.2247 43.2799 37.3076 41.5254 37.3076H37.5026C36.7454 37.3076 36.243 36.9769 36.243 36.7582V34.7801C36.243 34.5614 36.7454 34.2307 37.5026 34.2307H41.5254C42.2827 34.2307 42.785 34.5614 42.785 34.7801C42.785 35.2049 43.2034 35.5494 43.7196 35.5494C44.2358 35.5494 44.6542 35.2049 44.6542 34.7801C44.6542 33.6093 43.2799 32.6922 41.5254 32.6922H40.4487V31.5384C40.4487 31.1136 40.0303 30.7692 39.5141 30.7692C38.9979 30.7692 38.5795 31.1136 38.5795 31.5384Z" fill="black"/>
</g>
<defs>
<filter id="filter0_d_4_88" x="0" y="0" width="58" height="58" filterUnits="userSpaceOnUse" color-interpolation-filters="sRGB">
<feFlood flood-opacity="0" result="BackgroundImageFix"/>
<feColorMatrix in="SourceAlpha" type="matrix" values="0 0 0 0 0 0 0 0 0 0 0 0 0 0 0 0 0 0 127 0" result="hardAlpha"/>
<feOffset dy="4"/>
<feGaussianBlur stdDeviation="2"/>
<feComposite in2="hardAlpha" operator="out"/>
<feColorMatrix type="matrix" values="0 0 0 0 0 0 0 0 0 0 0 0 0 0 0 0 0 0 0.25 0"/>
<feBlend mode="normal" in2="BackgroundImageFix" result="effect1_dropShadow_4_88"/>
<feBlend mode="normal" in="SourceGraphic" in2="effect1_dropShadow_4_88" result="shape"/>
</filter>
</defs>
</svg>
