<svg width="50" height="50" viewBox="0 0 50 50" fill="none" xmlns="http://www.w3.org/2000/svg">
<path d="M39.237 25.1032V19.2952L41.2889 20.7109C41.9728 21.1834 42.7937 21.4372 43.6356 21.4364C44.895 21.4363 46.1371 20.8726 46.9248 19.8147C48.2217 18.0728 47.8038 15.6405 45.9937 14.3929L26.2537 0.773743C24.8382 -0.241706 22.924 -0.259478 21.4868 0.731168L1.68555 14.3925C-0.125048 15.6404 -0.54281 18.0728 0.754118 19.8146C2.05125 21.5566 4.57933 21.9585 6.38994 20.7109L6.39034 20.7106L8.442 19.2952V34.6378C8.442 36.6434 10.1381 38.2751 12.2229 38.2751H23.9515C24.3917 44.8114 30.0582 50 36.9615 50C44.1509 50 50 44.3727 50 37.4558C50 31.2855 45.3455 26.1418 39.237 25.1032ZM5.2075 19.1234C4.30671 19.7437 3.04937 19.5437 2.40446 18.6773C1.75924 17.8108 1.96701 16.6009 2.86799 15.9799L22.6693 2.31864C23.386 1.82483 24.3408 1.8345 25.0451 2.34286L25.0627 2.35526L44.8113 15.9802C45.7119 16.6009 45.9197 17.8109 45.2745 18.6774C44.6293 19.544 43.3716 19.7438 42.4714 19.1235L24.4309 6.6769C24.2542 6.55493 24.0468 6.4939 23.8395 6.4939C23.6321 6.4939 23.4248 6.55493 23.2481 6.6769L5.2075 19.1234ZM10.4719 34.6377V17.8946L23.8395 8.67215L37.207 17.8947V24.9146C37.1253 24.9132 37.0436 24.9116 36.9615 24.9116C34.1386 24.9116 31.5224 25.7795 29.3857 27.2522V25.6816C29.3857 23.2123 27.2977 21.2036 24.7311 21.2036H22.9477C20.3813 21.2036 18.2933 23.2124 18.2933 25.6816V36.3221H12.2229C11.2573 36.3221 10.4719 35.5664 10.4719 34.6377ZM27.3558 28.9828C25.4749 30.9549 24.2403 33.5058 23.9768 36.3221H20.3232V25.6816C20.3232 24.2893 21.5006 23.1566 22.9477 23.1566H24.7311C26.1784 23.1566 27.3557 24.2893 27.3557 25.6816V28.9828H27.3558ZM36.9615 48.047C30.8913 48.047 25.9529 43.2958 25.9529 37.4558C25.9529 31.6158 30.8913 26.8646 36.9615 26.8646C43.0316 26.8646 47.9701 31.6158 47.9701 37.4558C47.9701 43.2958 43.0316 48.047 36.9615 48.047ZM41.2089 40.2841C41.2089 42.0385 39.84 43.5157 37.9965 43.9251L38.0145 44.6475C38.028 45.1866 37.5847 45.6342 37.0243 45.6472L36.9994 45.6475C36.4502 45.6475 35.9985 45.2258 35.9852 44.6946L35.9663 43.9429C34.9112 43.7282 34.2206 43.1769 33.5604 42.5778C33.1526 42.2077 33.134 41.5897 33.5186 41.1974C33.9032 40.8051 34.5456 40.7871 34.9535 41.1571C35.7076 41.8416 36.1244 42.0846 36.9616 42.0846C38.1843 42.0846 39.1791 41.2768 39.1791 40.284C39.1791 39.2911 38.1843 38.4833 36.9616 38.4833C34.6196 38.4833 32.7141 36.7995 32.7141 34.7297C32.7141 32.9745 34.0842 31.4968 35.929 31.0882L35.9086 30.2638C35.8952 29.7247 36.3386 29.2772 36.899 29.2643C37.0323 29.261 37.1649 29.2831 37.2894 29.3293C37.4138 29.3754 37.5275 29.4447 37.624 29.5333C37.7205 29.6218 37.798 29.7278 37.8518 29.8451C37.9057 29.9625 37.9349 30.0889 37.9379 30.2172L37.9602 31.1126C38.9678 31.3569 40.1435 31.9177 40.6775 32.6996C40.9854 33.1502 40.8552 33.7557 40.3868 34.0519C39.9182 34.3482 39.2889 34.2228 38.9812 33.7723C38.7389 33.4177 37.5687 32.9292 36.9616 32.9292C35.7388 32.9292 34.744 33.7369 34.744 34.7298C34.744 35.7227 35.7388 36.5304 36.9616 36.5304C39.3036 36.5304 41.2089 38.2143 41.2089 40.2841Z" fill="black"/>
</svg>
