<svg width="50" height="50" viewBox="0 0 50 50" fill="none" xmlns="http://www.w3.org/2000/svg">
<path d="M45.1154 16.926L37.5389 4.84763C37.1817 4.29759 36.7032 3.99323 36.2066 4.00011C35.7099 4.00699 35.2349 4.32456 34.8837 4.88442C34.5325 5.44427 34.3333 6.20162 34.329 6.99335C34.3247 7.78507 34.5156 8.54783 34.8606 9.11733L39.2039 16.0412H13.4702C12.9679 16.0412 12.4861 16.3594 12.1309 16.9257C11.7757 17.4919 11.5761 18.26 11.5761 19.0608C11.5761 19.8617 11.7757 20.6297 12.1309 21.196C12.4861 21.7623 12.9679 22.0804 13.4702 22.0804H43.7763C44.1508 22.0803 44.517 21.9031 44.8284 21.5713C45.1398 21.2395 45.3825 20.768 45.5258 20.2163C45.6692 19.6646 45.7067 19.0576 45.6336 18.4719C45.5606 17.8863 45.3802 17.3483 45.1154 16.926ZM36.1998 28.1196H5.89372C5.51916 28.1197 5.15303 28.2969 4.84161 28.6287C4.5302 28.9605 4.28749 29.432 4.14416 29.9837C4.00083 30.5354 3.96332 31.1424 4.03637 31.7281C4.10943 32.3137 4.28976 32.8517 4.55458 33.274L12.1311 45.3524C12.4883 45.9024 12.9668 46.2068 13.4634 46.1999C13.9601 46.193 14.4351 45.8754 14.7863 45.3156C15.1375 44.7557 15.3367 43.9984 15.341 43.2067C15.3453 42.4149 15.1544 41.6522 14.8094 41.0827L10.4661 34.1588H36.1998C36.7021 34.1588 37.1839 33.8406 37.5391 33.2743C37.8943 32.7081 38.0939 31.94 38.0939 31.1392C38.0939 30.3383 37.8943 29.5703 37.5391 29.004C37.1839 28.4377 36.7021 28.1196 36.1998 28.1196Z" fill="black"/>
</svg>
