<svg width="28" height="21" viewBox="0 0 28 21" fill="none" xmlns="http://www.w3.org/2000/svg">
<g opacity="0.4">
<path opacity="0.4" d="M12.9511 3.78953L26.17 3.41211C27.1806 3.41211 28 4.19617 28 5.16322C28 6.13027 27.1806 6.91434 26.17 6.91434L12.9511 6.53692C12.1583 6.53692 11.5155 5.92187 11.5155 5.16322C11.5155 4.40331 12.1583 3.78953 12.9511 3.78953Z" fill="#2D9CDB"/>
<path d="M0.321957 4.18982C0.371531 4.13959 0.55673 3.92731 0.730706 3.75103C1.74556 2.64695 4.39542 0.841566 5.78162 0.289051C5.99207 0.200914 6.52429 0.0132679 6.80957 0C7.08176 0 7.34179 0.0634965 7.58965 0.188594C7.89926 0.36392 8.14619 0.640651 8.28275 0.966663C8.36974 1.19222 8.5063 1.86983 8.5063 1.88215C8.64193 2.62231 8.71582 3.8259 8.71582 5.15648C8.71582 6.42262 8.64193 7.57693 8.53062 8.32941C8.51846 8.34268 8.3819 9.1833 8.23318 9.4714C7.96099 9.99833 7.42877 10.3243 6.85914 10.3243H6.80957C6.43823 10.312 5.65815 9.98506 5.65815 9.97369C4.34585 9.42118 1.75866 7.70298 0.718547 6.56099C0.718547 6.56099 0.424845 6.2672 0.297637 6.08429C0.0993423 5.82083 0.00019455 5.49482 0.00019455 5.1688C0.00019455 4.80488 0.111503 4.46655 0.321957 4.18982Z" fill="#2D9CDB"/>
<path opacity="0.4" d="M15.0489 17.2105L1.82999 17.5879C0.819381 17.5879 9.86621e-09 16.8038 2.20351e-08 15.8368C3.42039e-08 14.8697 0.819381 14.0857 1.82999 14.0857L15.0489 14.4631C15.8417 14.4631 16.4845 15.0781 16.4845 15.8368C16.4845 16.5967 15.8417 17.2105 15.0489 17.2105Z" fill="#2D9CDB"/>
<path d="M27.678 16.8102C27.6285 16.8604 27.4433 17.0727 27.2693 17.249C26.2544 18.353 23.6046 20.1584 22.2184 20.7109C22.0079 20.7991 21.4757 20.9867 21.1904 21C20.9182 21 20.6582 20.9365 20.4103 20.8114C20.1007 20.6361 19.8538 20.3593 19.7172 20.0333C19.6303 19.8078 19.4937 19.1302 19.4937 19.1179C19.3581 18.3777 19.2842 17.1741 19.2842 15.8435C19.2842 14.5774 19.3581 13.4231 19.4694 12.6706C19.4815 12.6573 19.6181 11.8167 19.7668 11.5286C20.039 11.0017 20.5712 10.6757 21.1409 10.6757L21.1904 10.6757C21.5618 10.688 22.3419 11.0149 22.3419 11.0263C23.6542 11.5788 26.2413 13.297 27.2815 14.439C27.2815 14.439 27.5752 14.7328 27.7024 14.9157C27.9007 15.1792 27.9998 15.5052 27.9998 15.8312C27.9998 16.1951 27.8885 16.5334 27.678 16.8102Z" fill="#2D9CDB"/>
</g>
</svg>
