<svg width="50" height="50" viewBox="0 0 50 50" fill="none" xmlns="http://www.w3.org/2000/svg">
<path d="M19.7917 36.4583C19.5154 36.4583 19.2504 36.5681 19.0551 36.7634C18.8597 36.9588 18.75 37.2237 18.75 37.5C18.75 37.7763 18.8597 38.0412 19.0551 38.2366C19.2504 38.4319 19.5154 38.5417 19.7917 38.5417H30.2083C30.4846 38.5417 30.7496 38.4319 30.9449 38.2366C31.1403 38.0412 31.25 37.7763 31.25 37.5C31.25 37.2237 31.1403 36.9588 30.9449 36.7634C30.7496 36.5681 30.4846 36.4583 30.2083 36.4583H19.7917Z" fill="black"/>
<path fill-rule="evenodd" clip-rule="evenodd" d="M29.5188 5.36459C28.2318 4.34837 26.6398 3.79562 25 3.79562C23.3602 3.79562 21.7682 4.34837 20.4813 5.36459L6.9396 16.0563C6.07519 16.7388 5.37664 17.6083 4.89639 18.5995C4.41613 19.5907 4.16665 20.6778 4.16669 21.7792V38.5417C4.16669 40.4755 4.93491 42.3302 6.30237 43.6977C7.66982 45.0651 9.52448 45.8333 11.4584 45.8333H38.5417C40.4756 45.8333 42.3302 45.0651 43.6977 43.6977C45.0651 42.3302 45.8334 40.4755 45.8334 38.5417V21.7792C45.8334 20.6778 45.5839 19.5907 45.1037 18.5995C44.6234 17.6083 43.9249 16.7388 43.0604 16.0563L29.5188 5.36459ZM21.7729 7.00001C22.6921 6.27443 23.829 5.87979 25 5.87979C26.1711 5.87979 27.3079 6.27443 28.2271 7.00001L41.7688 17.6917C42.3863 18.1791 42.8853 18.8001 43.2285 19.5081C43.5716 20.216 43.7499 20.9925 43.75 21.7792V38.5417C43.75 39.923 43.2013 41.2478 42.2245 42.2245C41.2478 43.2013 39.923 43.75 38.5417 43.75H11.4584C10.077 43.75 8.75226 43.2013 7.77551 42.2245C6.79875 41.2478 6.25002 39.923 6.25002 38.5417V21.7792C6.24986 20.9926 6.42785 20.2163 6.77063 19.5083C7.1134 18.8004 7.61206 18.1793 8.22919 17.6917L21.7729 7.00001Z" fill="black"/>
</svg>
