<svg width="50" height="50" viewBox="0 0 50 50" fill="none" xmlns="http://www.w3.org/2000/svg">
<path fill-rule="evenodd" clip-rule="evenodd" d="M5 13.0714C5 12.5221 5.23998 11.9952 5.66715 11.6067C6.09431 11.2182 6.67367 11 7.27778 11H43.7222C44.3263 11 44.9057 11.2182 45.3329 11.6067C45.76 11.9952 46 12.5221 46 13.0714C46 13.6208 45.76 14.1477 45.3329 14.5361C44.9057 14.9246 44.3263 15.1429 43.7222 15.1429H7.27778C6.67367 15.1429 6.09431 14.9246 5.66715 14.5361C5.23998 14.1477 5 13.6208 5 13.0714ZM5 25.5C5 24.9506 5.23998 24.4237 5.66715 24.0353C6.09431 23.6468 6.67367 23.4286 7.27778 23.4286H43.7222C44.3263 23.4286 44.9057 23.6468 45.3329 24.0353C45.76 24.4237 46 24.9506 46 25.5C46 26.0494 45.76 26.5763 45.3329 26.9647C44.9057 27.3532 44.3263 27.5714 43.7222 27.5714H7.27778C6.67367 27.5714 6.09431 27.3532 5.66715 26.9647C5.23998 26.5763 5 26.0494 5 25.5ZM5 37.9286C5 37.3792 5.23998 36.8523 5.66715 36.4638C6.09431 36.0754 6.67367 35.8571 7.27778 35.8571H43.7222C44.3263 35.8571 44.9057 36.0754 45.3329 36.4638C45.76 36.8523 46 37.3792 46 37.9286C46 38.4779 45.76 39.0048 45.3329 39.3933C44.9057 39.7818 44.3263 40 43.7222 40H7.27778C6.67367 40 6.09431 39.7818 5.66715 39.3933C5.23998 39.0048 5 38.4779 5 37.9286Z" fill="black"/>
</svg>
