<svg width="50" height="50" viewBox="0 0 50 50" fill="none" xmlns="http://www.w3.org/2000/svg">
<path d="M4.6875 17.1875C5.1019 17.1875 5.49933 17.0229 5.79235 16.7299C6.08538 16.4368 6.25 16.0394 6.25 15.625V7.8125C6.25 7.3981 6.41462 7.00067 6.70765 6.70765C7.00067 6.41462 7.3981 6.25 7.8125 6.25H16.4062C16.8207 6.25 17.2181 6.08538 17.5111 5.79235C17.8041 5.49933 17.9688 5.1019 17.9688 4.6875C17.9688 4.2731 17.8041 3.87567 17.5111 3.58265C17.2181 3.28962 16.8207 3.125 16.4062 3.125H7.8125C6.5693 3.125 5.37701 3.61886 4.49794 4.49794C3.61886 5.37701 3.125 6.5693 3.125 7.8125V15.625C3.125 16.0394 3.28962 16.4368 3.58265 16.7299C3.87567 17.0229 4.2731 17.1875 4.6875 17.1875ZM42.1875 3.125H33.5938C33.1793 3.125 32.7819 3.28962 32.4889 3.58265C32.1959 3.87567 32.0312 4.2731 32.0312 4.6875C32.0312 5.1019 32.1959 5.49933 32.4889 5.79235C32.7819 6.08538 33.1793 6.25 33.5938 6.25H42.1875C42.6019 6.25 42.9993 6.41462 43.2924 6.70765C43.5854 7.00067 43.75 7.3981 43.75 7.8125V15.625C43.75 16.0394 43.9146 16.4368 44.2076 16.7299C44.5007 17.0229 44.8981 17.1875 45.3125 17.1875C45.7269 17.1875 46.1243 17.0229 46.4174 16.7299C46.7104 16.4368 46.875 16.0394 46.875 15.625V7.8125C46.875 6.5693 46.3811 5.37701 45.5021 4.49794C44.623 3.61886 43.4307 3.125 42.1875 3.125ZM45.3125 32.8125C44.8981 32.8125 44.5007 32.9771 44.2076 33.2701C43.9146 33.5632 43.75 33.9606 43.75 34.375V42.1875C43.75 42.6019 43.5854 42.9993 43.2924 43.2924C42.9993 43.5854 42.6019 43.75 42.1875 43.75H33.5938C33.1793 43.75 32.7819 43.9146 32.4889 44.2076C32.1959 44.5007 32.0312 44.8981 32.0312 45.3125C32.0312 45.7269 32.1959 46.1243 32.4889 46.4174C32.7819 46.7104 33.1793 46.875 33.5938 46.875H42.1875C43.4307 46.875 44.623 46.3811 45.5021 45.5021C46.3811 44.623 46.875 43.4307 46.875 42.1875V34.375C46.875 33.9606 46.7104 33.5632 46.4174 33.2701C46.1243 32.9771 45.7269 32.8125 45.3125 32.8125ZM16.4062 43.75H7.8125C7.3981 43.75 7.00067 43.5854 6.70765 43.2924C6.41462 42.9993 6.25 42.6019 6.25 42.1875V34.375C6.25 33.9606 6.08538 33.5632 5.79235 33.2701C5.49933 32.9771 5.1019 32.8125 4.6875 32.8125C4.2731 32.8125 3.87567 32.9771 3.58265 33.2701C3.28962 33.5632 3.125 33.9606 3.125 34.375V42.1875C3.125 43.4307 3.61886 44.623 4.49794 45.5021C5.37701 46.3811 6.5693 46.875 7.8125 46.875H16.4062C16.8207 46.875 17.2181 46.7104 17.5111 46.4174C17.8041 46.1243 17.9688 45.7269 17.9688 45.3125C17.9688 44.8981 17.8041 44.5007 17.5111 44.2076C17.2181 43.9146 16.8207 43.75 16.4062 43.75ZM45.3125 23.4375H4.6875C4.2731 23.4375 3.87567 23.6021 3.58265 23.8951C3.28962 24.1882 3.125 24.5856 3.125 25C3.125 25.4144 3.28962 25.8118 3.58265 26.1049C3.87567 26.3979 4.2731 26.5625 4.6875 26.5625H45.3125C45.7269 26.5625 46.1243 26.3979 46.4174 26.1049C46.7104 25.8118 46.875 25.4144 46.875 25C46.875 24.5856 46.7104 24.1882 46.4174 23.8951C46.1243 23.6021 45.7269 23.4375 45.3125 23.4375Z" fill="black"/>
</svg>
