<svg width="31" height="23" viewBox="0 0 31 23" fill="none" xmlns="http://www.w3.org/2000/svg">
<path opacity="0.4" d="M19.3934 4.78219C20.2459 4.78219 21.0646 5.08666 21.6606 5.62919C22.2609 6.17674 22.5935 6.91223 22.5921 7.67779V9.26905C22.585 9.45574 22.4173 9.60735 22.2074 9.61236H8.79282C8.58428 9.6061 8.41659 9.45449 8.41224 9.26905V7.67779C8.39687 6.09279 9.8285 4.79848 11.6096 4.78219H19.3934ZM22.8191 0.000375889C25.9148 0.000375889 28.4315 2.23817 28.4315 4.99093V7.36279C28.4315 7.88904 27.9524 8.31755 27.3591 8.31755C26.7673 8.31755 26.2868 7.88904 26.2868 7.36279V4.99093C26.2868 3.29066 24.7312 1.90739 22.8191 1.90739H20.5744C19.9826 1.90739 19.5021 1.48138 19.5021 0.955135C19.5021 0.427637 19.9826 0.000375889 20.5744 0.000375889H22.8191ZM10.4671 0C11.0589 0 11.5394 0.427261 11.5394 0.954759C11.5394 1.481 11.0603 1.90826 10.4671 1.90826L8.17169 1.90952C6.2666 1.91202 4.7166 3.29154 4.7166 4.9868V7.36242C4.7166 7.88866 4.23469 8.31718 3.64288 8.31718C3.05106 8.31718 2.57056 7.88866 2.57056 7.36242V4.9868C2.57056 2.2403 5.08297 0.00375889 8.17028 0.00125296L10.4671 0Z" fill="#307BF6" fill-opacity="0.4"/>
<path d="M29.9279 11.5527H1.07397C0.482153 11.5527 0.000244141 11.98 0.000244141 12.5075C0.000244141 13.0337 0.482153 13.4597 1.07397 13.4597H2.56902V18.013C2.56902 20.7595 5.08283 22.9961 8.17015 22.9986L10.4656 22.9998C11.0588 22.9998 11.5379 22.5726 11.5393 22.0451C11.5393 21.5188 11.0588 21.0915 10.467 21.0915L8.17297 21.0903C6.26647 21.0878 4.71506 19.7083 4.71506 18.013V13.4597H8.41111V14.7265C8.39702 16.3115 9.82724 17.6071 11.6083 17.6221H19.3922C21.1747 17.6071 22.6049 16.3115 22.5908 14.7265V13.4597H26.2868V18.008C26.2868 19.7095 24.7312 21.0915 22.8191 21.0915H20.5744C19.9812 21.0915 19.5007 21.5188 19.5007 22.0451C19.5007 22.5726 19.9812 22.9998 20.5744 22.9998H22.8191C25.9134 22.9998 28.4315 20.762 28.4315 18.008V13.4597H29.9279C30.5197 13.4597 31.0002 13.0337 31.0002 12.5075C31.0002 11.98 30.5197 11.5527 29.9279 11.5527Z" fill="#307BF6" fill-opacity="0.4"/>
</svg>
