<svg width="155" height="40" viewBox="0 0 155 40" fill="none" xmlns="http://www.w3.org/2000/svg">
<path fill-rule="evenodd" clip-rule="evenodd" d="M18.2035 0.979248L0.875 39.3266H21.6196L24.1913 33.2124H30.0697L32.6415 39.3266H55.4755V34.6601L57.5101 39.3266H69.3216L71.3563 34.5614V39.3266H118.845L124.619 33.3712L130.026 39.3266L154.417 39.3759L137.034 20.26L154.417 0.979248H130.404L124.783 6.82457L119.547 0.979248H67.8854L63.4493 10.877L58.909 0.979248H38.2077V5.48699L35.9048 0.979248H18.2035ZM89.1178 6.42457H116.388L124.729 15.434L133.338 6.42457H141.679L129.006 20.2545L141.679 33.9251H132.96L124.619 24.811L115.966 33.9251H89.1178V6.42457ZM95.8521 17.1454V12.1222V12.1174H112.868L120.293 20.1507L112.539 28.228H95.8521V22.7441H110.729V17.1454H95.8521ZM22.2174 6.42457H32.3293L43.8233 32.4281V6.42457H54.9005L63.7782 25.069L71.9601 6.42457H82.982V33.9413H76.2754L76.2207 12.3794L66.4432 33.9413H60.4439L50.6117 12.3794V33.9413H36.8148L34.1992 27.7724H20.0679L17.4577 33.9359H10.0655L22.2174 6.42457ZM22.4809 22.0693L27.1366 11.08L31.7869 22.0693H22.4809Z" fill="white"/>
</svg>
