<svg width="45" height="40" viewBox="0 0 45 40" fill="none" xmlns="http://www.w3.org/2000/svg">
<g clip-path="url(#clip0_174_8128)" filter="url(#filter0_d_174_8128)">
<path d="M29.9533 35.979C27.9221 35.979 25.8909 35.9686 23.8598 35.9877C23.4208 35.9912 23.2831 35.8606 23.2849 35.4425C23.2996 31.6329 23.2978 27.8217 23.2849 24.0121C23.2849 23.6097 23.4245 23.4826 23.8396 23.4895C24.9231 23.5087 26.0085 23.5069 27.092 23.4895C27.4336 23.4843 27.6613 23.5993 27.8707 23.8449C28.8954 25.052 29.9422 26.2435 30.9597 27.4558C31.2131 27.7572 31.4886 27.8756 31.8944 27.8739C34.7502 27.86 37.6059 27.86 40.4635 27.8739C41.053 27.8774 41.8078 27.6266 42.1917 27.9889C42.592 28.3669 42.2982 29.0898 42.3221 29.6611C42.3606 30.5739 42.1696 31.4553 41.7546 32.2757C40.5811 34.5994 38.6234 35.8727 35.909 35.9668C33.9256 36.0365 31.9385 35.9807 29.9533 35.9807V35.979Z" fill="white"/>
<path d="M15.3677 35.979C13.4577 35.979 11.5496 35.9842 9.63967 35.979C5.95199 35.9685 3.04848 33.2093 3.03563 29.7064C3.03563 29.2709 3.06134 28.8354 3.02828 28.4034C2.99523 27.9714 3.18806 27.8582 3.61413 27.8599C6.17971 27.8721 8.7453 27.8652 11.3127 27.8652C12.0161 27.8652 12.7195 27.839 13.4192 27.8739C13.8857 27.8983 14.1795 27.7258 14.4605 27.3896C15.4283 26.2312 16.431 25.1007 17.4025 23.9459C17.6725 23.6254 17.9572 23.4703 18.4071 23.4843C19.4447 23.5174 20.4842 23.5069 21.5218 23.4877C21.9313 23.4808 22.0819 23.601 22.0801 24.0068C22.0672 27.8321 22.0672 31.6573 22.0801 35.4808C22.0801 35.857 21.9589 35.9877 21.5549 35.9842C19.4925 35.9685 17.4319 35.9772 15.3695 35.9772L15.3677 35.979Z" fill="white"/>
<path d="M22.0712 6.25731C22.0712 8.15599 22.0584 10.0529 22.0804 11.9516C22.0859 12.3993 21.9298 12.523 21.4743 12.5125C20.3908 12.4864 19.3054 12.4951 18.2219 12.509C17.9171 12.5125 17.7095 12.4184 17.5185 12.1937C16.4736 10.9657 15.4066 9.75158 14.3671 8.51831C14.1339 8.24135 13.8841 8.13161 13.5131 8.13335C10.5802 8.14554 7.6492 8.14554 4.71631 8.13335C4.1874 8.13161 3.51708 8.35457 3.16631 8.02535C2.79717 7.67871 3.06346 7.0342 3.03775 6.52034C2.98817 5.5501 3.16631 4.61121 3.60707 3.73329C4.78059 1.40088 6.7585 0.104896 9.45815 0.0456714C13.4874 -0.041424 17.5222 0.0247685 21.5533 0.0143171C21.9537 0.0143171 22.0822 0.14496 22.0786 0.521212C22.0639 2.43383 22.0712 4.34644 22.0712 6.25906V6.25731Z" fill="white"/>
<path d="M29.9479 0.0204523C31.8119 0.0204523 33.6741 0.0169685 35.5382 0.0204523C39.1101 0.0291618 41.8245 2.25706 42.2873 5.60849C42.3883 6.33487 42.3167 7.08389 42.3258 7.82245C42.3277 8.04542 42.1936 8.13077 41.9787 8.13426C41.8263 8.13774 41.6739 8.13948 41.5215 8.13948C38.3149 8.13948 35.1066 8.14471 31.9001 8.13251C31.496 8.13251 31.2242 8.244 30.9689 8.54883C29.9423 9.77339 28.8845 10.9736 27.8487 12.1912C27.6577 12.4159 27.4521 12.5117 27.1472 12.5082C26.0471 12.4943 24.9471 12.4908 23.8488 12.5082C23.4448 12.5152 23.285 12.4089 23.2869 11.9961C23.3016 8.17084 23.3016 4.34735 23.2869 0.522122C23.2869 0.102322 23.4613 0.0100009 23.8562 0.0117428C25.8874 0.0239361 27.9185 0.0169685 29.9497 0.0169685L29.9479 0.0204523Z" fill="white"/>
<path d="M9.6323 18.5568C11.6176 18.5568 13.6046 18.5568 15.5899 18.5568C16.1666 18.5568 16.1941 18.5847 16.1959 19.1125C16.1978 20.4451 16.1904 21.7794 16.2015 23.1119C16.2033 23.4202 16.1151 23.6676 15.9076 23.9045C15.173 24.7389 14.4476 25.5785 13.7314 26.4268C13.533 26.6619 13.3145 26.7647 12.9913 26.763C9.86003 26.7543 6.7288 26.7508 3.59757 26.7647C3.14763 26.7664 3.02826 26.6132 3.0301 26.2073C3.04479 23.8313 3.04662 21.4554 3.0301 19.0777C3.02642 18.6735 3.17334 18.5464 3.58472 18.5499C5.60119 18.5621 7.61767 18.5551 9.63414 18.5551L9.6323 18.5568Z" fill="white"/>
<path d="M35.7473 18.5568C37.7491 18.5568 39.749 18.5656 41.7508 18.5499C42.1769 18.5464 42.3403 18.6648 42.3367 19.0934C42.3183 21.4693 42.3183 23.8453 42.3367 26.223C42.3403 26.648 42.1842 26.7665 41.7527 26.7647C38.6214 26.7508 35.4902 26.7543 32.359 26.763C32.056 26.763 31.8429 26.6724 31.6538 26.4494C30.9173 25.5802 30.1717 24.7162 29.4224 23.8575C29.248 23.6572 29.1653 23.4464 29.1671 23.1834C29.1745 21.8072 29.1818 20.4294 29.1635 19.0533C29.158 18.6683 29.3122 18.5481 29.7016 18.5516C31.718 18.5621 33.7345 18.5568 35.751 18.5568H35.7473Z" fill="white"/>
<path d="M9.61039 17.4489C7.61044 17.4489 5.60866 17.4402 3.60871 17.4559C3.17346 17.4593 3.02654 17.327 3.02838 16.9072C3.04491 14.5312 3.04674 12.1552 3.02838 9.77927C3.02471 9.35076 3.19183 9.23754 3.61606 9.23928C6.73259 9.25147 9.84729 9.24973 12.9638 9.23928C13.3017 9.23928 13.5368 9.34728 13.7443 9.59463C14.4679 10.4551 15.2044 11.3069 15.9445 12.1552C16.1189 12.3555 16.2016 12.5663 16.1997 12.8293C16.1924 14.1915 16.1814 15.5537 16.2052 16.9141C16.2126 17.3426 16.04 17.4576 15.6139 17.4541C13.6139 17.4384 11.6122 17.4471 9.61222 17.4471L9.61039 17.4489Z" fill="white"/>
<path d="M35.7436 17.4491C33.7419 17.4491 31.7419 17.4404 29.7401 17.456C29.3049 17.4595 29.1506 17.3254 29.158 16.9073C29.18 15.5452 29.169 14.183 29.1635 12.8208C29.1635 12.577 29.2278 12.3749 29.3949 12.1833C30.1533 11.3123 30.9081 10.4379 31.6538 9.5565C31.8429 9.33353 32.0615 9.24121 32.3627 9.24121C35.5086 9.24818 38.6563 9.24992 41.8022 9.24121C42.1971 9.24121 42.3367 9.36489 42.3348 9.74636C42.322 12.1519 42.3201 14.5575 42.3348 16.9613C42.3367 17.3533 42.1769 17.4578 41.7931 17.456C39.7766 17.4439 37.7601 17.4508 35.7436 17.4508V17.4491Z" fill="white"/>
</g>
<defs>
<filter id="filter0_d_174_8128" x="0.971436" y="0" width="43.4314" height="40" filterUnits="userSpaceOnUse" color-interpolation-filters="sRGB">
<feFlood flood-opacity="0" result="BackgroundImageFix"/>
<feColorMatrix in="SourceAlpha" type="matrix" values="0 0 0 0 0 0 0 0 0 0 0 0 0 0 0 0 0 0 127 0" result="hardAlpha"/>
<feOffset dy="2"/>
<feGaussianBlur stdDeviation="1"/>
<feComposite in2="hardAlpha" operator="out"/>
<feColorMatrix type="matrix" values="0 0 0 0 0.188235 0 0 0 0 0.482353 0 0 0 0 0.964706 0 0 0 0.1 0"/>
<feBlend mode="normal" in2="BackgroundImageFix" result="effect1_dropShadow_174_8128"/>
<feBlend mode="normal" in="SourceGraphic" in2="effect1_dropShadow_174_8128" result="shape"/>
</filter>
<clipPath id="clip0_174_8128">
<rect width="39.4314" height="36" fill="white" transform="translate(2.97144)"/>
</clipPath>
</defs>
</svg>
