<svg width="157" height="27" viewBox="0 0 157 27" fill="none" xmlns="http://www.w3.org/2000/svg">
<path fill-rule="evenodd" clip-rule="evenodd" d="M145.642 0.857359C151.392 0.857359 154.554 3.4161 154.554 8.24929C154.842 11.9453 152.254 15.0726 148.804 15.6412L156.567 26.1605H150.529L143.917 15.9255H143.342V26.1605H138.455V0.857359H145.642ZM143.342 12.5139H144.78C147.942 12.5139 149.379 11.0924 149.379 8.53364C149.379 6.2592 147.942 4.83767 144.78 4.83767H143.342V12.5139ZM121.493 26.1605H135.293V21.8959H126.381V15.0726H135.005V10.808H126.381V5.12194H135.293V0.857359H121.493V26.1605V26.1605ZM107.119 17.9157L100.507 0.857359H95.3323L105.969 26.7291H108.557L119.194 0.857359H114.019L107.119 17.9157V17.9157ZM48.7599 13.6511C48.7599 20.7588 54.5096 26.7292 61.6967 26.7292C63.9966 26.7292 66.009 26.1606 68.0213 25.3076V19.6215C66.5839 21.3274 64.5715 22.4646 62.2717 22.4646C57.6719 22.4646 53.9346 19.0529 53.9346 14.5041V13.9354C53.6471 9.38656 57.3844 5.40629 61.9842 5.12199C64.284 5.12199 66.5839 6.25921 68.0213 7.96504V2.27893C66.2964 1.14171 63.9966 0.857409 61.9842 0.857409C54.5096 0.288799 48.7599 6.25921 48.7599 13.6511V13.6511ZM39.8478 10.5238C36.973 9.38655 36.1105 8.81794 36.1105 7.39642C36.398 5.69059 37.8354 4.26906 39.5603 4.55337C40.9978 4.55337 42.4352 5.40628 43.5851 6.5435L46.1725 3.13184C44.1601 1.42601 41.5727 0.28879 38.9854 0.28879C34.9606 0.00448537 31.5108 3.13184 31.2233 7.11211V7.39642C31.2233 10.8081 32.6607 12.7982 37.2605 14.2197C38.4104 14.504 39.5603 15.0727 40.7103 15.6413C41.5727 16.2099 42.1477 17.0628 42.1477 18.2C42.1477 20.1901 40.4228 21.896 38.6979 21.896H38.4104C36.1105 21.896 34.0981 20.4745 33.2357 18.4843L30.0734 21.6117C31.7983 24.739 35.2481 26.4449 38.6979 26.4449C43.2976 26.7292 47.0349 23.3175 47.3224 18.7686V17.9157C47.0349 14.504 45.5975 12.7982 39.8478 10.5238V10.5238ZM23.1737 26.1605H28.061V0.857359H23.1737V26.1605V26.1605ZM0.462435 0.857359H7.64955H9.08697C15.9866 1.14166 21.4488 6.82777 21.1613 13.6511C21.1613 17.3471 19.4364 20.7587 16.5616 23.3175C13.9742 25.3076 10.8119 26.4448 7.64955 26.1605H0.462435V0.857359ZM6.78713 21.8961C9.08701 22.1804 11.6744 21.3275 13.3993 19.906C15.1242 18.2001 15.9866 15.9257 15.9866 13.367C15.9866 11.0925 15.1242 8.81807 13.3993 7.11224C11.6744 5.69072 9.08701 4.8378 6.78713 5.12211H5.3497V21.8961H6.78713Z" fill="black"/>
</svg>
