<svg width="50" height="50" viewBox="0 0 50 50" fill="none" xmlns="http://www.w3.org/2000/svg">
<path d="M18.9847 17.2097L12.4396 32.8275H8.16777L4.94922 20.3648C4.75107 19.5963 4.58174 19.3166 3.9876 18.9902C3.01436 18.4641 1.41348 17.9705 0 17.6631L0.0989258 17.2098H6.97187C7.84844 17.2098 8.63652 17.7944 8.83467 18.8023L10.5365 27.8416L14.74 17.2098L18.9847 17.2097ZM35.7177 27.7261C35.7366 23.6064 30.0172 23.3821 30.0583 21.5391C30.0694 20.9765 30.6026 20.3812 31.7704 20.2309C32.3503 20.1537 33.9461 20.0972 35.7548 20.9275L36.4637 17.6172C35.4905 17.264 34.2396 16.9257 32.685 16.9257C28.6919 16.9257 25.8809 19.0496 25.8571 22.0886C25.831 24.3358 27.8627 25.5899 29.3952 26.3384C30.9688 27.1042 31.495 27.5932 31.4895 28.28C31.4792 29.3282 30.2339 29.7863 29.0724 29.8069C27.0406 29.8386 25.8622 29.2579 24.9211 28.8196L24.1896 32.2438C25.1323 32.6766 26.8776 33.0524 28.6839 33.0745C32.9279 33.0743 35.7043 30.9731 35.7177 27.7261ZM46.2625 32.8275H50L46.7388 17.2098H43.2885C42.5132 17.2098 41.8596 17.6619 41.5684 18.3546L35.5096 32.8275H39.7503L40.5921 30.4951H45.7759L46.2625 32.8275ZM41.7543 27.294L43.8818 21.4298L45.1058 27.294H41.7543ZM24.7583 17.2097L21.4155 32.8275H17.3746L20.7182 17.2097H24.7583Z" fill="#1A2ADF"/>
</svg>
