<svg width="131" height="43" viewBox="0 0 131 43" fill="none" xmlns="http://www.w3.org/2000/svg">
<path fill-rule="evenodd" clip-rule="evenodd" d="M33.2253 42.0334H22.0053L13.5916 9.93481C13.1923 8.45828 12.3444 7.15294 11.0971 6.53771C7.98435 4.99163 4.55433 3.76119 0.812499 3.14061V1.90482H18.8871C21.3816 1.90482 23.2526 3.76119 23.5644 5.91714L27.9299 29.0709L39.1444 1.90482H50.0526L33.2253 42.0334ZM56.2891 42.0334H45.6927L54.4182 1.90482H65.0145L56.2891 42.0334ZM78.7237 13.0215C79.0355 10.8602 80.9064 9.62438 83.0892 9.62438C86.5192 9.3141 90.2555 9.93467 93.3737 11.4754L95.2446 2.83553C92.1265 1.59974 88.6964 0.979165 85.5837 0.979165C75.2991 0.979165 67.8155 6.53757 67.8155 14.2519C67.8155 20.1206 73.1164 23.2021 76.8582 25.0584C80.9064 26.9095 82.4655 28.1453 82.1537 29.9963C82.1537 32.7728 79.0355 34.0086 75.9228 34.0086C72.1809 34.0086 68.4391 33.0831 65.0146 31.537L63.1436 40.1822C66.8855 41.723 70.9337 42.3435 74.6755 42.3435C86.2073 42.6485 93.3737 37.0954 93.3737 28.7605C93.3737 18.2642 78.7237 17.649 78.7237 13.0215V13.0215ZM130.458 42.0334L122.045 1.90482H113.007C111.136 1.90482 109.266 3.14061 108.642 4.99163L93.0619 42.0334H103.97L106.147 36.1701H119.55L120.797 42.0334H130.458ZM114.566 12.711L117.679 27.8348H108.954L114.566 12.711Z" fill="#172B85"/>
</svg>
