<svg width="50" height="50" viewBox="0 0 50 50" fill="none" xmlns="http://www.w3.org/2000/svg">
<path d="M49.1114 5.38803C48.4636 4.42179 47.5564 3.8316 46.5567 3.72626L11.3461 0.0168165C10.3463 -0.0885304 9.37428 0.303655 8.60837 1.12092C7.84558 1.93499 7.37849 3.07385 7.29235 4.32901L6.58396 12.7144H3.75536C1.68466 12.7144 0 14.8399 0 17.4525V45.2619C0 47.8745 1.68466 50 3.75536 50H39.0885C41.1593 50 42.844 47.8745 42.844 45.2619V40.7507L44.0978 40.8828C44.2035 40.8938 44.3087 40.8994 44.413 40.8994C46.3435 40.8994 47.9892 39.0254 48.1526 36.5553L49.9867 8.84242C50.0701 7.58109 49.7593 6.35438 49.1114 5.38803ZM3.75536 15.1786H39.0885C40.0823 15.1786 40.8909 16.1987 40.8909 17.4525V19.9865H1.95312V17.4525C1.95312 16.1987 2.76161 15.1786 3.75536 15.1786ZM1.95312 22.4508H40.8909V27.5627H1.95312V22.4508ZM39.0885 47.5357H3.75536C2.76161 47.5357 1.95312 46.5157 1.95312 45.2619V30.027H40.8909V45.2619C40.8909 46.5157 40.0823 47.5357 39.0885 47.5357ZM48.0403 8.63727L46.2063 36.3501C46.1236 37.5996 45.2504 38.5317 44.2603 38.427L42.844 38.2778V17.4525C42.844 14.8399 41.1593 12.7144 39.0885 12.7144H8.54821L9.23561 4.57741C9.23639 4.56805 9.23707 4.5588 9.23766 4.54932C9.32037 3.29982 10.193 2.36784 11.1836 2.47257L46.3943 6.18201C46.874 6.23253 47.3095 6.51579 47.6203 6.97956C47.9312 7.44334 48.0804 8.03192 48.0403 8.63727Z" fill="black"/>
<path d="M36.8039 33.6903H27.4053C26.8659 33.6903 26.4287 34.2419 26.4287 34.9225V42.6589C26.4287 43.3394 26.8659 43.891 27.4053 43.891H36.8039C37.3433 43.891 37.7805 43.3394 37.7805 42.6589V34.9225C37.7805 34.2419 37.3433 33.6903 36.8039 33.6903ZM35.8273 41.4268H28.3818V36.1546H35.8273V41.4268Z" fill="black"/>
</svg>
