<svg width="50" height="50" viewBox="0 0 50 50" fill="none" xmlns="http://www.w3.org/2000/svg">
<g clip-path="url(#clip0_3_52)">
<path d="M49.1114 9.45594C48.4636 8.69012 47.5564 8.22235 46.5567 8.13886L11.3461 5.19883C10.3463 5.11533 9.37428 5.42617 8.60837 6.07392C7.84558 6.71914 7.37849 7.62177 7.29235 8.61659L6.58396 15.2627H3.75536C1.68466 15.2627 0 16.9473 0 19.018V41.0591C0 43.1298 1.68466 44.8145 3.75536 44.8145H39.0885C41.1593 44.8145 42.844 43.1298 42.844 41.0591V37.4837L44.0978 37.5884C44.2035 37.5971 44.3087 37.6015 44.413 37.6015C46.3435 37.6015 47.9892 36.1163 48.1526 34.1585L49.9867 12.1938C50.0701 11.1941 49.7593 10.2219 49.1114 9.45594ZM3.75536 17.2158H39.0885C40.0823 17.2158 40.8909 18.0243 40.8909 19.018V21.0264H1.95312V19.018C1.95312 18.0243 2.76161 17.2158 3.75536 17.2158ZM1.95312 22.9795H40.8909V27.0312H1.95312V22.9795ZM39.0885 42.8614H3.75536C2.76161 42.8614 1.95312 42.0529 1.95312 41.0591V28.9843H40.8909V41.0591C40.8909 42.0529 40.0823 42.8614 39.0885 42.8614ZM48.0403 12.0312L46.2063 33.9959C46.1236 34.9862 45.2504 35.725 44.2603 35.642L42.844 35.5237V19.018C42.844 16.9473 41.1593 15.2627 39.0885 15.2627H8.54821L9.23561 8.81346C9.23639 8.80604 9.23707 8.79872 9.23766 8.7912C9.32037 7.80087 10.193 7.0622 11.1836 7.14521L46.3943 10.0852C46.874 10.1253 47.3095 10.3498 47.6203 10.7174C47.9312 11.0849 48.0804 11.5514 48.0403 12.0312Z" fill="black"/>
<path d="M36.8039 31.8878H27.4053C26.8659 31.8878 26.4287 32.325 26.4287 32.8643V38.9961C26.4287 39.5354 26.8659 39.9726 27.4053 39.9726H36.8039C37.3433 39.9726 37.7805 39.5354 37.7805 38.9961V32.8643C37.7805 32.325 37.3433 31.8878 36.8039 31.8878ZM35.8273 38.0195H28.3818V33.8409H35.8273V38.0195Z" fill="black"/>
</g>
<defs>
<clipPath id="clip0_3_52">
<rect width="50" height="50" fill="white"/>
</clipPath>
</defs>
</svg>
