<svg width="50" height="50" viewBox="0 0 50 50" fill="none" xmlns="http://www.w3.org/2000/svg">
<path d="M34.8858 5C34.6383 4.99761 34.3928 5.04583 34.1645 5.14169C33.9362 5.23756 33.73 5.37906 33.5583 5.5575L28.7883 10.5575C28.4993 10.8524 28.3375 11.2488 28.3375 11.6617C28.3375 12.0745 28.4993 12.471 28.7883 12.7658L33.5617 17.7658C33.733 17.9447 33.9393 18.0865 34.1676 18.1825C34.3959 18.2785 34.6415 18.3268 34.8892 18.3242C35.3479 18.3341 35.7921 18.1624 36.1249 17.8465C36.4578 17.5307 36.6525 17.0962 36.6667 16.6375V15H37.5C38.8844 15.0232 40.2461 15.355 41.486 15.9713C42.7258 16.5876 43.8124 17.4729 44.6667 18.5625C44.8118 18.7511 44.9982 18.904 45.2115 19.0094C45.4249 19.1149 45.6595 19.1701 45.8975 19.1708C46.1207 19.1701 46.3412 19.1227 46.545 19.0317C46.8728 18.8901 47.1427 18.6414 47.3108 18.3264C47.4788 18.0113 47.535 17.6486 47.47 17.2975C46.3275 10.6858 41.5717 8.33334 37.5 8.33334H36.6667V6.69084C36.6536 6.23085 36.4589 5.79477 36.1252 5.47792C35.7915 5.16107 35.3459 4.98924 34.8858 5ZM29.3858 12.1892L29.9825 11.6058L29.9875 11.6125L29.3858 12.1892ZM37.5 10C41.7958 10 44.87 12.7125 45.7742 17.2758C44.7612 16.0605 43.4972 15.0788 42.0689 14.3983C40.6406 13.7177 39.082 13.3544 37.5 13.3333H35.8333C35.6123 13.3333 35.4004 13.4211 35.2441 13.5774C35.0878 13.7337 35 13.9457 35 14.1667L35.005 16.62C34.995 16.6358 34.8242 16.6908 34.7608 16.62L30.0367 11.6667L34.7633 6.71167C34.7797 6.69631 34.7989 6.68441 34.82 6.67668C34.841 6.66895 34.8634 6.66554 34.8858 6.66667C34.9642 6.66667 35.0033 6.70417 35.0033 6.69084V9.16667C35.0033 9.38768 35.0911 9.59965 35.2474 9.75593C35.4037 9.91221 35.6157 10 35.8367 10H37.5ZM15.1142 45C15.3617 45.0024 15.6072 44.9542 15.8355 44.8583C16.0638 44.7624 16.27 44.621 16.4417 44.4425L21.2117 39.4425C21.5007 39.1476 21.6625 38.7512 21.6625 38.3383C21.6625 37.9255 21.5007 37.529 21.2117 37.2342L16.4383 32.2342C16.267 32.0553 16.0607 31.9135 15.8324 31.8175C15.6041 31.7215 15.3585 31.6733 15.1108 31.6758C14.6521 31.666 14.2079 31.8376 13.8751 32.1535C13.5422 32.4693 13.3475 32.9038 13.3333 33.3625V35H12.5C11.1156 34.9768 9.75388 34.645 8.51405 34.0287C7.27422 33.4124 6.18756 32.5271 5.33333 31.4375C5.11903 31.1589 4.81685 30.961 4.47586 30.8758C4.13488 30.7907 3.77512 30.8233 3.455 30.9683C3.12724 31.11 2.85725 31.3586 2.68922 31.6737C2.52118 31.9887 2.46505 32.3514 2.53 32.7025C3.6725 39.3142 8.42833 41.6667 12.5 41.6667H13.3333V43.3075C13.346 43.7678 13.5405 44.2043 13.8742 44.5215C14.208 44.8387 14.6538 45.0108 15.1142 45ZM20.6142 37.8108L20.0175 38.3942L20.0125 38.3883L20.6142 37.8108ZM12.5 40C8.20417 40 5.13 37.2875 4.22583 32.7242C5.23878 33.9395 6.50281 34.9212 7.93108 35.6017C9.35936 36.2823 10.918 36.6456 12.5 36.6667H14.1667C14.3877 36.6667 14.5996 36.5789 14.7559 36.4226C14.9122 36.2663 15 36.0544 15 35.8333L14.9917 33.3833C15.0017 33.3675 15.1725 33.3125 15.2358 33.3833L19.9633 38.3333L15.2367 43.2883C15.1783 43.3492 15.0175 43.3042 14.9992 43.3042V40.8333C14.9992 40.6123 14.9114 40.4004 14.7551 40.2441C14.5988 40.0878 14.3868 40 14.1658 40H12.5ZM1.66667 26.6667H23.3333C23.7754 26.6667 24.1993 26.4911 24.5118 26.1785C24.8244 25.866 25 25.442 25 25V23.3333C24.9979 22.8181 24.8366 22.3161 24.5383 21.8961C24.2399 21.476 23.8191 21.1584 23.3333 20.9867V12.5C23.7754 12.5 24.1993 12.3244 24.5118 12.0118C24.8244 11.6993 25 11.2754 25 10.8333V9.7375C24.9995 9.48117 24.9401 9.22838 24.8264 8.99865C24.7126 8.76891 24.5477 8.56837 24.3442 8.4125L13.9717 0.500003C13.5484 0.178422 13.0315 0.00431824 12.5 0.00431824C11.9685 0.00431824 11.4516 0.178422 11.0283 0.500003L0.656667 8.41167C0.452947 8.56758 0.287783 8.76823 0.173924 8.99811C0.060066 9.22799 0.000559869 9.48097 0 9.7375L0 10.8333C0 11.2754 0.175595 11.6993 0.488155 12.0118C0.800716 12.3244 1.22464 12.5 1.66667 12.5V20.9867C1.18091 21.1584 0.760076 21.476 0.46174 21.8961C0.163403 22.3161 0.00213581 22.8181 0 23.3333L0 25C0 25.442 0.175595 25.866 0.488155 26.1785C0.800716 26.4911 1.22464 26.6667 1.66667 26.6667ZM21.6667 20.8333H20V12.5H21.6667V20.8333ZM10 12.5V20.8333H6.66667V12.5H10ZM11.6667 12.5H13.3333V20.8333H11.6667V12.5ZM15 12.5H18.3333V20.8333H15V12.5ZM1.66667 9.7375L12.0392 1.82084C12.1715 1.71974 12.3334 1.66497 12.5 1.66497C12.6665 1.66497 12.8285 1.71974 12.9608 1.82084L23.3333 9.7375V10.8333H1.66667V9.7375ZM5 12.5V20.8333H3.33333V12.5H5ZM1.66667 23.3333C1.66667 23.1123 1.75446 22.9004 1.91074 22.7441C2.06702 22.5878 2.27899 22.5 2.5 22.5H22.5C22.721 22.5 22.933 22.5878 23.0893 22.7441C23.2455 22.9004 23.3333 23.1123 23.3333 23.3333V25H1.66667V23.3333ZM49.3442 31.75L38.9717 23.8333C38.5484 23.5118 38.0315 23.3377 37.5 23.3377C36.9685 23.3377 36.4516 23.5118 36.0283 23.8333L25.6567 31.75C25.4536 31.9054 25.2889 32.1052 25.175 32.3342C25.0612 32.5632 25.0013 32.8152 25 33.0708V34.1667C25 34.6087 25.1756 35.0326 25.4882 35.3452C25.8007 35.6577 26.2246 35.8333 26.6667 35.8333V44.32C26.1809 44.4917 25.7601 44.8094 25.4617 45.2294C25.1634 45.6495 25.0021 46.1515 25 46.6667V48.3333C25 48.7754 25.1756 49.1993 25.4882 49.5119C25.8007 49.8244 26.2246 50 26.6667 50H48.3333C48.7754 50 49.1993 49.8244 49.5118 49.5119C49.8244 49.1993 50 48.7754 50 48.3333V46.6667C49.9979 46.1515 49.8366 45.6495 49.5383 45.2294C49.2399 44.8094 48.8191 44.4917 48.3333 44.32V35.8333C48.7754 35.8333 49.1993 35.6577 49.5118 35.3452C49.8244 35.0326 50 34.6087 50 34.1667V33.0708C49.9988 32.8152 49.9391 32.5632 49.8254 32.3343C49.7117 32.1053 49.5471 31.9054 49.3442 31.75ZM30 35.8333V44.1667H28.3333V35.8333H30ZM40 44.1667V35.8333H43.3333V44.1667H40ZM38.3333 44.1667H36.6667V35.8333H38.3333V44.1667ZM35 44.1667H31.6667V35.8333H35V44.1667ZM26.6667 48.3333V46.6667C26.6667 46.4457 26.7545 46.2337 26.9107 46.0774C27.067 45.9211 27.279 45.8333 27.5 45.8333H47.5C47.721 45.8333 47.933 45.9211 48.0893 46.0774C48.2455 46.2337 48.3333 46.4457 48.3333 46.6667V48.3333H26.6667ZM46.6667 44.1667H45V35.8333H46.6667V44.1667ZM26.6667 34.1667V33.0708L37.0392 25.1542C37.1715 25.0531 37.3334 24.9983 37.5 24.9983C37.6665 24.9983 37.8285 25.0531 37.9608 25.1542L48.3333 33.0708V34.1667H26.6667Z" fill="black"/>
</svg>
