<svg width="50" height="50" viewBox="0 0 50 50" fill="none" xmlns="http://www.w3.org/2000/svg">
<path d="M50 17.3469V19.3878H27.3585V14.2857H47.1698C47.9203 14.2864 48.6398 14.6091 49.1704 15.1831C49.701 15.757 49.9994 16.5353 50 17.3469ZM27.3585 20.4082H50V23.4694H27.3585V20.4082ZM27.3585 24.4898H50V32.6531C49.9994 33.4647 49.701 34.243 49.1704 34.8169C48.6398 35.3909 47.9203 35.7136 47.1698 35.7143H27.3585V24.4898Z" fill="black"/>
<path d="M4.71698 0C2.11179 0 0 2.28418 0 5.10204V47.9592C0.00149314 48.4999 0.200759 49.0181 0.554278 49.4005C0.907797 49.7829 1.38684 49.9984 1.88679 50H3.30189C3.30189 49.3234 3.55037 48.6746 3.99267 48.1962C4.43498 47.7177 5.03487 47.449 5.66038 47.449C6.28589 47.449 6.88578 47.7177 7.32808 48.1962C7.77038 48.6746 8.01887 49.3234 8.01887 50H11.3208C11.3208 49.3234 11.5692 48.6746 12.0115 48.1962C12.4538 47.7177 13.0537 47.449 13.6792 47.449C14.3048 47.449 14.9046 47.7177 15.3469 48.1962C15.7893 48.6746 16.0377 49.3234 16.0377 50H19.3396C19.3396 49.3234 19.5881 48.6746 20.0304 48.1962C20.4727 47.7177 21.0726 47.449 21.6981 47.449C22.3236 47.449 22.9235 47.7177 23.3658 48.1962C23.8081 48.6746 24.0566 49.3234 24.0566 50H25.4717C25.9716 49.9984 26.4507 49.7829 26.8042 49.4005C27.1577 49.0181 27.357 48.4999 27.3585 47.9592V5.61224C27.3585 3.06122 28.7736 0 32.0755 0H4.71698ZM26.4151 5.61224V47.9592C26.4148 48.2297 26.3154 48.4891 26.1385 48.6804C25.9616 48.8717 25.7218 48.9793 25.4717 48.9796H24.8627C24.6595 48.2425 24.2417 47.5961 23.6715 47.1364C23.1014 46.6768 22.4092 46.4285 21.6981 46.4285C20.987 46.4285 20.2949 46.6768 19.7247 47.1364C19.1545 47.5961 18.7367 48.2425 18.5335 48.9796H16.8439C16.6406 48.2425 16.2229 47.5961 15.6527 47.1364C15.0825 46.6768 14.3904 46.4285 13.6792 46.4285C12.9681 46.4285 12.276 46.6768 11.7058 47.1364C11.1356 47.5961 10.7179 48.2425 10.5146 48.9796H8.825C8.62177 48.2425 8.20399 47.5961 7.63381 47.1364C7.06362 46.6768 6.3715 46.4285 5.66038 46.4285C4.94926 46.4285 4.25713 46.6768 3.68695 47.1364C3.11677 47.5961 2.69899 48.2425 2.49575 48.9796H1.88679C1.63666 48.9793 1.39685 48.8717 1.21999 48.6804C1.04312 48.4891 0.943646 48.2297 0.943396 47.9592V5.10204C0.944644 4.01994 1.34262 2.98254 2.05003 2.21738C2.75745 1.45222 3.71655 1.02176 4.71698 1.02041H27.8821C26.9152 2.32048 26.3966 3.94387 26.4151 5.61224Z" fill="black"/>
<path d="M25.4717 16.8367H1.8868C1.7617 16.8367 1.64172 16.783 1.55326 16.6873C1.4648 16.5916 1.4151 16.4618 1.4151 16.3265C1.4151 16.1912 1.4648 16.0614 1.55326 15.9658C1.64172 15.8701 1.7617 15.8163 1.8868 15.8163H25.4717C25.5968 15.8163 25.7168 15.8701 25.8052 15.9658C25.8937 16.0614 25.9434 16.1912 25.9434 16.3265C25.9434 16.4618 25.8937 16.5916 25.8052 16.6873C25.7168 16.783 25.5968 16.8367 25.4717 16.8367ZM32.0755 0C34.6807 0 36.7925 2.28418 36.7925 5.10204V14.2857H27.3585V5.10204C27.3585 2.28418 29.4703 0 32.0755 0ZM13.2076 22.9592H3.77359C3.64849 22.9592 3.52851 22.9054 3.44005 22.8097C3.35159 22.7141 3.30189 22.5843 3.30189 22.449C3.30189 22.3137 3.35159 22.1839 3.44005 22.0882C3.52851 21.9925 3.64849 21.9388 3.77359 21.9388H13.2076C13.3327 21.9388 13.4526 21.9925 13.5411 22.0882C13.6296 22.1839 13.6793 22.3137 13.6793 22.449C13.6793 22.5843 13.6296 22.7141 13.5411 22.8097C13.4526 22.9054 13.3327 22.9592 13.2076 22.9592ZM10.3774 27.551H3.77359C3.64849 27.551 3.52851 27.4973 3.44005 27.4016C3.35159 27.3059 3.30189 27.1761 3.30189 27.0408C3.30189 26.9055 3.35159 26.7757 3.44005 26.68C3.52851 26.5844 3.64849 26.5306 3.77359 26.5306H10.3774C10.5025 26.5306 10.6224 26.5844 10.7109 26.68C10.7994 26.7757 10.8491 26.9055 10.8491 27.0408C10.8491 27.1761 10.7994 27.3059 10.7109 27.4016C10.6224 27.4973 10.5025 27.551 10.3774 27.551ZM12.2642 32.1429H3.77359C3.64849 32.1429 3.52851 32.0891 3.44005 31.9934C3.35159 31.8977 3.30189 31.768 3.30189 31.6327C3.30189 31.4973 3.35159 31.3676 3.44005 31.2719C3.52851 31.1762 3.64849 31.1224 3.77359 31.1224H12.2642C12.3893 31.1224 12.5092 31.1762 12.5977 31.2719C12.6862 31.3676 12.7359 31.4973 12.7359 31.6327C12.7359 31.768 12.6862 31.8977 12.5977 31.9934C12.5092 32.0891 12.3893 32.1429 12.2642 32.1429ZM3.30189 6.63265H4.24529V12.7551H3.30189V6.63265ZM10.3774 13.2653C10.2523 13.2653 10.1323 13.2116 10.0438 13.1159C9.95536 13.0202 9.90567 12.8904 9.90567 12.7551V6.63265C9.90567 6.49734 9.95536 6.36757 10.0438 6.27188C10.1323 6.1762 10.2523 6.12245 10.3774 6.12245C10.5025 6.12245 10.6224 6.1762 10.7109 6.27188C10.7994 6.36757 10.8491 6.49734 10.8491 6.63265V12.7551C10.8491 12.8904 10.7994 13.0202 10.7109 13.1159C10.6224 13.2116 10.5025 13.2653 10.3774 13.2653Z" fill="black"/>
<path d="M4.71697 10.2041H3.77358C3.64848 10.2041 3.5285 10.1503 3.44004 10.0546C3.35158 9.95897 3.30188 9.82919 3.30188 9.69388C3.30188 9.55857 3.35158 9.42879 3.44004 9.33311C3.5285 9.23743 3.64848 9.18368 3.77358 9.18368H4.71697C4.96718 9.18368 5.20713 9.07617 5.38406 8.88481C5.56098 8.69344 5.66037 8.4339 5.66037 8.16327C5.66037 7.89264 5.56098 7.63309 5.38406 7.44173C5.20713 7.25037 4.96718 7.14286 4.71697 7.14286H3.77358C3.64848 7.14286 3.5285 7.08911 3.44004 6.99343C3.35158 6.89774 3.30188 6.76797 3.30188 6.63266C3.30188 6.49734 3.35158 6.36757 3.44004 6.27189C3.5285 6.1762 3.64848 6.12245 3.77358 6.12245H4.71697C5.21738 6.12245 5.6973 6.33747 6.05114 6.72019C6.40498 7.10292 6.60377 7.62201 6.60377 8.16327C6.60377 8.70453 6.40498 9.22362 6.05114 9.60634C5.6973 9.98907 5.21738 10.2041 4.71697 10.2041Z" fill="black"/>
<path d="M6.13207 13.2653H3.77358C3.64848 13.2653 3.5285 13.2116 3.44004 13.1159C3.35158 13.0202 3.30188 12.8904 3.30188 12.7551C3.30188 12.6198 3.35158 12.49 3.44004 12.3943C3.5285 12.2987 3.64848 12.2449 3.77358 12.2449H6.13207C6.38227 12.2449 6.62223 12.1374 6.79915 11.946C6.97607 11.7547 7.07546 11.4951 7.07546 11.2245C7.07546 10.9539 6.97607 10.6943 6.79915 10.503C6.62223 10.3116 6.38227 10.2041 6.13207 10.2041H3.77358C3.64848 10.2041 3.5285 10.1503 3.44004 10.0546C3.35158 9.95897 3.30188 9.82919 3.30188 9.69388C3.30188 9.55857 3.35158 9.42879 3.44004 9.33311C3.5285 9.23743 3.64848 9.18368 3.77358 9.18368H6.13207C6.63248 9.18368 7.11239 9.39869 7.46623 9.78142C7.82007 10.1641 8.01886 10.6832 8.01886 11.2245C8.01886 11.7658 7.82007 12.2848 7.46623 12.6676C7.11239 13.0503 6.63248 13.2653 6.13207 13.2653ZM16.9811 13.2653H13.2075C13.0824 13.2653 12.9625 13.2116 12.874 13.1159C12.7855 13.0202 12.7358 12.8904 12.7358 12.7551V6.63266C12.7358 6.49734 12.7855 6.36757 12.874 6.27189C12.9625 6.1762 13.0824 6.12245 13.2075 6.12245C13.3326 6.12245 13.4526 6.1762 13.5411 6.27189C13.6295 6.36757 13.6792 6.49734 13.6792 6.63266V12.2449H16.9811C17.1062 12.2449 17.2262 12.2987 17.3147 12.3943C17.4031 12.49 17.4528 12.6198 17.4528 12.7551C17.4528 12.8904 17.4031 13.0202 17.3147 13.1159C17.2262 13.2116 17.1062 13.2653 16.9811 13.2653ZM23.5849 13.2653H19.8113C19.6862 13.2653 19.5662 13.2116 19.4778 13.1159C19.3893 13.0202 19.3396 12.8904 19.3396 12.7551V6.63266C19.3396 6.49734 19.3893 6.36757 19.4778 6.27189C19.5662 6.1762 19.6862 6.12245 19.8113 6.12245C19.9364 6.12245 20.0564 6.1762 20.1449 6.27189C20.2333 6.36757 20.283 6.49734 20.283 6.63266V12.2449H23.5849C23.71 12.2449 23.83 12.2987 23.9184 12.3943C24.0069 12.49 24.0566 12.6198 24.0566 12.7551C24.0566 12.8904 24.0069 13.0202 23.9184 13.1159C23.83 13.2116 23.71 13.2653 23.5849 13.2653ZM7.78726 42.8571C7.487 42.8572 7.19111 42.7794 6.92438 42.6302C6.65765 42.4811 6.42785 42.265 6.25424 42L4.45848 39.2806C4.32048 39.0814 4.25149 38.8361 4.26356 38.5876C4.27563 38.339 4.36798 38.1029 4.52452 37.9204C4.62132 37.815 4.73823 37.7336 4.86708 37.6821C4.99593 37.6306 5.13363 37.61 5.27057 37.622C5.4075 37.6339 5.54038 37.6781 5.65993 37.7513C5.77947 37.8245 5.88281 37.9251 5.96273 38.0459L7.25943 40.0092C7.40184 40.2247 7.61614 40.3719 7.85705 40.4197C8.09795 40.4675 8.3466 40.4121 8.55046 40.2653L15.5207 35.2388C15.6307 35.1595 15.7548 35.106 15.8851 35.0819C16.0154 35.0578 16.1489 35.0635 16.2769 35.0988C16.405 35.134 16.5248 35.198 16.6286 35.2866C16.7323 35.3751 16.8177 35.4862 16.8792 35.6128C17.0962 36.0969 16.9434 36.6796 16.5236 36.9684L8.83584 42.5112C8.52569 42.7363 8.16074 42.8567 7.78726 42.8571Z" fill="black"/>
</svg>
