<svg width="50" height="50" viewBox="0 0 50 50" fill="none" xmlns="http://www.w3.org/2000/svg">
<path d="M47.2656 19.1406V20.7031H28.5156V16.7969H44.9219C45.5433 16.7974 46.1392 17.0445 46.5786 17.4839C47.018 17.9233 47.2651 18.5192 47.2656 19.1406ZM28.5156 21.4844H47.2656V23.8281H28.5156V21.4844ZM28.5156 24.6094H47.2656V30.8594C47.2651 31.4808 47.018 32.0767 46.5786 32.5161C46.1392 32.9555 45.5433 33.2026 44.9219 33.2031H28.5156V24.6094Z" fill="black"/>
<path d="M9.76562 5.85938C7.6082 5.85938 5.85938 7.6082 5.85938 9.76562V42.5781C5.86061 42.9921 6.02563 43.3889 6.31839 43.6816C6.61114 43.9744 7.00785 44.1394 7.42188 44.1406H8.59375C8.59375 43.6226 8.79953 43.1258 9.16581 42.7596C9.53209 42.3933 10.0289 42.1875 10.5469 42.1875C11.0649 42.1875 11.5617 42.3933 11.9279 42.7596C12.2942 43.1258 12.5 43.6226 12.5 44.1406H15.2344C15.2344 43.6226 15.4402 43.1258 15.8064 42.7596C16.1727 42.3933 16.6695 42.1875 17.1875 42.1875C17.7055 42.1875 18.2023 42.3933 18.5686 42.7596C18.9348 43.1258 19.1406 43.6226 19.1406 44.1406H21.875C21.875 43.6226 22.0808 43.1258 22.4471 42.7596C22.8133 42.3933 23.3101 42.1875 23.8281 42.1875C24.3461 42.1875 24.8429 42.3933 25.2092 42.7596C25.5755 43.1258 25.7813 43.6226 25.7812 44.1406H26.9531C27.3671 44.1394 27.7639 43.9744 28.0566 43.6816C28.3494 43.3889 28.5144 42.9921 28.5156 42.5781V10.1562C28.5156 8.20312 29.6875 5.85938 32.4219 5.85938H9.76562ZM27.7344 10.1562V42.5781C27.7342 42.7853 27.6518 42.9839 27.5053 43.1303C27.3589 43.2768 27.1603 43.3592 26.9531 43.3594H26.4488C26.2805 42.795 25.9346 42.3001 25.4624 41.9482C24.9902 41.5963 24.417 41.4062 23.8281 41.4062C23.2392 41.4062 22.6661 41.5963 22.1939 41.9482C21.7217 42.3001 21.3757 42.795 21.2074 43.3594H19.8082C19.6399 42.795 19.2939 42.3001 18.8217 41.9482C18.3496 41.5963 17.7764 41.4062 17.1875 41.4062C16.5986 41.4062 16.0254 41.5963 15.5533 41.9482C15.0811 42.3001 14.7351 42.795 14.5668 43.3594H13.1676C12.9993 42.795 12.6533 42.3001 12.1811 41.9482C11.7089 41.5963 11.1358 41.4062 10.5469 41.4062C9.95798 41.4062 9.38481 41.5963 8.91263 41.9482C8.44045 42.3001 8.09447 42.795 7.92617 43.3594H7.42188C7.21474 43.3592 7.01614 43.2768 6.86968 43.1303C6.72321 42.9839 6.64083 42.7853 6.64062 42.5781V9.76562C6.64166 8.93714 6.97123 8.14289 7.55706 7.55706C8.14289 6.97123 8.93714 6.64166 9.76562 6.64062H28.9492C28.1485 7.63599 27.719 8.8789 27.7344 10.1562Z" fill="black"/>
<path d="M26.9531 18.75H7.42188C7.31827 18.75 7.21892 18.7088 7.14566 18.6356C7.0724 18.5623 7.03125 18.463 7.03125 18.3594C7.03125 18.2558 7.0724 18.1564 7.14566 18.0832C7.21892 18.0099 7.31827 17.9688 7.42188 17.9688H26.9531C27.0567 17.9688 27.1561 18.0099 27.2293 18.0832C27.3026 18.1564 27.3438 18.2558 27.3438 18.3594C27.3438 18.463 27.3026 18.5623 27.2293 18.6356C27.1561 18.7088 27.0567 18.75 26.9531 18.75ZM32.4219 5.85938C34.5793 5.85938 36.3281 7.6082 36.3281 9.76562V16.7969H28.5156V9.76562C28.5156 7.6082 30.2645 5.85938 32.4219 5.85938ZM16.7969 23.4375H8.98438C8.88077 23.4375 8.78142 23.3963 8.70816 23.3231C8.6349 23.2498 8.59375 23.1505 8.59375 23.0469C8.59375 22.9433 8.6349 22.8439 8.70816 22.7707C8.78142 22.6974 8.88077 22.6562 8.98438 22.6562H16.7969C16.9005 22.6562 16.9998 22.6974 17.0731 22.7707C17.1463 22.8439 17.1875 22.9433 17.1875 23.0469C17.1875 23.1505 17.1463 23.2498 17.0731 23.3231C16.9998 23.3963 16.9005 23.4375 16.7969 23.4375ZM14.4531 26.9531H8.98438C8.88077 26.9531 8.78142 26.912 8.70816 26.8387C8.6349 26.7655 8.59375 26.6661 8.59375 26.5625C8.59375 26.4589 8.6349 26.3595 8.70816 26.2863C8.78142 26.213 8.88077 26.1719 8.98438 26.1719H14.4531C14.5567 26.1719 14.6561 26.213 14.7293 26.2863C14.8026 26.3595 14.8438 26.4589 14.8438 26.5625C14.8438 26.6661 14.8026 26.7655 14.7293 26.8387C14.6561 26.912 14.5567 26.9531 14.4531 26.9531ZM16.0156 30.4688H8.98438C8.88077 30.4688 8.78142 30.4276 8.70816 30.3543C8.6349 30.2811 8.59375 30.1817 8.59375 30.0781C8.59375 29.9745 8.6349 29.8752 8.70816 29.8019C8.78142 29.7287 8.88077 29.6875 8.98438 29.6875H16.0156C16.1192 29.6875 16.2186 29.7287 16.2918 29.8019C16.3651 29.8752 16.4062 29.9745 16.4062 30.0781C16.4062 30.1817 16.3651 30.2811 16.2918 30.3543C16.2186 30.4276 16.1192 30.4688 16.0156 30.4688ZM8.59375 10.9375H9.375V15.625H8.59375V10.9375ZM14.4531 16.0156C14.3495 16.0156 14.2502 15.9745 14.1769 15.9012C14.1037 15.828 14.0625 15.7286 14.0625 15.625V10.9375C14.0625 10.8339 14.1037 10.7345 14.1769 10.6613C14.2502 10.588 14.3495 10.5469 14.4531 10.5469C14.5567 10.5469 14.6561 10.588 14.7293 10.6613C14.8026 10.7345 14.8438 10.8339 14.8438 10.9375V15.625C14.8438 15.7286 14.8026 15.828 14.7293 15.9012C14.6561 15.9745 14.5567 16.0156 14.4531 16.0156Z" fill="black"/>
<path d="M9.76562 13.6719H8.98438C8.88077 13.6719 8.78142 13.6307 8.70816 13.5575C8.6349 13.4842 8.59375 13.3849 8.59375 13.2812C8.59375 13.1776 8.6349 13.0783 8.70816 13.005C8.78142 12.9318 8.88077 12.8906 8.98438 12.8906H9.76562C9.97283 12.8906 10.1715 12.8083 10.3181 12.6618C10.4646 12.5153 10.5469 12.3166 10.5469 12.1094C10.5469 11.9022 10.4646 11.7035 10.3181 11.5569C10.1715 11.4104 9.97283 11.3281 9.76562 11.3281H8.98438C8.88077 11.3281 8.78142 11.287 8.70816 11.2137C8.6349 11.1405 8.59375 11.0411 8.59375 10.9375C8.59375 10.8339 8.6349 10.7345 8.70816 10.6613C8.78142 10.588 8.88077 10.5469 8.98438 10.5469H9.76562C10.18 10.5469 10.5775 10.7115 10.8705 11.0045C11.1635 11.2975 11.3281 11.695 11.3281 12.1094C11.3281 12.5238 11.1635 12.9212 10.8705 13.2142C10.5775 13.5073 10.18 13.6719 9.76562 13.6719Z" fill="black"/>
<path d="M10.9375 16.0156H8.98438C8.88077 16.0156 8.78142 15.9745 8.70816 15.9012C8.6349 15.828 8.59375 15.7286 8.59375 15.625C8.59375 15.5214 8.6349 15.422 8.70816 15.3488C8.78142 15.2755 8.88077 15.2344 8.98438 15.2344H10.9375C11.1447 15.2344 11.3434 15.1521 11.4899 15.0056C11.6364 14.859 11.7188 14.6603 11.7188 14.4531C11.7188 14.2459 11.6364 14.0472 11.4899 13.9007C11.3434 13.7542 11.1447 13.6719 10.9375 13.6719H8.98438C8.88077 13.6719 8.78142 13.6307 8.70816 13.5575C8.6349 13.4842 8.59375 13.3849 8.59375 13.2812C8.59375 13.1776 8.6349 13.0783 8.70816 13.005C8.78142 12.9318 8.88077 12.8906 8.98438 12.8906H10.9375C11.3519 12.8906 11.7493 13.0552 12.0424 13.3483C12.3354 13.6413 12.5 14.0387 12.5 14.4531C12.5 14.8675 12.3354 15.265 12.0424 15.558C11.7493 15.851 11.3519 16.0156 10.9375 16.0156ZM19.9219 16.0156H16.7969C16.6933 16.0156 16.5939 15.9745 16.5207 15.9012C16.4474 15.828 16.4062 15.7286 16.4062 15.625V10.9375C16.4062 10.8339 16.4474 10.7345 16.5207 10.6613C16.5939 10.588 16.6933 10.5469 16.7969 10.5469C16.9005 10.5469 16.9998 10.588 17.0731 10.6613C17.1463 10.7345 17.1875 10.8339 17.1875 10.9375V15.2344H19.9219C20.0255 15.2344 20.1248 15.2755 20.1981 15.3488C20.2713 15.422 20.3125 15.5214 20.3125 15.625C20.3125 15.7286 20.2713 15.828 20.1981 15.9012C20.1248 15.9745 20.0255 16.0156 19.9219 16.0156ZM25.3906 16.0156H22.2656C22.162 16.0156 22.0627 15.9745 21.9894 15.9012C21.9162 15.828 21.875 15.7286 21.875 15.625V10.9375C21.875 10.8339 21.9162 10.7345 21.9894 10.6613C22.0627 10.588 22.162 10.5469 22.2656 10.5469C22.3692 10.5469 22.4686 10.588 22.5418 10.6613C22.6151 10.7345 22.6562 10.8339 22.6562 10.9375V15.2344H25.3906C25.4942 15.2344 25.5936 15.2755 25.6668 15.3488C25.7401 15.422 25.7812 15.5214 25.7812 15.625C25.7812 15.7286 25.7401 15.828 25.6668 15.9012C25.5936 15.9745 25.4942 16.0156 25.3906 16.0156ZM12.3082 38.6719C12.0596 38.6719 11.8145 38.6123 11.5936 38.4981C11.3727 38.384 11.1824 38.2185 11.0387 38.0156L9.55156 35.9336C9.43727 35.7811 9.38015 35.5933 9.39014 35.403C9.40013 35.2127 9.47662 35.0319 9.60625 34.8922C9.68641 34.8115 9.78322 34.7492 9.88993 34.7097C9.99664 34.6703 10.1107 34.6546 10.2241 34.6637C10.3375 34.6729 10.4475 34.7066 10.5465 34.7627C10.6455 34.8188 10.7311 34.8957 10.7973 34.9883L11.8711 36.4914C11.989 36.6564 12.1665 36.7691 12.366 36.8057C12.5655 36.8423 12.7714 36.7999 12.9402 36.6875L18.7125 32.8391C18.8035 32.7783 18.9063 32.7374 19.0142 32.7189C19.1221 32.7005 19.2327 32.7049 19.3387 32.7319C19.4448 32.7589 19.544 32.8079 19.6299 32.8756C19.7158 32.9434 19.7866 33.0285 19.8375 33.1254C20.0172 33.4961 19.8906 33.9422 19.543 34.1633L13.1766 38.407C12.9197 38.5794 12.6175 38.6715 12.3082 38.6719Z" fill="black"/>
</svg>
