<svg width="49" height="45" viewBox="0 0 49 45" fill="none" xmlns="http://www.w3.org/2000/svg">
<path d="M14.1869 1.25049C6.36576 1.25049 0 7.61662 0 15.4373C0 23.2584 6.36613 29.6246 14.1869 29.6246C22.0079 29.6246 28.3748 23.2581 28.3748 15.4373C28.3748 7.61625 22.0079 1.25049 14.1869 1.25049ZM14.1869 3.72305C20.6711 3.72305 25.9011 8.9531 25.9011 15.4373C25.9011 21.9216 20.6711 27.1516 14.1869 27.1516C7.70261 27.1516 2.47256 21.9216 2.47256 15.4373C2.47256 8.9531 7.70261 3.72305 14.1869 3.72305Z" fill="black"/>
<path d="M33.2996 12.8256C32.3577 12.8865 31.4091 13.036 30.465 13.2796C30.1475 13.3618 29.8757 13.5666 29.7093 13.8492C29.5429 14.1317 29.4956 14.4688 29.5777 14.7863C29.6183 14.9435 29.6895 15.0911 29.7872 15.2208C29.8849 15.3505 30.0072 15.4597 30.1471 15.5421C30.287 15.6246 30.4418 15.6786 30.6026 15.7013C30.7634 15.7239 30.9271 15.7146 31.0843 15.6739C37.4239 14.0352 43.9457 17.4703 45.9245 23.4138C47.9035 29.3573 44.6998 35.719 38.55 37.9144C32.4001 40.1105 25.5645 37.2692 23.0178 31.5232C22.952 31.3747 22.8575 31.2405 22.7399 31.1285C22.6222 31.0165 22.4837 30.9288 22.3321 30.8703C22.1805 30.8119 22.0189 30.7839 21.8565 30.7879C21.6941 30.792 21.5341 30.828 21.3856 30.8939C21.0859 31.0268 20.8511 31.2733 20.7331 31.5792C20.6151 31.8852 20.6235 32.2255 20.7563 32.5253C23.8431 39.4893 32.0487 42.8617 39.3819 40.2438C46.7147 37.6258 50.6728 29.8471 48.2711 22.6332C46.1695 16.3213 39.8942 12.3997 33.2996 12.8256Z" fill="black"/>
<path d="M36.9426 18.5985C36.6361 18.6004 36.337 18.6147 36.0453 18.6406C33.7123 18.8481 31.862 19.8029 30.6152 21.204C29.8693 22.04 29.3096 23.0251 28.9733 24.0938L27.3842 24.0875C26.7409 24.0846 26.2171 24.6041 26.2148 25.2474C26.2123 25.8905 26.7316 26.4139 27.3746 26.4161L28.5858 26.421C28.574 26.8115 28.5871 27.2049 28.6245 27.5985L27.3651 27.593C26.7223 27.59 26.1988 28.1086 26.1958 28.7513C26.1928 29.3943 26.712 29.918 27.355 29.9207L29.1324 29.9287C29.704 31.5754 30.7195 33.0904 32.1795 34.0756C34.2427 35.4677 37.1531 35.8105 40.4566 34.4942C41.0542 34.2564 41.3456 33.579 41.1073 32.9816C40.8693 32.3846 40.1925 32.0935 39.5955 32.3314C36.8289 33.4336 34.8838 33.0913 33.4819 32.1453C32.6622 31.5923 32.0164 30.8343 31.5761 29.9396L36.1634 29.9601C36.8064 29.963 37.3301 29.4439 37.3328 28.801C37.3353 28.1581 36.8162 27.635 36.1735 27.6323L30.9394 27.609C30.9054 27.2169 30.9026 26.8227 30.931 26.4301L37.0118 26.4541C37.6549 26.457 38.1783 25.9379 38.1809 25.295C38.1836 24.6518 37.6641 24.1286 37.0211 24.1262L31.4983 24.1042C31.7211 23.6036 32.0061 23.1437 32.3547 22.752C33.4954 21.47 35.3066 20.6428 38.2509 21.0045C38.8893 21.0831 39.4704 20.629 39.5485 19.9906C39.6266 19.3525 39.1727 18.7718 38.5345 18.6936C37.9842 18.626 37.4533 18.5951 36.9426 18.5985Z" fill="black"/>
<path d="M17.278 44.6707C19.8336 44.6603 22.4102 43.6752 24.2417 41.8814C24.7905 41.2193 24.3166 40.0939 23.4588 40.0252C22.6273 39.9071 22.1663 40.7826 21.5 41.0978C19.0434 42.6997 15.7001 42.7532 13.2047 41.2049C11.2854 40.081 9.93819 38.0801 9.53293 35.9025C10.3276 35.8796 11.1333 35.9623 11.9195 35.8508C12.5584 35.6006 12.0682 34.9882 11.7209 34.7195C10.669 33.675 9.64808 32.5958 8.57476 31.5756C8.12963 31.3309 7.86462 31.9048 7.56123 32.1351C6.56246 33.1335 5.54487 34.1198 4.55865 35.1263C4.23754 35.7297 5.00452 35.9936 5.47733 35.8936L7.17257 35.8973C7.65018 39.5015 10.2098 42.7329 13.6251 43.9937C14.7908 44.4419 16.0291 44.6713 17.278 44.6707ZM32.5909 2.08188e-06C30.0357 0.00996761 27.4591 0.995078 25.6276 2.78924C25.0784 3.4514 25.5527 4.57639 26.4101 4.64504C27.242 4.76315 27.703 3.88803 28.3689 3.57246C30.8256 1.97059 34.1692 1.91707 36.6643 3.46542C38.5835 4.58968 39.9307 6.59017 40.336 8.76819C39.5413 8.79107 38.7356 8.70803 37.9498 8.81986C37.3105 9.07011 37.8011 9.68206 38.148 9.95113C39.2003 10.9953 40.2208 12.0745 41.2942 13.0951C41.7393 13.3398 42.0043 12.7658 42.3077 12.5355C43.3065 11.5368 44.3241 10.5505 45.3103 9.54402C45.6314 8.94092 44.8648 8.67665 44.3916 8.77705L42.6964 8.77336C42.2187 5.16916 39.6595 1.93737 36.2439 0.676551C35.0781 0.228549 33.8398 -0.000797184 32.5909 2.08188e-06Z" fill="black"/>
<path d="M14.1868 5.92728C13.8589 5.92728 13.5444 6.05755 13.3125 6.28943C13.0806 6.52131 12.9504 6.83581 12.9504 7.16374V7.73768C11.6364 8.14701 10.5217 9.19966 10.1279 10.5373C9.70196 11.8859 9.98321 13.4845 10.9536 14.532C12.4115 15.6514 13.8779 16.7605 15.3358 17.88C16.2427 18.5946 16.1378 20.1525 15.1417 20.7368C14.2123 21.3735 12.8012 20.859 12.4883 19.7794C12.2037 18.9939 11.0802 18.7518 10.4963 19.3479C10.0113 19.7779 10.022 20.5216 10.3383 21.0476C10.8292 22.1408 11.8202 22.9513 12.9507 23.3027V23.7109C12.9507 24.0389 13.081 24.3534 13.3129 24.5853C13.5448 24.8171 13.8593 24.9474 14.1872 24.9474C14.5151 24.9473 14.8295 24.817 15.0613 24.5851C15.2931 24.3533 15.4233 24.0388 15.4233 23.7109V23.3094C17.1532 22.7997 18.4524 21.0955 18.4388 19.2796C18.4705 17.8283 17.681 16.4287 16.4759 15.637L12.7208 12.7717C12.0239 11.8564 12.5665 10.397 13.6646 10.108C14.5836 9.79722 15.6126 10.3889 15.9094 11.2902C16.2988 12.0295 17.4448 12.1162 17.942 11.446C18.3472 10.975 18.252 10.2833 17.932 9.79501C17.4109 8.80842 16.483 8.06617 15.4233 7.74026V7.16374C15.4233 6.83581 15.293 6.52131 15.0611 6.28943C14.8293 6.05755 14.5148 5.92728 14.1868 5.92728Z" fill="black"/>
</svg>
