<svg width="50" height="50" viewBox="0 0 50 50" fill="none" xmlns="http://www.w3.org/2000/svg">
<path d="M14.7003 3.91313C6.87917 3.91313 0.513412 10.2793 0.513412 18.1C0.513412 25.9211 6.87954 32.2872 14.7003 32.2872C22.5214 32.2872 28.8882 25.9207 28.8882 18.1C28.8882 10.2789 22.5214 3.91313 14.7003 3.91313ZM14.7003 6.38569C21.1845 6.38569 26.4146 11.6157 26.4146 18.1C26.4146 24.5842 21.1845 29.8143 14.7003 29.8143C8.21603 29.8143 2.98597 24.5842 2.98597 18.1C2.98597 11.6157 8.21603 6.38569 14.7003 6.38569Z" fill="black"/>
<path d="M33.813 15.4883C32.8711 15.5492 31.9225 15.6987 30.9784 15.9423C30.6609 16.0244 30.3891 16.2293 30.2227 16.5118C30.0563 16.7944 30.009 17.1314 30.0911 17.4489C30.1317 17.6061 30.2029 17.7538 30.3006 17.8835C30.3984 18.0132 30.5207 18.1224 30.6606 18.2048C30.8005 18.2872 30.9552 18.3413 31.116 18.3639C31.2768 18.3865 31.4405 18.3772 31.5977 18.3366C37.9373 16.6978 44.4592 20.1329 46.4379 26.0765C48.417 32.02 45.2132 38.3817 39.0634 40.577C32.9135 42.7732 26.0779 39.9319 23.5312 34.1858C23.4654 34.0373 23.371 33.9032 23.2533 33.7912C23.1357 33.6791 22.9971 33.5914 22.8455 33.533C22.694 33.4745 22.5323 33.4465 22.3699 33.4506C22.2075 33.4546 22.0475 33.4906 21.8991 33.5565C21.5993 33.6894 21.3646 33.9359 21.2466 34.2419C21.1285 34.5478 21.1369 34.8881 21.2698 35.1879C24.3565 42.152 32.5622 45.5244 39.8953 42.9064C47.2281 40.2884 51.1863 32.5098 48.7846 25.2958C46.683 18.984 40.4076 15.0623 33.813 15.4883Z" fill="black"/>
<path d="M37.456 21.2611C37.1495 21.2631 36.8504 21.2773 36.5587 21.3032C34.2258 21.5107 32.3754 22.4656 31.1286 23.8666C30.3827 24.7027 29.8231 25.6877 29.4868 26.7564L27.8976 26.7502C27.2543 26.7473 26.7306 27.2668 26.7282 27.91C26.7257 28.5531 27.245 29.0765 27.8881 29.0788L29.0992 29.0836C29.0875 29.4742 29.1006 29.8675 29.138 30.2612L27.8785 30.2556C27.2357 30.2527 26.7122 30.7712 26.7092 31.414C26.7063 32.0569 27.2254 32.5807 27.8684 32.5833L29.6459 32.5913C30.2174 34.2381 31.2329 35.7531 32.693 36.7382C34.7561 38.1303 37.6665 38.4732 40.97 37.1569C41.5676 36.9191 41.859 36.2416 41.6208 35.6442C41.3827 35.0472 40.7059 34.7561 40.1089 34.994C37.3423 36.0962 35.3972 35.754 33.9953 34.808C33.1756 34.255 32.5298 33.497 32.0896 32.6022L36.6768 32.6228C37.3199 32.6257 37.8435 32.1065 37.8462 31.4636C37.8488 30.8207 37.3296 30.2976 36.687 30.295L31.4529 30.2716C31.4189 29.8795 31.416 29.4853 31.4445 29.0927L37.5252 29.1168C38.1683 29.1197 38.6917 28.6005 38.6943 27.9576C38.697 27.3144 38.1776 26.7912 37.5345 26.7889L32.0117 26.7668C32.2345 26.2662 32.5195 25.8064 32.8682 25.4147C34.0089 24.1326 35.82 23.3054 38.7644 23.6671C39.4027 23.7457 39.9838 23.2916 40.0619 22.6533C40.14 22.0151 39.6861 21.4344 39.048 21.3562C38.4977 21.2886 37.9667 21.2578 37.456 21.2611Z" fill="black"/>
<path d="M17.7914 47.3333C20.347 47.323 22.9237 46.3379 24.7551 44.5441C25.304 43.8819 24.83 42.7565 23.9723 42.6879C23.1407 42.5698 22.6797 43.4453 22.0135 43.7605C19.5568 45.3623 16.2136 45.4159 13.7181 43.8675C11.7988 42.7436 10.4516 40.7428 10.0464 38.5651C10.841 38.5422 11.6468 38.6249 12.4329 38.5134C13.0718 38.2632 12.5817 37.6509 12.2344 37.3822C11.1824 36.3376 10.1615 35.2584 9.0882 34.2382C8.64307 33.9935 8.37807 34.5675 8.07467 34.7978C7.0759 35.7962 6.05831 36.7824 5.07209 37.7889C4.75098 38.3924 5.51796 38.6563 5.99077 38.5563L7.68601 38.5599C8.16362 42.1641 10.7233 45.3956 14.1385 46.6564C15.3042 47.1045 16.5425 47.334 17.7914 47.3333ZM33.1044 2.66264C30.5492 2.67261 27.9725 3.65772 26.1411 5.45188C25.5919 6.11404 26.0661 7.23903 26.9235 7.30768C27.7555 7.42579 28.2165 6.55067 28.8823 6.2351C31.339 4.63323 34.6826 4.57971 37.1777 6.12806C39.097 7.25232 40.4442 9.25281 40.8494 11.4308C40.0548 11.4537 39.2491 11.3707 38.4633 11.4825C37.824 11.7327 38.3145 12.3447 38.6615 12.6138C39.7137 13.6579 40.7343 14.7372 41.8076 15.7577C42.2527 16.0024 42.5177 15.4285 42.8211 15.1982C43.8199 14.1994 44.8375 13.2132 45.8237 12.2067C46.1448 11.6036 45.3782 11.3393 44.905 11.4397L43.2098 11.436C42.7322 7.8318 40.1729 4.60001 36.7573 3.33919C35.5916 2.89119 34.3532 2.66184 33.1044 2.66264Z" fill="black"/>
<path d="M14.7003 8.58992C14.3723 8.58992 14.0578 8.72019 13.826 8.95207C13.5941 9.18395 13.4638 9.49845 13.4638 9.82638V10.4003C12.1498 10.8096 11.0352 11.8623 10.6413 13.1999C10.2154 14.5486 10.4967 16.1471 11.467 17.1946C12.9249 18.3141 14.3913 19.4232 15.8493 20.5426C16.7561 21.2572 16.6513 22.8152 15.6551 23.3994C14.7257 24.0361 13.3147 23.5216 13.0017 22.442C12.7171 21.6566 11.5936 21.4144 11.0097 22.0105C10.5247 22.4405 10.5354 23.1842 10.8517 23.7102C11.3426 24.8035 12.3336 25.614 13.4642 25.9654V26.3736C13.4642 26.7015 13.5944 27.016 13.8263 27.2479C14.0582 27.4798 14.3727 27.61 14.7006 27.61C15.0285 27.6099 15.3429 27.4796 15.5747 27.2478C15.8065 27.0159 15.9367 26.7015 15.9367 26.3736V25.972C17.6667 25.4623 18.9659 23.7582 18.9522 21.9422C18.984 20.491 18.1945 19.0914 16.9894 18.2997L13.2342 15.4344C12.5374 14.519 13.0799 13.0596 14.178 12.7706C15.097 12.4599 16.1261 13.0515 16.4228 13.9528C16.8122 14.6921 17.9583 14.7789 18.4554 14.1086C18.8607 13.6376 18.7655 12.946 18.4455 12.4576C17.9243 11.4711 16.9964 10.7288 15.9367 10.4029V9.82638C15.9367 9.49845 15.8065 9.18395 15.5746 8.95207C15.3427 8.72019 15.0282 8.58992 14.7003 8.58992Z" fill="black"/>
</svg>
