<svg width="80" height="80" viewBox="0 0 80 80" fill="none" xmlns="http://www.w3.org/2000/svg">
<path d="M65.66 56.7336L65.65 56.7175C66.2467 55.4667 66.36 53.9618 65.9633 52.5981C65.589 51.3579 64.8239 50.3477 63.8355 49.7889C62.8471 49.2301 61.7161 49.1681 60.69 49.6165H60.6667L56.7233 51.3958C56.7722 50.4187 56.5758 49.4466 56.16 48.607C55.7442 47.7675 55.1283 47.0997 54.3933 46.6914C53.9004 46.4134 53.3669 46.2557 52.8236 46.2273C52.2802 46.199 51.7376 46.3004 51.2267 46.526H51.2233L43.8767 49.8465C43.9099 48.9308 43.718 48.0238 43.3252 47.2403C42.9324 46.4567 42.3564 45.8318 41.67 45.4447C41.1944 45.1711 40.6785 45.0152 40.1524 44.9861C39.6264 44.957 39.1009 45.0553 38.6067 45.2752L25.16 51.3111C24.6677 51.0896 24.1798 50.8542 23.6967 50.605C21.9785 49.6146 20.1005 49.097 18.1974 49.0893C16.2944 49.0817 14.4136 49.5841 12.69 50.5606C12.55 49.6702 12.1585 48.8665 11.5825 48.2872C11.0066 47.7078 10.2822 47.389 9.53333 47.3853H3.22C2.36681 47.3885 1.54933 47.8002 0.94603 48.5304C0.342733 49.2606 0.00263738 50.2501 0 51.2828V73.6146C0.00176152 74.6476 0.341576 75.6377 0.945062 76.3681C1.54855 77.0986 2.36654 77.5099 3.22 77.512H9.53333C10.2451 77.5096 10.9361 77.2221 11.4987 76.6945C12.0613 76.1668 12.4637 75.4286 12.6433 74.595C15.8876 74.6815 19.1012 75.3757 22.17 76.6526L29.4033 79.2711C31.0167 79.7835 32.68 80.0256 34.3467 79.9974C36.0987 80.0298 37.8459 79.7635 39.5367 79.2066C43.2433 77.8186 49.14 75.0872 51.4733 73.9494L65.9033 66.8444C66.4353 66.5733 66.9114 66.1639 67.2979 65.6451C67.6845 65.1264 67.972 64.511 68.14 63.8427C68.3554 63.0045 68.4215 62.1206 68.3342 61.2492C68.2469 60.3779 68.008 59.5388 67.6333 58.7872C67.1653 57.8738 66.4763 57.1568 65.66 56.7336ZM10.3367 73.6146C10.335 73.8725 10.25 74.1195 10.0999 74.3027C9.94978 74.4859 9.74646 74.5908 9.53333 74.595H3.22C3.00575 74.5939 2.80058 74.4901 2.6494 74.3064C2.49821 74.1226 2.41333 73.8739 2.41333 73.6146V51.2828C2.41333 50.7422 2.77333 50.3064 3.22 50.3064H9.53333C9.97667 50.3145 10.3333 50.7462 10.34 51.2828L10.3367 73.6146ZM54.5167 55.5192C54.5711 55.4985 54.6245 55.4743 54.6767 55.4466L61.5033 52.3601C61.7126 52.265 61.9352 52.2208 62.1586 52.23C62.3819 52.2392 62.6016 52.3016 62.805 52.4136C63.0084 52.5257 63.1916 52.6852 63.344 52.883C63.4964 53.0808 63.6151 53.313 63.6933 53.5664C63.8406 54.0726 63.8159 54.6328 63.6247 55.117C63.4334 55.6011 63.0913 55.9736 62.6733 56.1526L45.3167 63.9798C45.3122 62.5987 44.9327 61.2576 44.2367 60.1631L54.5167 55.5192ZM52.04 49.2776C52.4745 49.0886 52.9527 49.1118 53.3733 49.3421C53.7733 49.5681 54.0833 49.9756 54.23 50.4799C54.3469 50.8932 54.352 51.3408 54.2448 51.7579C54.1375 52.1749 53.9234 52.5399 53.6333 52.7998L41.6533 58.2022L36.7733 56.1688L52.04 49.2776ZM39.4133 48.043C39.5954 47.9601 39.7892 47.9214 39.9837 47.9291C40.1782 47.9369 40.3694 47.9909 40.5466 48.0881C40.7239 48.1853 40.8835 48.3238 41.0165 48.4957C41.1495 48.6677 41.2532 48.8696 41.3217 49.09C41.3902 49.3104 41.4221 49.545 41.4157 49.7803C41.4093 50.0157 41.3647 50.2472 41.2844 50.4617C41.2041 50.6762 41.0896 50.8695 40.9476 51.0304C40.8056 51.1914 40.6388 51.3169 40.4567 51.3998L40.38 51.4402L33.1867 54.6679L28.7633 52.8119L39.4133 48.043ZM65.8733 62.9429L65.8533 62.947C65.7922 63.2101 65.6841 63.4538 65.5366 63.6608C65.3892 63.8679 65.206 64.0332 65 64.1452L50.5733 71.2543C48.2733 72.384 42.4667 75.063 38.83 76.4227C35.9665 77.2945 32.9711 77.3139 30.1 76.4792L22.8667 73.8607C19.6105 72.5141 16.2033 71.778 12.7633 71.6779V53.6189C18.52 51.1456 20.25 52.009 22.78 53.2921C23.4 53.6027 41.2967 61.1193 41.2967 61.1193H41.3367C41.7165 61.2769 42.0549 61.5539 42.3173 61.9218C42.5797 62.2897 42.7566 62.7354 42.83 63.2132C42.9835 64.0046 42.886 64.8368 42.5567 65.5453C42.4441 65.781 42.3012 65.9934 42.1333 66.1747C41.4695 66.6879 40.7076 66.9853 39.9211 67.0383C39.1346 67.0913 38.3501 66.8981 37.6433 66.4773L27.4667 62.4104C27.1666 62.3047 26.8444 62.344 26.5678 62.5201C26.2912 62.6962 26.0818 62.9953 25.9838 63.3545C25.8857 63.7137 25.9067 64.1049 26.0421 64.4458C26.1775 64.7867 26.417 65.0506 26.71 65.1821L36.8867 69.245C37.8933 69.6727 38.95 69.8987 40.0167 69.9188C41.3867 69.9874 42.7233 69.4226 43.76 68.3372C44 68.075 44.2167 67.7805 44.4033 67.4658L62.1 59.5014H62.1467C62.711 59.1282 63.3655 59.0063 63.9964 59.1566C64.6273 59.307 65.1947 59.7202 65.6 60.3244C65.7944 60.7134 65.9192 61.1475 65.9663 61.5986C66.0134 62.0496 65.9817 62.5076 65.8733 62.9429ZM77.7067 2.97201H70.6167C70.0466 2.96814 69.4956 3.22067 69.0706 3.68064C68.6457 4.1406 68.377 4.77521 68.3167 5.46138C66.5625 4.95619 64.8197 4.39518 63.09 3.77894C57.2967 1.81003 50.0933 -0.663203 45.33 0.163899C38.56 1.33394 32.9933 7.79341 26.44 16.1128C23.3478 16.5229 20.5049 18.3585 18.5015 21.2387C16.498 24.1189 15.488 27.8224 15.681 31.5803C15.874 35.3381 17.2553 38.8617 19.5381 41.4193C21.8208 43.977 24.8297 45.3723 27.94 45.3156C30.2506 45.3179 32.5138 44.5213 34.4631 43.0196C36.4124 41.5179 37.9668 39.3735 38.9433 36.8388C40.1005 36.6479 41.2657 36.5375 42.4333 36.508C43.5834 36.5643 44.7298 36.7017 45.8667 36.9195C48.2233 37.3351 50.6033 37.561 52.9867 37.5973C54.51 37.6013 56.0333 37.4763 57.5433 37.2181C60.2754 36.4965 62.9101 35.3136 65.37 33.7039C66.3933 33.1189 67.4433 32.5137 68.37 32.0577C68.4798 32.6806 68.7627 33.239 69.1716 33.6399C69.5804 34.0408 70.0905 34.2599 70.6167 34.2607H77.7067C78.3146 34.2596 78.8974 33.9668 79.3273 33.4465C79.7572 32.9261 79.9991 32.2207 80 31.4848V5.75188C79.9991 5.01564 79.7573 4.30979 79.3275 3.78881C78.8977 3.26783 78.3149 2.97414 77.7067 2.97201ZM27.9267 42.3864C26.6379 42.414 25.3576 42.1304 24.1604 41.5522C22.9633 40.974 21.8733 40.1128 20.9543 39.0189C20.0353 37.925 19.3056 36.6204 18.8078 35.1813C18.3101 33.7422 18.0543 32.1975 18.0554 30.6374C18.0565 29.0772 18.3145 27.533 18.8143 26.095C19.314 24.6569 20.0456 23.3538 20.9662 22.2619C21.8868 21.1699 22.978 20.311 24.1759 19.7353C25.3739 19.1596 26.6546 18.8786 27.9433 18.9088V18.925C29.6218 18.9389 31.2694 19.4732 32.7288 20.4768C34.1883 21.4805 35.4109 22.9201 36.28 24.6582C35.6236 24.8045 34.9738 24.9917 34.3333 25.219C33.0289 25.6291 31.8817 26.5727 31.0864 27.8897C30.2912 29.2067 29.8967 30.8162 29.97 32.4451C29.958 33.5245 30.2574 34.5752 30.8166 35.4162C31.3757 36.2572 32.1596 36.8359 33.0333 37.0526C34.0133 37.2261 35.0033 37.2705 35.99 37.1858C35.1023 38.7876 33.9023 40.1001 32.4959 41.0072C31.0895 41.9142 29.5202 42.3879 27.9267 42.3864ZM68.3 28.5557C66.8933 29.1891 65.5167 29.9153 64.1767 30.7303C61.9559 32.1835 59.5834 33.2678 57.1233 33.954C53.4767 34.4745 49.79 34.3696 46.17 33.6434C44.9214 33.4135 43.6624 33.2761 42.4 33.2318C41.0767 33.2722 39.7567 33.4093 38.4467 33.6353L38.48 34.0145L38.4367 33.6353C36.8 33.9702 35.1367 34.0388 33.4867 33.8451C32.91 33.7281 32.71 32.8041 32.6833 32.2716C32.6593 31.3857 32.8886 30.5169 33.3326 29.8119C33.7765 29.107 34.4079 28.6091 35.12 28.4024C35.9833 28.0877 37.23 27.8173 38.7067 27.4946C43.1167 26.5262 48.6033 25.328 50.6433 21.4466C51.4467 19.8893 51.65 17.9849 51.2 16.2339C51.0555 15.4625 50.7556 14.7464 50.3269 14.1495C49.8983 13.5525 49.3542 13.0932 48.7433 12.8125C45.9833 11.5295 41.2767 13.4742 34.7533 18.578C33.3522 17.4239 31.7691 16.6327 30.1033 16.254C36.1233 8.76979 40.6533 4.2873 45.71 3.41582C51.3828 3.44435 57.0105 4.63807 62.3533 6.94613C64.6833 7.74096 66.72 8.43895 68.3033 8.81417L68.3 28.5557ZM36.8833 20.8253H36.89C41.9967 16.9359 46.04 15.084 47.7733 15.8708C48.1933 16.0725 48.4933 16.5284 48.5633 17.069C48.682 17.4971 48.7232 17.9511 48.6841 18.4001C48.6449 18.8491 48.5265 19.2827 48.3367 19.6714C46.9767 22.2616 42.12 23.3833 38.7667 24.1216C38.2678 22.9228 37.634 21.8134 36.8833 20.8253ZM77.5667 31.3476H70.7067L70.7133 5.89309H77.5667V31.3476Z" fill="black"/>
</svg>
