<svg width="50" height="50" viewBox="0 0 50 50" fill="none" xmlns="http://www.w3.org/2000/svg">
<g clip-path="url(#clip0_3_47)">
<path d="M25 12.8876C26.2962 12.8876 27.3502 11.8332 27.3502 10.5373C27.3502 9.24111 26.2959 8.18672 25 8.18672C23.7041 8.18672 22.6498 9.24111 22.6498 10.5373C22.6498 11.8332 23.7041 12.8876 25 12.8876ZM25 9.65156C25.4883 9.65156 25.8854 10.049 25.8854 10.5373C25.8854 11.0252 25.4883 11.4228 25 11.4228C24.5117 11.4228 24.1147 11.0256 24.1147 10.5373C24.1147 10.049 24.5117 9.65156 25 9.65156Z" fill="black"/>
<path d="M49.2676 45.0939H48.3822V42.5907C48.3822 42.1864 48.0541 41.8583 47.6498 41.8583H45.1465V39.3551C45.1465 39.1608 45.0693 38.9745 44.932 38.8372C44.7946 38.6998 44.6083 38.6227 44.4141 38.6227H43.529V22.5944H44.4141C44.6083 22.5944 44.7946 22.5173 44.932 22.3799C45.0693 22.2426 45.1465 22.0563 45.1465 21.862V19.3588H47.6497C47.844 19.3588 48.0303 19.2816 48.1676 19.1443C48.305 19.0069 48.3821 18.8206 48.3821 18.6264V15.3908C48.3821 15.1966 48.305 15.0103 48.1676 14.8729C48.0303 14.7356 47.844 14.6584 47.6497 14.6584H46.2607L25.417 0.227735C25.2945 0.142948 25.149 0.0975266 25 0.0975266C24.851 0.0975266 24.7055 0.142948 24.583 0.227735L3.73955 14.6584H2.3502C2.15594 14.6584 1.96965 14.7356 1.83229 14.8729C1.69494 15.0103 1.61777 15.1966 1.61777 15.3908V18.6264C1.61777 19.0308 1.9459 19.3588 2.3502 19.3588H4.85352V21.862C4.85352 22.2663 5.18164 22.5944 5.58594 22.5944H6.47139V38.6228H5.58594C5.39169 38.6228 5.20539 38.6999 5.06804 38.8373C4.93068 38.9746 4.85352 39.1609 4.85352 39.3552V41.8583H2.3502C1.9459 41.8583 1.61777 42.1864 1.61777 42.5907V45.0939H0.732422C0.636228 45.0939 0.54097 45.1128 0.452091 45.1496C0.363212 45.1864 0.282455 45.2404 0.214436 45.3084C0.146416 45.3764 0.0924679 45.4572 0.0556739 45.546C0.0188799 45.6349 -3.8442e-05 45.7302 5.86461e-08 45.8264V49.0616C5.86461e-08 49.4663 0.327637 49.794 0.732422 49.794H49.2676C49.6724 49.794 50 49.4663 50 49.0616V45.8263C50 45.632 49.9228 45.4457 49.7855 45.3084C49.6481 45.171 49.4618 45.0938 49.2676 45.0938V45.0939ZM43.6816 41.8583H37.0576V40.0875H43.6816V41.8583ZM38.6749 38.6227V22.5944H42.0639V38.6228L38.6749 38.6227ZM43.6817 21.1296H37.0575V19.3588H43.6816L43.6817 21.1296ZM36.3251 22.5944H37.2101V38.6228H36.3251C36.2289 38.6227 36.1336 38.6416 36.0448 38.6784C35.9559 38.7152 35.8751 38.7692 35.8071 38.8372C35.7391 38.9052 35.6851 38.986 35.6483 39.0748C35.6116 39.1637 35.5926 39.259 35.5927 39.3552V41.8583H29.7771V39.3551C29.7771 39.1608 29.7 38.9745 29.5626 38.8372C29.4253 38.6998 29.239 38.6227 29.0447 38.6227H28.1594V22.5944H29.0447C29.449 22.5944 29.7771 22.2663 29.7771 21.862V19.3588H35.5926V21.862C35.5926 22.0563 35.6697 22.2426 35.8071 22.3799C35.9445 22.5173 36.1307 22.5944 36.325 22.5944H36.3251ZM21.6881 19.3588H28.3123V21.1296H21.6881V19.3588ZM23.3055 22.5944H26.6945V38.6228H23.3055V22.5944ZM28.3123 40.0876V41.8583H21.6881V40.0875L28.3123 40.0876ZM3.08262 16.1231H15.8643C16.0585 16.1231 16.2448 16.046 16.3822 15.9086C16.5195 15.7713 16.5967 15.585 16.5967 15.3907C16.5967 14.9859 16.269 14.6583 15.8643 14.6583H6.31299L25 1.7209L43.6875 14.6584H18.7939C18.5997 14.6584 18.4134 14.7356 18.276 14.8729C18.1387 15.0103 18.0615 15.1966 18.0615 15.3908C18.0615 15.5851 18.1387 15.7714 18.276 15.9087C18.4134 16.0461 18.5997 16.1232 18.7939 16.1232H46.9174V17.8939H3.08262V16.1231ZM6.31836 19.3588H12.943V21.1296H6.31836V19.3588ZM11.3252 22.5944V38.6228H7.93613V22.5944H11.3252ZM6.31836 40.0876H12.943V41.8583H6.31836V40.0876ZM13.6754 38.6228H12.79V22.5944H13.6754C14.0797 22.5944 14.4078 22.2663 14.4078 21.862V19.3588H20.2232V21.862C20.2232 22.0563 20.3004 22.2426 20.4378 22.3799C20.5751 22.5173 20.7614 22.5944 20.9557 22.5944H21.8407V38.6228H20.9558C20.8596 38.6227 20.7643 38.6416 20.6754 38.6784C20.5866 38.7152 20.5058 38.7692 20.4378 38.8372C20.3698 38.9052 20.3158 38.986 20.279 39.0748C20.2422 39.1637 20.2233 39.259 20.2233 39.3552V41.8583H14.4079V39.3551C14.4079 39.1608 14.3307 38.9745 14.1934 38.8372C14.056 38.6998 13.8697 38.6227 13.6755 38.6227L13.6754 38.6228ZM3.08262 43.323H46.9174V45.0938H3.08262V43.323ZM48.5352 48.3296H1.46484V46.5588H48.5352V48.3296Z" fill="black"/>
</g>
<defs>
<clipPath id="clip0_3_47">
<rect width="50" height="50" fill="white"/>
</clipPath>
</defs>
</svg>
