<svg width="50" height="50" viewBox="0 0 50 50" fill="none" xmlns="http://www.w3.org/2000/svg">
<path d="M25 12.8682C26.2962 12.8682 27.3502 11.8073 27.3502 10.5035C27.3502 9.19941 26.2959 8.13858 25 8.13858C23.7041 8.13858 22.6498 9.19941 22.6498 10.5035C22.6498 11.8073 23.7041 12.8682 25 12.8682ZM25 9.61237C25.4883 9.61237 25.8853 10.0123 25.8853 10.5035C25.8853 10.9944 25.4883 11.3944 25 11.3944C24.5117 11.3944 24.1146 10.9948 24.1146 10.5035C24.1146 10.0123 24.5117 9.61237 25 9.61237Z" fill="black"/>
<path d="M49.2676 45.2712H48.3822V42.7527C48.3822 42.3459 48.0541 42.0158 47.6498 42.0158H45.1465V39.4973C45.1465 39.3019 45.0693 39.1144 44.932 38.9762C44.7946 38.838 44.6083 38.7604 44.4141 38.7604H43.529V22.6343H44.4141C44.6083 22.6343 44.7946 22.5567 44.932 22.4185C45.0693 22.2803 45.1465 22.0928 45.1465 21.8974V19.3789H47.6497C47.844 19.3789 48.0303 19.3012 48.1676 19.1631C48.305 19.0249 48.3821 18.8374 48.3821 18.642V15.3867C48.3821 15.1912 48.305 15.0038 48.1676 14.8656C48.0303 14.7274 47.844 14.6498 47.6497 14.6498H46.2607L25.417 0.131004C25.2945 0.0456989 25.149 0 25 0C24.851 0 24.7055 0.0456989 24.583 0.131004L3.73955 14.6498H2.3502C2.15594 14.6498 1.96965 14.7274 1.83229 14.8656C1.69494 15.0038 1.61777 15.1912 1.61777 15.3867V18.642C1.61777 19.0489 1.9459 19.3789 2.3502 19.3789H4.85352V21.8974C4.85352 22.3042 5.18164 22.6343 5.58594 22.6343H6.47139V38.7605H5.58594C5.39169 38.7605 5.20539 38.8381 5.06804 38.9763C4.93068 39.1145 4.85352 39.302 4.85352 39.4974V42.0158H2.3502C1.9459 42.0158 1.61777 42.3459 1.61777 42.7527V45.2712H0.732422C0.636228 45.2712 0.54097 45.2902 0.452091 45.3272C0.363212 45.3642 0.282455 45.4185 0.214436 45.4869C0.146416 45.5554 0.0924679 45.6366 0.0556739 45.7261C0.0188799 45.8155 -3.8442e-05 45.9113 5.86461e-08 46.0081V49.2631C5.86461e-08 49.6703 0.327637 50 0.732422 50H49.2676C49.6724 50 50 49.6703 50 49.2631V46.008C50 45.8126 49.9228 45.6251 49.7855 45.4869C49.6481 45.3487 49.4618 45.2711 49.2676 45.2711V45.2712ZM43.6816 42.0158H37.0576V40.2342H43.6816V42.0158ZM38.6749 38.7604V22.6343H42.0639V38.7605L38.6749 38.7604ZM43.6817 21.1605H37.0575V19.3789H43.6816L43.6817 21.1605ZM36.3251 22.6343H37.2101V38.7605H36.3251C36.2289 38.7605 36.1336 38.7795 36.0448 38.8165C35.9559 38.8535 35.8751 38.9078 35.8071 38.9762C35.7391 39.0447 35.6851 39.1259 35.6483 39.2153C35.6116 39.3048 35.5926 39.4006 35.5927 39.4974V42.0158H29.7771V39.4973C29.7771 39.3019 29.7 39.1144 29.5626 38.9762C29.4253 38.838 29.239 38.7604 29.0447 38.7604H28.1594V22.6343H29.0447C29.449 22.6343 29.7771 22.3042 29.7771 21.8974V19.3789H35.5926V21.8974C35.5926 22.0928 35.6697 22.2803 35.8071 22.4185C35.9445 22.5567 36.1307 22.6343 36.325 22.6343H36.3251ZM21.6881 19.3789H28.3123V21.1605H21.6881V19.3789ZM23.3055 22.6343H26.6945V38.7605H23.3055V22.6343ZM28.3123 40.2343V42.0158H21.6881V40.2342L28.3123 40.2343ZM3.08262 16.1235H15.8643C16.0585 16.1235 16.2448 16.0458 16.3822 15.9077C16.5195 15.7695 16.5967 15.582 16.5967 15.3866C16.5967 14.9793 16.269 14.6497 15.8643 14.6497H6.31299L25 1.63329L43.6875 14.6498H18.7939C18.5997 14.6498 18.4134 14.7274 18.276 14.8656C18.1387 15.0038 18.0615 15.1912 18.0615 15.3867C18.0615 15.5821 18.1387 15.7696 18.276 15.9077C18.4134 16.0459 18.5997 16.1236 18.7939 16.1236H46.9174V17.9051H3.08262V16.1235ZM6.31836 19.3789H12.943V21.1605H6.31836V19.3789ZM11.3252 22.6343V38.7605H7.93613V22.6343H11.3252ZM6.31836 40.2343H12.943V42.0158H6.31836V40.2343ZM13.6754 38.7605H12.79V22.6343H13.6754C14.0797 22.6343 14.4078 22.3042 14.4078 21.8974V19.3789H20.2232V21.8974C20.2232 22.0928 20.3004 22.2803 20.4378 22.4185C20.5751 22.5567 20.7614 22.6343 20.9557 22.6343H21.8407V38.7605H20.9558C20.8596 38.7605 20.7643 38.7795 20.6754 38.8165C20.5866 38.8535 20.5058 38.9078 20.4378 38.9762C20.3698 39.0447 20.3158 39.1259 20.279 39.2153C20.2422 39.3048 20.2233 39.4006 20.2233 39.4974V42.0158H14.4079V39.4973C14.4079 39.3019 14.3307 39.1144 14.1934 38.9762C14.056 38.838 13.8697 38.7604 13.6755 38.7604L13.6754 38.7605ZM3.08262 43.4895H46.9174V45.2711H3.08262V43.4895ZM48.5352 48.5266H1.46484V46.745H48.5352V48.5266Z" fill="black"/>
</svg>
