<svg width="50" height="50" viewBox="0 0 50 50" fill="none" xmlns="http://www.w3.org/2000/svg">
<path d="M30.0403 9.03103H27.5202V6.52272C27.5202 6.30098 27.4317 6.08831 27.2741 5.93151C27.1166 5.77471 26.9029 5.68662 26.6801 5.68662H23.3199C23.0971 5.68662 22.8834 5.77471 22.7259 5.93151C22.5683 6.08831 22.4798 6.30098 22.4798 6.52272V9.03103H19.9597C19.7369 9.03103 19.5232 9.11912 19.3657 9.27592C19.2081 9.43272 19.1196 9.64538 19.1196 9.86713V13.2115C19.1196 13.4333 19.2081 13.6459 19.3657 13.8027C19.5232 13.9595 19.7369 14.0476 19.9597 14.0476H22.4798V16.5559C22.4798 16.7777 22.5683 16.9904 22.7259 17.1472C22.8834 17.304 23.0971 17.392 23.3199 17.392H26.6801C26.9029 17.392 27.1166 17.304 27.2741 17.1472C27.4317 16.9904 27.5202 16.7777 27.5202 16.5559V14.0476H30.0403C30.2631 14.0476 30.4768 13.9595 30.6343 13.8027C30.7919 13.6459 30.8804 13.4333 30.8804 13.2115V9.86713C30.8804 9.64538 30.7919 9.43272 30.6343 9.27592C30.4768 9.11912 30.2631 9.03103 30.0403 9.03103ZM29.2003 12.3754H26.6801C26.4573 12.3754 26.2436 12.4635 26.0861 12.6203C25.9286 12.7771 25.8401 12.9898 25.8401 13.2115V15.7198H24.1599V13.2115C24.1599 12.9898 24.0714 12.7771 23.9139 12.6203C23.7564 12.4635 23.5427 12.3754 23.3199 12.3754H20.7997V10.7032H23.3199C23.5427 10.7032 23.7564 10.6151 23.9139 10.4583C24.0714 10.3015 24.1599 10.0889 24.1599 9.86713V7.35883H25.8401V9.86713C25.8401 10.0889 25.9286 10.3015 26.0861 10.4583C26.2436 10.6151 26.4573 10.7032 26.6801 10.7032H29.2003V12.3754ZM48.2947 13.5125C48.3117 13.3654 48.3201 13.2175 48.3199 13.0694C48.3158 12.303 48.0487 11.561 47.5628 10.9664C47.077 10.3718 46.4016 9.96038 45.6485 9.80024C44.7967 9.63887 43.9152 9.80555 43.1822 10.2666C42.4492 10.7276 41.9195 11.4485 41.7003 12.2835L38.004 22.8685C37.9493 22.8901 37.8959 22.9153 37.8444 22.9438L30.4183 27.2748C29.282 27.9391 28.3395 28.8871 27.6839 30.0249C27.0283 31.1628 26.6823 32.4512 26.6801 33.7629V41.639C26.4573 41.639 26.2436 41.7271 26.0861 41.8839C25.9286 42.0407 25.8401 42.2533 25.8401 42.4751V49.1639C25.8401 49.3856 25.9286 49.5983 26.0861 49.7551C26.2436 49.9119 26.4573 50 26.6801 50H38.4409C38.6637 50 38.8773 49.9119 39.0349 49.7551C39.1924 49.5983 39.2809 49.3856 39.2809 49.1639V42.4751C39.2809 42.2533 39.1924 42.0407 39.0349 41.8839C38.8773 41.7271 38.6637 41.639 38.4409 41.639V39.7996C38.4424 39.4464 38.5179 39.0975 38.6626 38.775C38.8072 38.4525 39.0178 38.1636 39.2809 37.9267L44.9597 32.9017C45.5808 32.3608 46.0255 31.6475 46.2366 30.8533L49.8824 17.2833C49.9602 17 49.9998 16.7076 50 16.4138C49.9967 15.8238 49.8374 15.245 49.538 14.7357C49.2387 14.2264 48.8098 13.8045 48.2947 13.5125ZM43.3048 12.7768C43.4079 12.3444 43.6709 11.9665 44.0415 11.7186C44.4121 11.4707 44.8629 11.3708 45.3041 11.439C45.6806 11.5175 46.0187 11.7222 46.2618 12.019C46.5049 12.3157 46.6383 12.6865 46.6398 13.0694V13.0861C45.8894 13.1 45.1641 13.3574 44.5743 13.8192C43.9844 14.2811 43.5622 14.922 43.372 15.6446L41.0282 22.8434C40.6734 22.6759 40.2929 22.5685 39.9026 22.5257L43.3048 12.7768ZM37.6008 48.3278H27.5202V43.3112H37.6008V48.3278ZM48.2611 16.8486L44.6069 30.4269C44.4804 30.8987 44.2175 31.3232 43.8508 31.6476L38.1636 36.6725C37.7236 37.0675 37.3714 37.5498 37.1298 38.0883C36.8882 38.6269 36.7625 39.2098 36.7608 39.7996V41.639H28.3602V33.7629C28.3644 32.7428 28.6344 31.7412 29.1438 30.8561C29.6533 29.9709 30.3848 29.2324 31.2668 28.7129L38.6845 24.3902C38.8757 24.2793 39.0871 24.2071 39.3065 24.1778C39.5259 24.1484 39.7489 24.1625 39.9628 24.2192C40.1767 24.2759 40.3772 24.3742 40.5529 24.5083C40.7285 24.6423 40.8758 24.8096 40.9862 25.0006C41.2044 25.3869 41.2646 25.8421 41.1542 26.2714C41.0959 26.4835 40.9961 26.6819 40.8606 26.8555C40.7251 27.0291 40.5566 27.1744 40.3646 27.2831L35.5511 30.0506C35.3682 30.1663 35.2374 30.3478 35.1858 30.5573C35.1343 30.7668 35.166 30.9879 35.2744 31.1746C35.3829 31.3613 35.5596 31.4991 35.7677 31.5592C35.9758 31.6193 36.1991 31.597 36.3911 31.4971L41.2046 28.7296C41.5894 28.5123 41.9266 28.2206 42.1964 27.8717C42.4661 27.5228 42.6631 27.1237 42.7755 26.6979C43.0042 25.8424 42.8834 24.9316 42.4395 24.1645L42.3891 24.0892L44.9849 16.1212C45.088 15.6888 45.3511 15.311 45.7216 15.063C46.0922 14.8151 46.543 14.7152 46.9842 14.7834C47.3607 14.8619 47.6988 15.0666 47.9419 15.3634C48.185 15.6601 48.3184 16.0309 48.3199 16.4138C48.3227 16.5609 48.3029 16.7075 48.2611 16.8486ZM23.3199 41.639V33.7629C23.3177 32.4512 22.9717 31.1628 22.3161 30.0249C21.6605 28.8871 20.718 27.9391 19.5817 27.2748L12.1556 22.9354C12.1052 22.9103 12.0464 22.8936 11.996 22.8685L8.32493 12.342C8.11157 11.4948 7.58191 10.7604 6.84374 10.2883C6.10556 9.81606 5.21436 9.64155 4.35148 9.80024C3.59845 9.96038 2.92301 10.3718 2.43715 10.9664C1.95129 11.561 1.68418 12.303 1.68011 13.0694C1.67989 13.2175 1.6883 13.3654 1.70531 13.5125C1.19016 13.8045 0.761343 14.2264 0.461989 14.7357C0.162634 15.245 0.00329636 15.8238 0 16.4138C0.0016316 16.7069 0.0382914 16.9988 0.109207 17.2833L3.76344 30.8449C3.97226 31.6424 4.41714 32.359 5.04032 32.9017L10.7107 37.9267C10.9764 38.162 11.1893 38.4504 11.3355 38.7731C11.4817 39.0958 11.5579 39.4456 11.5591 39.7996V41.639C11.3363 41.639 11.1227 41.7271 10.9651 41.8839C10.8076 42.0407 10.7191 42.2533 10.7191 42.4751V49.1639C10.7191 49.3856 10.8076 49.5983 10.9651 49.7551C11.1227 49.9119 11.3363 50 11.5591 50H23.3199C23.5427 50 23.7564 49.9119 23.9139 49.7551C24.0714 49.5983 24.1599 49.3856 24.1599 49.1639V42.4751C24.1599 42.2533 24.0714 42.0407 23.9139 41.8839C23.7564 41.7271 23.5427 41.639 23.3199 41.639ZM3.36021 13.0694C3.36125 12.6877 3.49348 12.3178 3.73493 12.0212C3.97638 11.7246 4.31252 11.5192 4.6875 11.439C5.14084 11.3735 5.6023 11.481 5.97934 11.74C6.35637 11.9989 6.6211 12.3902 6.72043 12.8353L10.0974 22.5257C9.70707 22.5685 9.32662 22.6759 8.97177 22.8434L6.64483 15.6864C6.45545 14.9567 6.03246 14.3082 5.43983 13.839C4.84721 13.3699 4.11719 13.1056 3.36021 13.0861V13.0694ZM11.828 36.6725L6.14919 31.6476C5.78045 31.3214 5.51732 30.8937 5.39315 30.4185L1.73051 16.8486C1.69574 16.7063 1.67881 16.5602 1.68011 16.4138C1.68114 16.0321 1.81337 15.6622 2.05482 15.3656C2.29627 15.069 2.63241 14.8636 3.00739 14.7834C3.45755 14.7162 3.91659 14.8211 4.29218 15.077C4.66778 15.333 4.93208 15.721 5.03192 16.163L7.61089 24.0892L7.56048 24.1645C7.11659 24.9316 6.99579 25.8424 7.22446 26.6979C7.33694 27.1237 7.53386 27.5228 7.80364 27.8717C8.07343 28.2206 8.41062 28.5123 8.79536 28.7296L13.6089 31.4971C13.8009 31.597 14.0242 31.6193 14.2323 31.5592C14.4404 31.4991 14.6171 31.3613 14.7255 31.1746C14.834 30.9879 14.8657 30.7668 14.8142 30.5573C14.7626 30.3478 14.6318 30.1663 14.4489 30.0506L9.63542 27.2831C9.44344 27.1744 9.27489 27.0291 9.13939 26.8555C9.0039 26.6819 8.90412 26.4835 8.84577 26.2714C8.73541 25.8421 8.79558 25.3869 9.01378 25.0006C9.12354 24.8101 9.26993 24.6429 9.44458 24.5087C9.61924 24.3745 9.81874 24.2759 10.0317 24.2185C10.2447 24.161 10.4669 24.1459 10.6857 24.1739C10.9046 24.2019 11.1157 24.2726 11.3071 24.3819L18.7332 28.7129C19.6152 29.2324 20.3467 29.9709 20.8562 30.8561C21.3656 31.7412 21.6356 32.7428 21.6398 33.7629V41.639H13.2392V39.7996C13.2378 39.2089 13.1114 38.6252 12.8682 38.0864C12.6251 37.5477 12.2706 37.0659 11.828 36.6725ZM22.4798 48.3278H12.3992V43.3112H22.4798V48.3278Z" fill="black"/>
<path d="M36.8843 2.45258C36.1044 1.67504 35.1782 1.05819 34.1585 0.637348C33.1389 0.216503 32.0458 -7.7639e-05 30.942 2.08776e-08C29.8381 7.76807e-05 28.7451 0.216813 27.7255 0.6378C26.7059 1.05879 25.7798 1.67576 25 2.45342C24.2204 1.67575 23.2942 1.05876 22.2747 0.637796C21.2551 0.216829 20.1621 0.000141952 19.0583 0.000141952C17.9545 0.000141952 16.8615 0.216829 15.842 0.637796C14.8224 1.05876 13.8963 1.67575 13.1166 2.45342C11.5443 4.02168 10.6613 6.14667 10.6613 8.36215C10.6613 10.5776 11.5443 12.7026 13.1166 14.2709L24.407 25.5081C24.5645 25.6648 24.7781 25.7529 25.0009 25.7529C25.2236 25.7529 25.4373 25.6648 25.5948 25.5081L36.8851 14.2709C38.4573 12.7024 39.3402 10.5772 39.3401 8.36156C39.3399 6.14595 38.4567 4.02087 36.8843 2.45258ZM25 23.7347L14.3036 13.0886C13.3646 12.1527 12.7254 10.9607 12.4669 9.66325C12.2084 8.36582 12.3421 7.02123 12.8513 5.79946C13.3605 4.57769 14.2221 3.5336 15.3274 2.79917C16.4327 2.06475 17.7319 1.67296 19.0608 1.67334C19.9436 1.67032 20.8182 1.84228 21.6335 2.17919C22.4489 2.5161 23.1886 3.01122 23.8097 3.63567L24.4061 4.2293C24.5636 4.38604 24.7773 4.4741 25 4.4741C25.2228 4.4741 25.4364 4.38604 25.5939 4.2293L26.1921 3.63399C26.8157 3.01215 27.5565 2.51881 28.3719 2.1822C29.1873 1.8456 30.0615 1.67234 30.9442 1.67234C31.827 1.67234 32.7012 1.8456 33.5166 2.1822C34.332 2.51881 35.0728 3.01215 35.6964 3.63399C36.9548 4.88813 37.6616 6.58807 37.6616 8.36048C37.6616 10.1329 36.9548 11.8328 35.6964 13.087L25 23.7347Z" fill="black"/>
</svg>
