<svg width="50" height="50" viewBox="0 0 50 50" fill="none" xmlns="http://www.w3.org/2000/svg">
<path d="M47.4379 18.664C47.2131 18.7098 46.9995 18.7995 46.8094 18.9279C46.6192 19.0563 46.4562 19.2208 46.3297 19.4122C46.2032 19.6036 46.1156 19.818 46.072 20.0432C46.0283 20.2685 46.0295 20.5001 46.0754 20.7248C46.9651 25.0805 46.4852 29.6046 44.7016 33.6767C42.918 37.7489 39.918 41.1696 36.1131 43.4697C32.3082 45.7698 27.8848 46.8367 23.4495 46.524C19.0142 46.2113 14.7843 44.5343 11.34 41.7231C7.89559 38.9118 5.40545 35.104 4.21106 30.8219C3.01668 26.5398 3.17656 21.9931 4.66878 17.8054C6.16099 13.6177 8.91245 9.99418 12.5458 7.43174C16.1791 4.8693 20.5164 3.49347 24.9626 3.49295C27.1542 3.49085 29.3331 3.82462 31.4234 4.48262C31.8622 4.61228 32.3344 4.56459 32.7385 4.34982C33.1425 4.13505 33.4461 3.77034 33.584 3.33411C33.7219 2.89788 33.6831 2.42496 33.476 2.01703C33.2688 1.6091 32.9098 1.29874 32.4762 1.15267C27.2445 -0.486584 21.6189 -0.360891 16.4656 1.5104C11.3124 3.38169 6.9173 6.89481 3.95713 11.5088C0.996965 16.1227 -0.364116 21.5817 0.0834753 27.045C0.531067 32.5083 2.76251 37.6731 6.43419 41.7439C10.1059 45.8147 15.0142 48.5659 20.4033 49.5738C25.7924 50.5817 31.3635 49.7904 36.2586 47.3218C41.1538 44.8532 45.1016 40.8441 47.494 35.912C49.8865 30.9798 50.5911 25.3981 49.4991 20.0263C49.406 19.5726 49.1367 19.1744 48.7503 18.919C48.3639 18.6636 47.8919 18.5719 47.4379 18.664ZM24.9114 38.4225C25.3747 38.4225 25.819 38.2385 26.1466 37.9109C26.4742 37.5834 26.6582 37.1392 26.6582 36.676V35.7445C28.057 35.543 29.3424 34.8618 30.2943 33.8173C31.2462 32.7729 31.8055 31.4301 31.8765 30.0189C31.9474 28.6076 31.5257 27.2156 30.6834 26.0809C29.8411 24.9462 28.6307 24.1395 27.2591 23.7986L23.514 22.8672C22.9422 22.7242 22.4356 22.3918 22.077 21.9241C21.7213 21.4688 21.5301 20.9067 21.5343 20.329C21.5368 19.6374 21.8131 18.975 22.3028 18.4867C22.7926 17.9984 23.4558 17.7239 24.1475 17.7232H25.7778C26.4215 17.7244 27.0422 17.9624 27.5216 18.3919C28.001 18.8214 28.3055 19.4123 28.377 20.0519C28.3961 20.2848 28.4618 20.5116 28.5701 20.7187C28.6785 20.9259 28.8273 21.1091 29.0078 21.2577C29.1883 21.4062 29.3968 21.5171 29.6209 21.5836C29.845 21.6501 30.0802 21.671 30.3125 21.6449C30.5449 21.6189 30.7696 21.5465 30.9735 21.432C31.1773 21.3175 31.3561 21.1633 31.4992 20.9785C31.6423 20.7937 31.7469 20.582 31.8067 20.356C31.8665 20.1301 31.8803 19.8944 31.8473 19.663C31.6976 18.3218 31.1068 17.0682 30.1677 16.0989C29.2286 15.1296 27.9942 14.4994 26.6582 14.3071V13.3896C26.6582 12.9265 26.4742 12.4822 26.1466 12.1547C25.819 11.8272 25.3747 11.6432 24.9114 11.6432C24.4481 11.6432 24.0038 11.8272 23.6762 12.1547C23.3487 12.4822 23.1646 12.9265 23.1646 13.3896V14.3211C21.7791 14.5465 20.5139 15.2429 19.5824 16.2928C18.6509 17.3427 18.1102 18.6817 18.0516 20.084C17.993 21.4862 18.4202 22.8657 19.2609 23.9896C20.1016 25.1135 21.3043 25.9129 22.6662 26.253L26.4113 27.1845C27.0295 27.3401 27.5696 27.7162 27.93 28.2419C28.2904 28.7676 28.4464 29.4069 28.3686 30.0395C28.2908 30.6722 27.9846 31.2546 27.5075 31.6774C27.0304 32.1001 26.4153 32.3342 25.7778 32.3354H24.1475C23.5038 32.3343 22.8831 32.0962 22.4037 31.6667C21.9243 31.2373 21.6198 30.6464 21.5483 30.0068C21.5292 29.7738 21.4635 29.5471 21.3552 29.3399C21.2468 29.1328 21.098 28.9495 20.9175 28.801C20.737 28.6524 20.5285 28.5416 20.3044 28.4751C20.0803 28.4086 19.8451 28.3877 19.6127 28.4137C19.3804 28.4398 19.1557 28.5122 18.9518 28.6266C18.748 28.7411 18.5692 28.8953 18.4261 29.0802C18.283 29.265 18.1784 29.4766 18.1186 29.7026C18.0588 29.9286 18.045 30.1643 18.078 30.3957C18.2247 31.7205 18.8015 32.9608 19.7201 33.9268C20.6388 34.8928 21.8486 35.5312 23.1646 35.7445V36.676C23.1646 37.1392 23.3487 37.5834 23.6762 37.9109C24.0038 38.2385 24.4481 38.4225 24.9114 38.4225ZM42.3606 14.6238C42.6884 14.9503 43.1323 15.1336 43.595 15.1336C44.0577 15.1336 44.5016 14.9503 44.8294 14.6238L49.4875 9.96656C49.7961 9.63548 49.964 9.19759 49.956 8.74514C49.9481 8.29268 49.7647 7.86098 49.4447 7.541C49.1247 7.22101 48.6929 7.03772 48.2403 7.02974C47.7878 7.02176 47.3498 7.18971 47.0187 7.4982L45.3418 9.17249V1.74648C45.3418 1.28328 45.1578 0.839059 44.8302 0.511531C44.5026 0.184003 44.0583 0 43.595 0C43.1317 0 42.6874 0.184003 42.3598 0.511531C42.0323 0.839059 41.8482 1.28328 41.8482 1.74648V9.17249L40.1713 7.4982C39.8402 7.18971 39.4022 7.02176 38.9497 7.02974C38.4971 7.03772 38.0654 7.22101 37.7453 7.541C37.4253 7.86098 37.242 8.29268 37.234 8.74514C37.226 9.19759 37.394 9.63548 37.7025 9.96656L42.3606 14.6238Z" fill="black"/>
</svg>
