<svg width="50" height="50" viewBox="0 0 50 50" fill="none" xmlns="http://www.w3.org/2000/svg">
<g clip-path="url(#clip0_13_2)">
<path d="M22.2013 27.764H5.96357C4.67698 27.764 3.62422 28.8166 3.62422 30.1032V47.661C3.62422 48.9476 4.67698 50.0002 5.96357 50.0002H22.4743C23.0246 50.0002 23.0246 49.4089 23.0246 49.4089V28.5589C23.0244 28.5589 23.0244 27.764 22.2013 27.764ZM44.0366 27.764H27.8154C26.8274 27.764 26.9754 28.7929 26.9754 28.7929V49.428C26.9754 49.428 26.9674 49.9997 27.5617 49.9997H44.0363C45.3228 49.9997 46.3756 48.9471 46.3756 47.6605V30.1032C46.3759 28.8166 45.3232 27.764 44.0366 27.764ZM23.0244 13.9491C23.0244 13.9491 23.0244 13.1565 22.2411 13.1565H3.32188C2.03529 13.1565 0.982536 14.2092 0.982536 15.4956V22.7978C0.982536 24.0844 2.03529 25.1369 3.32188 25.1369H22.3052C23.0244 25.1369 23.0244 24.5132 23.0244 24.5132V13.9491ZM46.6781 13.1565H27.6985C26.9757 13.1565 26.9757 13.8452 26.9757 13.8452V24.5277C26.9757 24.5277 26.9757 25.1369 27.8545 25.1369H46.6781C47.9647 25.1369 49.0175 24.0844 49.0175 22.7978V15.4956C49.0175 14.2092 47.9647 13.1565 46.6781 13.1565ZM15.0678 11.4257C13.9975 11.4257 13.0199 11.3409 12.1627 11.1733C9.98524 10.7479 8.48868 9.91997 7.58744 8.64242C6.77993 7.49746 6.53281 6.08595 6.85271 4.44691C7.41309 1.57923 9.33896 7.62939e-06 12.2752 7.62939e-06C12.8966 7.62939e-06 13.579 0.0717593 14.3036 0.213388C16.147 0.57351 18.5048 1.63053 20.6108 3.04085C24.1839 5.43387 24.3606 6.92157 24.1827 7.83253C23.9211 9.1711 22.6699 10.1276 20.3577 10.7568C18.7955 11.1818 16.8674 11.4257 15.0678 11.4257ZM12.2753 3.74933C11.1382 3.74933 10.7474 4.06701 10.5328 5.16579C10.3573 6.06413 10.5787 6.3779 10.6513 6.48101C10.9553 6.9122 11.7473 7.27181 12.8816 7.4932C13.4936 7.61284 14.2498 7.67607 15.0677 7.67607C16.8662 7.67607 18.4507 7.40355 19.5021 7.10547C19.5787 7.08382 19.6974 6.99332 19.5701 6.91748C18.1956 5.79775 15.6809 4.30255 13.5848 3.893C13.0965 3.7979 12.6557 3.74933 12.2753 3.74933ZM34.9863 11.4257H34.986C33.1864 11.4257 31.2585 11.1818 29.6963 10.7568C27.3839 10.1277 26.1329 9.1711 25.8713 7.8327C25.6936 6.92174 25.87 5.43405 29.4434 3.04102C31.5491 1.6307 33.9068 0.57368 35.7506 0.213558C36.4752 0.0719297 37.1576 0.000178061 37.7785 0.000178061C40.7154 0.000178061 42.6411 1.57957 43.201 4.44725C43.5212 6.08612 43.2743 7.49763 42.4666 8.64259C41.5653 9.92031 40.069 10.7481 37.891 11.1735C37.0341 11.3407 36.0565 11.4257 34.9863 11.4257ZM30.5139 6.8943C30.392 6.96503 30.451 7.07666 30.5142 7.0949C31.5651 7.39708 33.1663 7.67624 34.986 7.67624C35.8042 7.67624 36.5601 7.61301 37.1723 7.49337C38.3064 7.27181 39.0987 6.91237 39.4026 6.48118C39.4755 6.37807 39.6971 6.0643 39.521 5.16596C39.3066 4.06718 38.9156 3.7495 37.7784 3.7495C37.3981 3.7495 36.9577 3.7979 36.4691 3.89334C34.3728 4.30272 31.8884 5.7744 30.5139 6.8943Z" fill="black"/>
</g>
<defs>
<clipPath id="clip0_13_2">
<rect width="50" height="50" fill="white"/>
</clipPath>
</defs>
</svg>
