<svg width="44" height="44" viewBox="0 0 44 44" fill="none" xmlns="http://www.w3.org/2000/svg">
<path d="M1.6875 14.1875C2.1019 14.1875 2.49933 14.0229 2.79235 13.7299C3.08538 13.4368 3.25 13.0394 3.25 12.625V4.8125C3.25 4.3981 3.41462 4.00067 3.70765 3.70765C4.00067 3.41462 4.3981 3.25 4.8125 3.25H13.4062C13.8207 3.25 14.2181 3.08538 14.5111 2.79235C14.8041 2.49933 14.9688 2.1019 14.9688 1.6875C14.9688 1.2731 14.8041 0.875671 14.5111 0.582646C14.2181 0.28962 13.8207 0.125 13.4062 0.125H4.8125C3.5693 0.125 2.37701 0.61886 1.49794 1.49794C0.61886 2.37701 0.125 3.5693 0.125 4.8125V12.625C0.125 13.0394 0.28962 13.4368 0.582646 13.7299C0.875671 14.0229 1.2731 14.1875 1.6875 14.1875ZM39.1875 0.125H30.5938C30.1793 0.125 29.7819 0.28962 29.4889 0.582646C29.1959 0.875671 29.0312 1.2731 29.0312 1.6875C29.0312 2.1019 29.1959 2.49933 29.4889 2.79235C29.7819 3.08538 30.1793 3.25 30.5938 3.25H39.1875C39.6019 3.25 39.9993 3.41462 40.2924 3.70765C40.5854 4.00067 40.75 4.3981 40.75 4.8125V12.625C40.75 13.0394 40.9146 13.4368 41.2076 13.7299C41.5007 14.0229 41.8981 14.1875 42.3125 14.1875C42.7269 14.1875 43.1243 14.0229 43.4174 13.7299C43.7104 13.4368 43.875 13.0394 43.875 12.625V4.8125C43.875 3.5693 43.3811 2.37701 42.5021 1.49794C41.623 0.61886 40.4307 0.125 39.1875 0.125ZM42.3125 29.8125C41.8981 29.8125 41.5007 29.9771 41.2076 30.2701C40.9146 30.5632 40.75 30.9606 40.75 31.375V39.1875C40.75 39.6019 40.5854 39.9993 40.2924 40.2924C39.9993 40.5854 39.6019 40.75 39.1875 40.75H30.5938C30.1793 40.75 29.7819 40.9146 29.4889 41.2076C29.1959 41.5007 29.0312 41.8981 29.0312 42.3125C29.0312 42.7269 29.1959 43.1243 29.4889 43.4174C29.7819 43.7104 30.1793 43.875 30.5938 43.875H39.1875C40.4307 43.875 41.623 43.3811 42.5021 42.5021C43.3811 41.623 43.875 40.4307 43.875 39.1875V31.375C43.875 30.9606 43.7104 30.5632 43.4174 30.2701C43.1243 29.9771 42.7269 29.8125 42.3125 29.8125ZM13.4062 40.75H4.8125C4.3981 40.75 4.00067 40.5854 3.70765 40.2924C3.41462 39.9993 3.25 39.6019 3.25 39.1875V31.375C3.25 30.9606 3.08538 30.5632 2.79235 30.2701C2.49933 29.9771 2.1019 29.8125 1.6875 29.8125C1.2731 29.8125 0.875671 29.9771 0.582646 30.2701C0.28962 30.5632 0.125 30.9606 0.125 31.375V39.1875C0.125 40.4307 0.61886 41.623 1.49794 42.5021C2.37701 43.3811 3.5693 43.875 4.8125 43.875H13.4062C13.8207 43.875 14.2181 43.7104 14.5111 43.4174C14.8041 43.1243 14.9688 42.7269 14.9688 42.3125C14.9688 41.8981 14.8041 41.5007 14.5111 41.2076C14.2181 40.9146 13.8207 40.75 13.4062 40.75ZM42.3125 20.4375H1.6875C1.2731 20.4375 0.875671 20.6021 0.582646 20.8951C0.28962 21.1882 0.125 21.5856 0.125 22C0.125 22.4144 0.28962 22.8118 0.582646 23.1049C0.875671 23.3979 1.2731 23.5625 1.6875 23.5625H42.3125C42.7269 23.5625 43.1243 23.3979 43.4174 23.1049C43.7104 22.8118 43.875 22.4144 43.875 22C43.875 21.5856 43.7104 21.1882 43.4174 20.8951C43.1243 20.6021 42.7269 20.4375 42.3125 20.4375Z" fill="black"/>
</svg>
