<svg width="50" height="50" viewBox="0 0 50 50" fill="none" xmlns="http://www.w3.org/2000/svg">
<path d="M47.4379 18.6624C47.2131 18.7083 46.9995 18.7979 46.8094 18.9263C46.6192 19.0547 46.4562 19.2193 46.3297 19.4107C46.2032 19.6021 46.1156 19.8165 46.072 20.0417C46.0283 20.267 46.0295 20.4986 46.0754 20.7234C46.9651 25.0792 46.4852 29.6036 44.7016 33.6759C42.918 37.7483 39.918 41.1692 36.1131 43.4694C32.3082 45.7696 27.8848 46.8365 23.4495 46.5238C19.0142 46.2111 14.7843 44.534 11.34 41.7226C7.89559 38.9113 5.40545 35.1033 4.21107 30.8209C3.01668 26.5386 3.17656 21.9917 4.66878 17.8038C6.16099 13.6159 8.91245 9.99218 12.5458 7.42961C16.1791 4.86704 20.5164 3.49114 24.9626 3.49063C27.1542 3.48853 29.3331 3.82231 31.4234 4.48035C31.8622 4.61001 32.3344 4.56233 32.7385 4.34754C33.1425 4.13276 33.4461 3.76803 33.584 3.33178C33.7219 2.89553 33.6831 2.42258 33.476 2.01463C33.2688 1.60669 32.9098 1.29631 32.4761 1.15023C27.2445 -0.489106 21.6189 -0.363406 16.4656 1.50798C11.3124 3.37936 6.9173 6.89265 3.95713 11.5069C0.996965 16.121 -0.364116 21.5803 0.0834753 27.0439C0.531067 32.5075 2.76251 37.6724 6.43419 41.7435C10.1059 45.8145 15.0142 48.5658 20.4033 49.5738C25.7924 50.5817 31.3635 49.7904 36.2586 47.3217C41.1538 44.8529 45.1016 40.8437 47.494 35.9113C49.8865 30.9789 50.5911 25.3968 49.4991 20.0248C49.4533 19.8 49.3636 19.5864 49.2352 19.3963C49.1068 19.2061 48.9422 19.0432 48.7508 18.9166C48.5594 18.7901 48.3449 18.7026 48.1197 18.659C47.8944 18.6153 47.6627 18.6165 47.4379 18.6624ZM40.1713 7.63581L41.8482 5.96143V13.3878C41.8482 13.851 42.0323 14.2953 42.3598 14.6228C42.6874 14.9504 43.1317 15.1344 43.595 15.1344C44.0583 15.1344 44.5026 14.9504 44.8302 14.6228C45.1578 14.2953 45.3418 13.851 45.3418 13.3878V5.96143L47.0187 7.63581C47.3498 7.94432 47.7878 8.11228 48.2403 8.10429C48.6929 8.09631 49.1247 7.91301 49.4447 7.59301C49.7647 7.27301 49.9481 6.84129 49.956 6.38881C49.964 5.93633 49.7961 5.49842 49.4875 5.16733L44.8294 0.509828C44.5016 0.183322 44.0577 0 43.595 0C43.1323 0 42.6884 0.183322 42.3606 0.509828L37.7025 5.16733C37.394 5.49842 37.226 5.93633 37.234 6.38881C37.242 6.84129 37.4253 7.27301 37.7453 7.59301C38.0654 7.91301 38.4971 8.09631 38.9497 8.10429C39.4022 8.11228 39.8402 7.94432 40.1713 7.63581ZM24.9114 38.4219C25.3747 38.4219 25.819 38.2379 26.1466 37.9103C26.4742 37.5828 26.6582 37.1385 26.6582 36.6753V35.7438C28.057 35.5423 29.3424 34.861 30.2943 33.8165C31.2462 32.772 31.8055 31.4292 31.8765 30.0179C31.9474 28.6066 31.5257 27.2144 30.6834 26.0797C29.8411 24.945 28.6307 24.1382 27.2591 23.7973L23.514 22.8658C22.9422 22.7228 22.4356 22.3904 22.077 21.9227C21.7213 21.4674 21.5301 20.9052 21.5343 20.3275C21.5368 19.6359 21.8131 18.9735 22.3028 18.4851C22.7926 17.9968 23.4558 17.7222 24.1475 17.7216H25.7778C26.4215 17.7228 27.0422 17.9608 27.5216 18.3903C28.001 18.8198 28.3055 19.4108 28.377 20.0504C28.3961 20.2834 28.4618 20.5101 28.5701 20.7173C28.6785 20.9244 28.8273 21.1077 29.0078 21.2563C29.1883 21.4048 29.3968 21.5156 29.6209 21.5822C29.845 21.6487 30.0802 21.6695 30.3125 21.6435C30.5449 21.6175 30.7696 21.5451 30.9735 21.4306C31.1773 21.3161 31.3561 21.1619 31.4992 20.9771C31.6423 20.7922 31.7469 20.5805 31.8067 20.3546C31.8665 20.1286 31.8803 19.8929 31.8473 19.6615C31.6976 18.3202 31.1068 17.0666 30.1677 16.0972C29.2286 15.1279 27.9942 14.4976 26.6582 14.3053V13.3878C26.6582 12.9246 26.4742 12.4804 26.1466 12.1528C25.819 11.8253 25.3747 11.6413 24.9114 11.6413C24.4481 11.6413 24.0038 11.8253 23.6762 12.1528C23.3487 12.4804 23.1646 12.9246 23.1646 13.3878V14.3193C21.7791 14.5447 20.5139 15.2411 19.5824 16.2911C18.6509 17.341 18.1102 18.6802 18.0516 20.0825C17.993 21.4848 18.4202 22.8643 19.2609 23.9883C20.1016 25.1122 21.3043 25.9117 22.6662 26.2518L26.4113 27.1833C27.0295 27.339 27.5696 27.715 27.93 28.2408C28.2904 28.7666 28.4464 29.4059 28.3686 30.0385C28.2908 30.6712 27.9846 31.2536 27.5075 31.6764C27.0304 32.0992 26.4153 32.3333 25.7778 32.3345H24.1475C23.5038 32.3334 22.8831 32.0953 22.4037 31.6658C21.9243 31.2363 21.6198 30.6454 21.5483 30.0058C21.5292 29.7728 21.4635 29.546 21.3552 29.3389C21.2468 29.1318 21.098 28.9485 20.9175 28.7999C20.737 28.6513 20.5285 28.5405 20.3044 28.474C20.0803 28.4075 19.8451 28.3866 19.6127 28.4126C19.3804 28.4387 19.1557 28.5111 18.9518 28.6256C18.748 28.74 18.5692 28.8943 18.4261 29.0791C18.283 29.2639 18.1784 29.4756 18.1186 29.7016C18.0588 29.9276 18.045 30.1633 18.078 30.3947C18.2247 31.7196 18.8015 32.9599 19.7202 33.926C20.6388 34.892 21.8486 35.5305 23.1646 35.7438V36.6753C23.1646 37.1385 23.3487 37.5828 23.6762 37.9103C24.0038 38.2379 24.4481 38.4219 24.9114 38.4219Z" fill="black"/>
</svg>
