<svg width="50" height="50" viewBox="0 0 50 50" fill="none" xmlns="http://www.w3.org/2000/svg">
<g clip-path="url(#clip0_2_6)">
<path d="M45.4333 20.6896C45.2322 20.733 45.0411 20.818 44.871 20.9397C44.7009 21.0614 44.5551 21.2174 44.4419 21.3988C44.3288 21.5803 44.2504 21.7835 44.2114 21.997C44.1724 22.2105 44.1734 22.4301 44.2145 22.6431C45.0103 26.7719 44.581 31.0604 42.9856 34.9205C41.3902 38.7805 38.7067 42.0231 35.3032 44.2034C31.8997 46.3837 27.943 47.3951 23.9756 47.0986C20.0082 46.8022 16.2246 45.2126 13.1436 42.5477C10.0626 39.8829 7.83518 36.2734 6.7668 32.2143C5.69843 28.1552 5.84144 23.8453 7.17622 19.8757C8.51101 15.9062 10.9722 12.4713 14.2222 10.0423C17.4722 7.61333 21.3519 6.30916 25.3291 6.30867C27.2894 6.30668 29.2384 6.62306 31.1083 7.2468C31.5008 7.3697 31.9232 7.3245 32.2846 7.12091C32.646 6.91733 32.9176 6.57162 33.0409 6.1581C33.1643 5.74459 33.1296 5.2963 32.9443 4.90962C32.759 4.52293 32.4378 4.22873 32.0499 4.09027C27.3702 2.53639 22.3381 2.65554 17.7285 4.42937C13.1189 6.2032 9.18753 9.53335 6.53966 13.907C3.89179 18.2807 2.6743 23.4553 3.07467 28.6341C3.47504 33.8129 5.47107 38.7087 8.75539 42.5675C12.0397 46.4263 16.4302 49.0342 21.2508 49.9896C26.0713 50.945 31.0547 50.1949 35.4334 47.8549C39.8121 45.5148 43.3434 41.7146 45.4835 37.0393C47.6235 32.364 48.2537 27.073 47.277 21.9809C47.236 21.7678 47.1558 21.5654 47.041 21.3852C46.9261 21.205 46.7789 21.0505 46.6076 20.9306C46.4364 20.8106 46.2446 20.7276 46.0431 20.6863C45.8416 20.645 45.6344 20.6461 45.4333 20.6896ZM38.9333 10.2378L40.4333 8.65068V15.6899C40.4333 16.129 40.5979 16.5501 40.8909 16.8606C41.1839 17.171 41.5814 17.3455 41.9958 17.3455C42.4102 17.3455 42.8076 17.171 43.1006 16.8606C43.3937 16.5501 43.5583 16.129 43.5583 15.6899V8.65068L45.0583 10.2378C45.3545 10.5302 45.7462 10.6894 46.151 10.6818C46.5558 10.6743 46.942 10.5005 47.2283 10.1972C47.5146 9.89388 47.6786 9.48467 47.6857 9.05578C47.6929 8.62688 47.5426 8.2118 47.2666 7.89797L43.0999 3.48325C42.8067 3.17377 42.4097 3 41.9958 3C41.5819 3 41.1848 3.17377 40.8916 3.48325L36.7249 7.89797C36.4489 8.2118 36.2987 8.62688 36.3058 9.05578C36.313 9.48467 36.477 9.89388 36.7632 10.1972C37.0495 10.5005 37.4357 10.6743 37.8405 10.6818C38.2453 10.6894 38.6371 10.5302 38.9333 10.2378ZM25.2833 39.419C25.6977 39.419 26.0951 39.2446 26.3881 38.9342C26.6812 38.6237 26.8458 38.2026 26.8458 37.7635V36.8806C28.097 36.6896 29.2468 36.0438 30.0983 35.0537C30.9497 34.0637 31.45 32.7909 31.5135 31.4531C31.577 30.1154 31.1998 28.7958 30.4464 27.7202C29.6929 26.6446 28.6101 25.8799 27.3833 25.5568L24.0333 24.6739C23.5218 24.5383 23.0687 24.2232 22.7479 23.7799C22.4298 23.3483 22.2587 22.8155 22.2624 22.2679C22.2646 21.6123 22.5118 20.9844 22.9499 20.5215C23.388 20.0586 23.9812 19.7984 24.5999 19.7978H26.0583C26.6341 19.7989 27.1893 20.0246 27.6181 20.4317C28.0469 20.8388 28.3193 21.3989 28.3833 22.0052C28.4003 22.226 28.4591 22.441 28.556 22.6373C28.6529 22.8337 28.786 23.0074 28.9475 23.1482C29.109 23.289 29.2954 23.3941 29.4959 23.4571C29.6964 23.5202 29.9068 23.54 30.1146 23.5153C30.3224 23.4906 30.5235 23.422 30.7058 23.3135C30.8881 23.2049 31.048 23.0588 31.176 22.8836C31.3041 22.7084 31.3976 22.5077 31.4511 22.2935C31.5046 22.0793 31.5169 21.8559 31.4874 21.6366C31.3535 20.3652 30.8251 19.1769 29.985 18.2581C29.145 17.3393 28.0408 16.7419 26.8458 16.5596V15.6899C26.8458 15.2509 26.6812 14.8298 26.3881 14.5193C26.0951 14.2088 25.6977 14.0344 25.2833 14.0344C24.8689 14.0344 24.4714 14.2088 24.1784 14.5193C23.8854 14.8298 23.7208 15.2509 23.7208 15.6899V16.5729C22.4815 16.7865 21.3497 17.4466 20.5164 18.4419C19.6832 19.4371 19.1996 20.7064 19.1472 22.0356C19.0948 23.3648 19.4768 24.6725 20.2288 25.7378C20.9809 26.8032 22.0568 27.561 23.2749 27.8834L26.6249 28.7663C27.1779 28.9139 27.661 29.2703 27.9834 29.7687C28.3058 30.267 28.4453 30.873 28.3757 31.4727C28.3061 32.0724 28.0322 32.6245 27.6055 33.0252C27.1787 33.426 26.6285 33.6478 26.0583 33.649H24.5999C24.0242 33.6479 23.4689 33.4223 23.0401 33.0152C22.6113 32.608 22.3389 32.0479 22.2749 31.4416C22.2579 31.2208 22.1991 31.0059 22.1022 30.8095C22.0053 30.6132 21.8722 30.4395 21.7107 30.2986C21.5493 30.1578 21.3628 30.0528 21.1623 29.9897C20.9618 29.9267 20.7514 29.9069 20.5436 29.9316C20.3358 29.9562 20.1348 30.0249 19.9524 30.1334C19.7701 30.2419 19.6102 30.3881 19.4822 30.5633C19.3542 30.7385 19.2606 30.9391 19.2071 31.1533C19.1536 31.3675 19.1413 31.5909 19.1708 31.8103C19.302 33.0661 19.818 34.2418 20.6397 35.1575C21.4614 36.0732 22.5436 36.6784 23.7208 36.8806V37.7635C23.7208 38.2026 23.8854 38.6237 24.1784 38.9342C24.4714 39.2446 24.8689 39.419 25.2833 39.419Z" fill="black"/>
</g>
<defs>
<clipPath id="clip0_2_6">
<rect width="50" height="50" fill="white"/>
</clipPath>
</defs>
</svg>
