<svg width="50" height="42" viewBox="0 0 50 42" fill="none" xmlns="http://www.w3.org/2000/svg">
<path d="M44.7917 41.6572H5.20833C3.82751 41.6555 2.50371 41.1062 1.52731 40.1298C0.550919 39.1534 0.00165402 37.8296 0 36.4488L0 32.2822C0 32.0059 0.109747 31.7409 0.305097 31.5456C0.500447 31.3502 0.765399 31.2405 1.04167 31.2405H2.08333C4.38125 31.2405 6.25 29.3717 6.25 27.0738C6.25 24.7759 4.38125 22.9072 2.08333 22.9072H1.04167C0.765399 22.9072 0.500447 22.7974 0.305097 22.6021C0.109747 22.4067 0 22.1418 0 21.8655V17.6988C0 14.828 2.3375 12.4905 5.20833 12.4905H44.7917C47.6625 12.4905 50 14.828 50 17.6988V21.8655C50 22.1418 49.8903 22.4067 49.6949 22.6021C49.4996 22.7974 49.2346 22.9072 48.9583 22.9072H47.9167C47.0936 22.9093 46.2896 23.1549 45.6058 23.6131C44.922 24.0713 44.3891 24.7216 44.0742 25.482C43.7592 26.2424 43.6763 27.079 43.8359 27.8865C43.9954 28.694 44.3903 29.4362 44.9708 30.0197C45.7562 30.8072 46.8021 31.2405 47.9146 31.2405H48.9562C49.2325 31.2405 49.4975 31.3502 49.6928 31.5456C49.8882 31.7409 49.9979 32.0059 49.9979 32.2822V36.4488C49.9968 37.8295 49.448 39.1533 48.4719 40.1297C47.4959 41.1062 46.1723 41.6555 44.7917 41.6572ZM2.08333 33.3238V36.4488C2.08333 38.1717 3.48542 39.5738 5.20833 39.5738H44.7917C46.5146 39.5738 47.9167 38.1717 47.9167 36.4488V33.3238C47.0961 33.326 46.2812 33.1655 45.5231 32.8515C44.765 32.5376 44.0766 32.0764 43.4979 31.4947C42.9156 30.9154 42.4539 30.2264 42.1396 29.4676C41.8253 28.7088 41.6645 27.8952 41.6667 27.0738C41.6667 23.628 44.4708 20.8238 47.9167 20.8238V17.6988C47.9167 15.9759 46.5146 14.5738 44.7917 14.5738H5.20833C3.48542 14.5738 2.08333 15.9759 2.08333 17.6988V20.8238C5.52917 20.8238 8.33333 23.628 8.33333 27.0738C8.33333 30.5197 5.52917 33.3238 2.08333 33.3238Z" fill="black"/>
<path d="M17.7083 16.6572C17.4321 16.6572 17.1671 16.5474 16.9718 16.3521C16.7764 16.1567 16.6667 15.8918 16.6667 15.6155V13.5322C16.6667 13.2559 16.7764 12.9909 16.9718 12.7956C17.1671 12.6002 17.4321 12.4905 17.7083 12.4905C17.9846 12.4905 18.2496 12.6002 18.4449 12.7956C18.6403 12.9909 18.75 13.2559 18.75 13.5322V15.6155C18.75 15.8918 18.6403 16.1567 18.4449 16.3521C18.2496 16.5474 17.9846 16.6572 17.7083 16.6572ZM17.7083 34.2842C17.4321 34.2842 17.1671 34.1745 16.9718 33.9791C16.7764 33.7838 16.6667 33.5188 16.6667 33.2426V29.7197C16.6667 29.4434 16.7764 29.1784 16.9718 28.9831C17.1671 28.7877 17.4321 28.678 17.7083 28.678C17.9846 28.678 18.2496 28.7877 18.4449 28.9831C18.6403 29.1784 18.75 29.4434 18.75 29.7197V33.2447C18.7495 33.5206 18.6395 33.785 18.4442 33.9799C18.2489 34.1748 17.9842 34.2842 17.7083 34.2842ZM17.7083 25.4717C17.4321 25.4717 17.1671 25.362 16.9718 25.1666C16.7764 24.9713 16.6667 24.7063 16.6667 24.4301V20.9051C16.6667 20.6288 16.7764 20.3639 16.9718 20.1685C17.1671 19.9732 17.4321 19.8634 17.7083 19.8634C17.9846 19.8634 18.2496 19.9732 18.4449 20.1685C18.6403 20.3639 18.75 20.6288 18.75 20.9051V24.4301C18.75 24.7063 18.6403 24.9713 18.4449 25.1666C18.2496 25.362 17.9846 25.4717 17.7083 25.4717ZM17.7083 41.6572C17.4321 41.6572 17.1671 41.5474 16.9718 41.3521C16.7764 41.1567 16.6667 40.8918 16.6667 40.6155V38.5322C16.6667 38.2559 16.7764 37.9909 16.9718 37.7956C17.1671 37.6002 17.4321 37.4905 17.7083 37.4905C17.9846 37.4905 18.2496 37.6002 18.4449 37.7956C18.6403 37.9909 18.75 38.2559 18.75 38.5322V40.6155C18.75 40.8918 18.6403 41.1567 18.4449 41.3521C18.2496 41.5474 17.9846 41.6572 17.7083 41.6572Z" fill="black"/>
<path d="M5.20834 14.5738C4.96142 14.5791 4.7207 14.4962 4.52947 14.3399C4.33824 14.1836 4.20905 13.9642 4.16511 13.7211C4.12117 13.4781 4.16537 13.2274 4.28977 13.014C4.41417 12.8006 4.61061 12.6386 4.84376 12.5572L37.9688 0.188402C39.5792 -0.415765 41.4708 0.488401 42.0208 2.11132L45.7771 13.1967C45.8619 13.4573 45.8406 13.7409 45.7177 13.9859C45.5949 14.2309 45.3805 14.4176 45.1209 14.5056C44.8614 14.5935 44.5776 14.5757 44.3311 14.4559C44.0847 14.3361 43.8953 14.1239 43.8042 13.8655L40.0479 2.78007C39.9523 2.51672 39.7568 2.30167 39.5037 2.18155C39.2506 2.06143 38.9603 2.04593 38.6958 2.1384L5.57084 14.5072C5.45515 14.5516 5.33225 14.5742 5.20834 14.5738Z" fill="black"/>
</svg>
