<svg width="50" height="50" viewBox="0 0 50 50" fill="none" xmlns="http://www.w3.org/2000/svg">
<path d="M44.7917 50H5.20833C3.82751 49.998 2.50371 49.3387 1.52731 48.1668C0.550919 46.9949 0.00165402 45.4059 0 43.7486L0 38.7474C0 38.4158 0.109747 38.0978 0.305097 37.8633C0.500447 37.6289 0.765399 37.4971 1.04167 37.4971H2.08333C4.38125 37.4971 6.25 35.2541 6.25 32.496C6.25 29.7379 4.38125 27.4949 2.08333 27.4949H1.04167C0.765399 27.4949 0.500447 27.3631 0.305097 27.1287C0.109747 26.8942 0 26.5762 0 26.2446V21.2434C0 17.7976 2.3375 14.992 5.20833 14.992H44.7917C47.6625 14.992 50 17.7976 50 21.2434V26.2446C50 26.5762 49.8903 26.8942 49.6949 27.1287C49.4996 27.3631 49.2346 27.4949 48.9583 27.4949H47.9167C47.0936 27.4974 46.2896 27.7923 45.6058 28.3422C44.922 28.8922 44.3891 29.6726 44.0742 30.5854C43.7592 31.4981 43.6763 32.5023 43.8359 33.4714C43.9954 34.4406 44.3903 35.3315 44.9708 36.0318C45.7562 36.977 46.8021 37.4971 47.9146 37.4971H48.9562C49.2325 37.4971 49.4975 37.6289 49.6928 37.8633C49.8882 38.0978 49.9979 38.4158 49.9979 38.7474V43.7486C49.9968 45.4057 49.448 46.9946 48.4719 48.1667C47.4959 49.3387 46.1723 49.998 44.7917 50ZM2.08333 39.9977V43.7486C2.08333 45.8165 3.48542 47.4994 5.20833 47.4994H44.7917C46.5146 47.4994 47.9167 45.8165 47.9167 43.7486V39.9977C47.0961 40.0004 46.2812 39.8077 45.5231 39.4309C44.765 39.054 44.0766 38.5004 43.4979 37.8022C42.9156 37.107 42.4539 36.28 42.1396 35.3692C41.8253 34.4584 41.6645 33.4818 41.6667 32.496C41.6667 28.3601 44.4708 24.9943 47.9167 24.9943V21.2434C47.9167 19.1755 46.5146 17.4926 44.7917 17.4926H5.20833C3.48542 17.4926 2.08333 19.1755 2.08333 21.2434V24.9943C5.52917 24.9943 8.33333 28.3601 8.33333 32.496C8.33333 36.6319 5.52917 39.9977 2.08333 39.9977Z" fill="black"/>
<path d="M17.7084 19.9931C17.4321 19.9931 17.1671 19.8614 16.9718 19.6269C16.7764 19.3925 16.6667 19.0745 16.6667 18.7429V16.2423C16.6667 15.9107 16.7764 15.5927 16.9718 15.3582C17.1671 15.1237 17.4321 14.992 17.7084 14.992C17.9846 14.992 18.2496 15.1237 18.4449 15.3582C18.6403 15.5927 18.75 15.9107 18.75 16.2423V18.7429C18.75 19.0745 18.6403 19.3925 18.4449 19.6269C18.2496 19.8614 17.9846 19.9931 17.7084 19.9931ZM17.7084 41.1505C17.4321 41.1505 17.1671 41.0188 16.9718 40.7843C16.7764 40.5498 16.6667 40.2318 16.6667 39.9002V35.6717C16.6667 35.3401 16.7764 35.0221 16.9718 34.7876C17.1671 34.5532 17.4321 34.4214 17.7084 34.4214C17.9846 34.4214 18.2496 34.5532 18.4449 34.7876C18.6403 35.0221 18.75 35.3401 18.75 35.6717V39.9027C18.7495 40.2339 18.6395 40.5512 18.4442 40.7852C18.2489 41.0191 17.9843 41.1505 17.7084 41.1505ZM17.7084 30.5731C17.4321 30.5731 17.1671 30.4413 16.9718 30.2069C16.7764 29.9724 16.6667 29.6544 16.6667 29.3228V25.0918C16.6667 24.7602 16.7764 24.4422 16.9718 24.2077C17.1671 23.9733 17.4321 23.8415 17.7084 23.8415C17.9846 23.8415 18.2496 23.9733 18.4449 24.2077C18.6403 24.4422 18.75 24.7602 18.75 25.0918V29.3228C18.75 29.6544 18.6403 29.9724 18.4449 30.2069C18.2496 30.4413 17.9846 30.5731 17.7084 30.5731ZM17.7084 50C17.4321 50 17.1671 49.8683 16.9718 49.6338C16.7764 49.3993 16.6667 49.0813 16.6667 48.7497V46.2491C16.6667 45.9175 16.7764 45.5995 16.9718 45.3651C17.1671 45.1306 17.4321 44.9989 17.7084 44.9989C17.9846 44.9989 18.2496 45.1306 18.4449 45.3651C18.6403 45.5995 18.75 45.9175 18.75 46.2491V48.7497C18.75 49.0813 18.6403 49.3993 18.4449 49.6338C18.2496 49.8683 17.9846 50 17.7084 50Z" fill="black"/>
<path d="M5.20834 17.4926C4.96142 17.4989 4.72071 17.3994 4.52948 17.2118C4.33825 17.0242 4.20905 16.7608 4.16511 16.4691C4.12117 16.1774 4.16538 15.8764 4.28978 15.6204C4.41418 15.3643 4.61061 15.1698 4.84376 15.072L37.9688 0.226134C39.5792 -0.499032 41.4708 0.586215 42.0208 2.53416L45.7771 15.8397C45.8619 16.1525 45.8406 16.4928 45.7177 16.7869C45.5949 17.0809 45.3805 17.305 45.1209 17.4106C44.8614 17.5162 44.5776 17.4948 44.3311 17.351C44.0847 17.2072 43.8953 16.9526 43.8042 16.6424L40.0479 3.33684C39.9523 3.02075 39.7568 2.76263 39.5037 2.61846C39.2506 2.47428 38.9603 2.45567 38.6958 2.56667L5.57084 17.4126C5.45516 17.4658 5.33226 17.493 5.20834 17.4926Z" fill="black"/>
</svg>
