<svg width="50" height="44" viewBox="0 0 50 44" fill="none" xmlns="http://www.w3.org/2000/svg">
<path d="M47.3927 18.7774V16.8463C47.3927 13.315 44.9695 10.3466 41.701 9.49607L41.6951 6.3121C41.6951 3.20479 39.1664 0.676086 36.0577 0.676086H35.7596L9.37697 8.86045C8.79157 8.89723 8.21567 9.02639 7.67063 9.24313H7.60183C3.4107 9.24313 0 12.6538 0 16.8463V35.7208C0 39.9126 3.41004 43.3239 7.60183 43.3239H39.7908C43.982 43.3239 47.3927 39.9132 47.3927 35.7208V33.2104C48.9149 32.6213 50 31.1457 50 29.417V22.5694C49.9993 20.8421 48.9149 19.3665 47.3927 18.7774ZM46.0677 29.4164C46.0678 29.4346 46.0643 29.4526 46.0574 29.4694C46.0504 29.4862 46.0403 29.5015 46.0274 29.5143C46.0145 29.5272 45.9993 29.5374 45.9825 29.5443C45.9656 29.5512 45.9476 29.5547 45.9294 29.5547H35.2871C35.269 29.5548 35.2509 29.5514 35.2341 29.5445C35.2173 29.5376 35.202 29.5274 35.1892 29.5145C35.1764 29.5016 35.1663 29.4863 35.1595 29.4695C35.1526 29.4526 35.1493 29.4346 35.1495 29.4164V22.5694C35.1497 22.5331 35.1643 22.4982 35.1901 22.4726C35.2159 22.4469 35.2508 22.4325 35.2871 22.4325H45.9294C45.9475 22.4324 45.9654 22.4359 45.9821 22.4427C45.9989 22.4495 46.0141 22.4596 46.0269 22.4723C46.0398 22.485 46.05 22.5002 46.057 22.5168C46.064 22.5335 46.0676 22.5514 46.0677 22.5694V29.4164ZM36.3008 4.62542C36.707 4.68432 37.0784 4.88755 37.347 5.1979C37.6156 5.50824 37.7634 5.90494 37.7634 6.31537L37.7687 9.24379H21.4137L36.3008 4.62542ZM39.7908 39.3916H7.60248C6.62897 39.3913 5.69545 39.0043 5.00719 38.3158C4.31893 37.6273 3.9323 36.6936 3.9323 35.7201V16.8463C3.93221 16.3642 4.02707 15.8869 4.21147 15.4415C4.39587 14.9961 4.66619 14.5913 5.007 14.2504C5.34781 13.9095 5.75243 13.639 6.19776 13.4545C6.6431 13.2699 7.12042 13.1749 7.60248 13.1748H39.7908C40.2729 13.1748 40.7503 13.2698 41.1957 13.4543C41.641 13.6388 42.0457 13.9093 42.3865 14.2502C42.7273 14.5912 42.9977 14.9959 43.182 15.4414C43.3664 15.8868 43.4612 16.3642 43.461 16.8463V18.5008H35.2871C34.2083 18.5019 33.174 18.9308 32.4111 19.6936C31.6482 20.4564 31.2191 21.4906 31.2179 22.5694V29.4164C31.2191 30.4953 31.6482 31.5297 32.411 32.2927C33.1739 33.0556 34.2082 33.4849 35.2871 33.4863H43.461V35.7208C43.461 36.6942 43.0744 37.6278 42.3861 38.3162C41.6978 39.0046 40.7643 39.3914 39.7908 39.3916Z" fill="black"/>
</svg>
