<svg width="26" height="20" viewBox="0 0 26 20" fill="none" xmlns="http://www.w3.org/2000/svg">
<path d="M17.7273 8.57143C19.6891 8.57143 21.2609 6.65714 21.2609 4.28571C21.2609 1.91429 19.6891 0 17.7273 0C15.7655 0 14.1818 1.91429 14.1818 4.28571C14.1818 6.65714 15.7655 8.57143 17.7273 8.57143ZM8.27273 8.57143C10.2345 8.57143 11.8064 6.65714 11.8064 4.28571C11.8064 1.91429 10.2345 0 8.27273 0C6.31091 0 4.72727 1.91429 4.72727 4.28571C4.72727 6.65714 6.31091 8.57143 8.27273 8.57143ZM8.27273 11.4286C5.51909 11.4286 0 13.1 0 16.4286V20H16.5455V16.4286C16.5455 13.1 11.0264 11.4286 8.27273 11.4286ZM17.7273 11.4286C17.3845 11.4286 16.9945 11.4571 16.5809 11.5C17.9518 12.7 18.9091 14.3143 18.9091 16.4286V20H26V16.4286C26 13.1 20.4809 11.4286 17.7273 11.4286Z" fill="black"/>
</svg>
