<svg width="17" height="26" viewBox="0 0 17 26" fill="none" xmlns="http://www.w3.org/2000/svg">
<path d="M9.15128 11.4111C5.36051 10.5589 4.14145 9.67778 4.14145 8.30556C4.14145 6.73111 5.82809 5.63333 8.65029 5.63333C11.6228 5.63333 12.725 6.86111 12.8251 8.66667H16.5157C16.3988 6.18222 14.6454 3.9 11.1552 3.16333V0H6.14538V3.12C2.9057 3.72667 0.300589 5.54667 0.300589 8.33444C0.300589 11.6711 3.49018 13.3322 8.14931 14.3C12.3242 15.1667 13.1591 16.4378 13.1591 17.7811C13.1591 18.7778 12.3409 20.3667 8.65029 20.3667C5.21022 20.3667 3.85756 19.0378 3.67387 17.3333H0C0.200393 20.4967 2.9391 22.2733 6.14538 22.8656V26H11.1552V22.8944C14.4116 22.36 17 20.7278 17 17.7667C17 13.6644 12.942 12.2633 9.15128 11.4111Z" fill="black"/>
</svg>
