<svg width="28" height="28" viewBox="0 0 28 28" fill="none" xmlns="http://www.w3.org/2000/svg">
<path d="M14 12.4444C10.1111 12.4444 6.80556 11.8352 4.08333 10.6167C1.36111 9.39815 0 7.93333 0 6.22222C0 4.51111 1.36111 3.0463 4.08333 1.82778C6.80556 0.60926 10.1111 0 14 0C17.8889 0 21.1944 0.60926 23.9167 1.82778C26.6389 3.0463 28 4.51111 28 6.22222C28 7.93333 26.6389 9.39815 23.9167 10.6167C21.1944 11.8352 17.8889 12.4444 14 12.4444ZM14 20.2222C10.1111 20.2222 6.80556 19.613 4.08333 18.3944C1.36111 17.1759 0 15.7111 0 14V10.1111C0 11.2519 0.531482 12.2179 1.59444 13.0091C2.65741 13.7993 3.92778 14.4407 5.40556 14.9333C6.88333 15.4259 8.4197 15.7821 10.0147 16.002C11.6086 16.2229 12.937 16.3333 14 16.3333C15.063 16.3333 16.3914 16.2229 17.9853 16.002C19.5803 15.7821 21.1167 15.4259 22.5944 14.9333C24.0722 14.4407 25.3426 13.7993 26.4056 13.0091C27.4685 12.2179 28 11.2519 28 10.1111V14C28 15.7111 26.6389 17.1759 23.9167 18.3944C21.1944 19.613 17.8889 20.2222 14 20.2222ZM14 28C10.1111 28 6.80556 27.3907 4.08333 26.1722C1.36111 24.9537 0 23.4889 0 21.7778V17.8889C0 19.0296 0.531482 19.9956 1.59444 20.7869C2.65741 21.5771 3.92778 22.2185 5.40556 22.7111C6.88333 23.2037 8.4197 23.5604 10.0147 23.7813C11.6086 24.0012 12.937 24.1111 14 24.1111C15.063 24.1111 16.3914 24.0012 17.9853 23.7813C19.5803 23.5604 21.1167 23.2037 22.5944 22.7111C24.0722 22.2185 25.3426 21.5771 26.4056 20.7869C27.4685 19.9956 28 19.0296 28 17.8889V21.7778C28 23.4889 26.6389 24.9537 23.9167 26.1722C21.1944 27.3907 17.8889 28 14 28Z" fill="black"/>
</svg>
