<svg width="25" height="24" viewBox="0 0 25 24" fill="none" xmlns="http://www.w3.org/2000/svg">
<path d="M2.27273 3H22.7273V0H2.27273C1.02273 0 0 1.35 0 3V21C0 22.65 1.02273 24 2.27273 24H6.81818V21H2.27273V3ZM13.6364 12H9.09091V14.67C8.39773 15.495 7.95455 16.665 7.95455 18C7.95455 19.335 8.39773 20.505 9.09091 21.33V24H13.6364V21.33C14.3295 20.505 14.7727 19.32 14.7727 18C14.7727 16.68 14.3295 15.495 13.6364 14.67V12ZM11.3636 20.25C10.4205 20.25 9.65909 19.245 9.65909 18C9.65909 16.755 10.4205 15.75 11.3636 15.75C12.3068 15.75 13.0682 16.755 13.0682 18C13.0682 19.245 12.3068 20.25 11.3636 20.25ZM23.8636 6H17.0455C16.4773 6 15.9091 6.75 15.9091 7.5V22.5C15.9091 23.25 16.4773 24 17.0455 24H23.8636C24.4318 24 25 23.25 25 22.5V7.5C25 6.75 24.4318 6 23.8636 6ZM22.7273 21H18.1818V9H22.7273V21Z" fill="black"/>
</svg>
