<svg width="28" height="28" viewBox="0 0 28 28" fill="none" xmlns="http://www.w3.org/2000/svg">
<path d="M23.0474 3.458C22.9229 3.458 22.7985 3.43 22.6896 3.374C19.7023 1.988 17.1195 1.4 14.0233 1.4C10.9427 1.4 8.01766 2.058 5.35712 3.374C4.98371 3.556 4.51695 3.43 4.29913 3.094C4.09686 2.758 4.23689 2.324 4.6103 2.142C7.50423 0.728 10.6782 0 14.0233 0C17.3373 0 20.2313 0.658 23.4053 2.128C23.7942 2.31 23.9343 2.73 23.732 3.066C23.592 3.318 23.3275 3.458 23.0474 3.458ZM0.782852 10.808C0.627264 10.808 0.471677 10.766 0.331648 10.682C-0.0262027 10.458 -0.103997 10.024 0.144943 9.702C1.68526 7.742 3.64566 6.202 5.97947 5.124C10.8649 2.856 17.1195 2.842 22.0205 5.11C24.3543 6.188 26.3147 7.714 27.8551 9.66C28.104 9.968 28.0262 10.416 27.6684 10.64C27.3105 10.864 26.8282 10.794 26.5792 10.472C25.179 8.708 23.4053 7.322 21.3048 6.356C16.8395 4.298 11.1294 4.298 6.67961 6.37C4.56363 7.35 2.78993 8.75 1.38964 10.514C1.26517 10.71 1.03179 10.808 0.782852 10.808ZM10.5071 27.706C10.3048 27.706 10.1025 27.636 9.96251 27.496C8.6089 26.278 7.87764 25.494 6.8352 23.8C5.76165 22.078 5.20153 19.978 5.20153 17.724C5.20153 13.566 9.15345 10.178 14.0078 10.178C18.8621 10.178 22.814 13.566 22.814 17.724C22.814 18.116 22.4717 18.424 22.0361 18.424C21.6004 18.424 21.2582 18.116 21.2582 17.724C21.2582 14.336 18.0064 11.578 14.0078 11.578C10.0092 11.578 6.75741 14.336 6.75741 17.724C6.75741 19.74 7.25529 21.602 8.20437 23.114C9.20013 24.724 9.88471 25.41 11.0827 26.502C11.3784 26.782 11.3784 27.216 11.0827 27.496C10.9116 27.636 10.7093 27.706 10.5071 27.706ZM21.6627 25.116C19.8112 25.116 18.1775 24.696 16.8395 23.87C14.5212 22.456 13.1365 20.16 13.1365 17.724C13.1365 17.332 13.4788 17.024 13.9144 17.024C14.3501 17.024 14.6924 17.332 14.6924 17.724C14.6924 19.698 15.8126 21.56 17.7108 22.708C18.8154 23.38 20.1068 23.702 21.6627 23.702C22.0361 23.702 22.6584 23.66 23.2808 23.562C23.7009 23.492 24.1054 23.744 24.1832 24.136C24.261 24.514 23.9809 24.878 23.5453 24.948C22.6584 25.102 21.8805 25.116 21.6627 25.116ZM18.5354 28C18.4731 28 18.3953 27.986 18.3331 27.972C15.8593 27.356 14.2412 26.53 12.5453 25.032C10.367 23.086 9.16901 20.496 9.16901 17.724C9.16901 15.456 11.3161 13.608 13.9611 13.608C16.6061 13.608 18.7532 15.456 18.7532 17.724C18.7532 19.222 20.2002 20.44 21.9894 20.44C23.7787 20.44 25.2256 19.222 25.2256 17.724C25.2256 12.446 20.169 8.162 13.9455 8.162C9.52686 8.162 5.48159 10.374 3.66122 13.804C3.05443 14.938 2.74325 16.268 2.74325 17.724C2.74325 18.816 2.85216 20.538 3.78569 22.778C3.94128 23.142 3.73901 23.548 3.33448 23.674C2.92996 23.814 2.47875 23.618 2.33873 23.268C1.57635 21.434 1.20294 19.614 1.20294 17.724C1.20294 16.044 1.56079 14.518 2.26093 13.188C4.33024 9.282 8.92007 6.748 13.9455 6.748C21.0248 6.748 26.7815 11.662 26.7815 17.71C26.7815 19.978 24.6344 21.826 21.9894 21.826C19.3444 21.826 17.1973 19.978 17.1973 17.71C17.1973 16.212 15.7504 14.994 13.9611 14.994C12.1718 14.994 10.7249 16.212 10.7249 17.71C10.7249 20.104 11.7518 22.344 13.6344 24.024C15.1124 25.34 16.5283 26.068 18.7221 26.614C19.1422 26.712 19.3755 27.104 19.2666 27.468C19.1888 27.79 18.8621 28 18.5354 28Z" fill="black"/>
</svg>
