<svg width="25" height="25" viewBox="0 0 25 25" fill="none" xmlns="http://www.w3.org/2000/svg">
<path d="M12.5051 0L12.1118 0.00484966L12.1838 2.48788L12.5077 2.48303H12.5129C13.5778 2.48303 14.6258 2.63253 15.6289 2.92677L16.4104 0.555286C15.1533 0.185315 13.8437 0 12.5129 0H12.5051ZM9.23488 0.385548C7.80666 0.730689 6.46989 1.29379 5.26018 2.06353L6.73077 4.12221C7.69037 3.51387 8.75191 3.06411 9.88791 2.79098L9.23488 0.385548ZM19.0739 1.66343L17.7422 3.80456C18.7531 4.362 19.6341 5.07129 20.3594 5.90931L22.3982 4.3356C21.4728 3.26914 20.356 2.3711 19.0739 1.66343ZM3.04659 3.86275C2.03433 4.90687 1.25656 6.09356 0.735294 7.38846L3.1957 8.2711C3.5985 7.27044 4.20175 6.3515 4.99023 5.53831L3.04659 3.86275ZM12.5051 4.96605C8.50613 4.96605 5.26532 7.7458 5.26532 11.1736C5.26532 13.2234 6.42795 15.0353 8.21421 16.1663L8.43274 19.5926L11.721 17.3424C11.979 17.3672 12.2406 17.3812 12.5051 17.3812C16.5042 17.3812 19.745 14.6014 19.745 11.1736C19.745 7.7458 16.5042 4.96605 12.5051 4.96605ZM23.9613 6.68526L21.5729 7.72793C22.0547 8.71121 22.3225 9.75533 22.3699 10.8317L25 10.7299C24.9394 9.32696 24.5892 7.9665 23.9613 6.68526ZM0.0565611 10.1018C0.0197038 10.4544 0 10.8111 0 11.1736C0 12.2177 0.162217 13.2502 0.480769 14.2459L3.00031 13.5257C2.75679 12.7647 2.63266 11.9743 2.63266 11.176C2.63266 10.8979 2.64741 10.6235 2.67637 10.3516L0.0565611 10.1018ZM22.1694 12.9607C21.9206 14.0036 21.4586 14.9886 20.7965 15.8875L22.9561 17.306C23.8157 16.1427 24.4166 14.8646 24.7378 13.5039L22.1694 12.9607ZM3.93614 15.4801L1.69169 16.7798C2.20901 17.5732 2.83435 18.3078 3.55306 18.967L3.69447 19.4641L6.23714 18.8191L5.90035 17.6309L5.61497 17.3885C4.95549 16.8211 4.39159 16.1791 3.93614 15.4801ZM19.2668 17.4952C18.4006 18.2127 17.4079 18.7794 16.3153 19.1804L17.2717 21.4937C18.6499 20.9872 19.9057 20.2698 21.0022 19.3623L19.2668 17.4952ZM14.076 19.743C13.7522 19.7889 13.4239 19.819 13.1633 19.8351C12.9356 19.8351 12.9348 19.8335 10.0704 20.7808L10.942 23.1256L13.4255 22.306C13.7757 22.2824 14.122 22.2465 14.4642 22.1993L14.076 19.743ZM6.9313 21.2658L4.38863 21.9083L5.26789 25L8.47131 23.9403L7.60232 21.598L7.07528 21.7701L6.9313 21.2658Z" fill="black"/>
</svg>
