<svg width="50" height="51" viewBox="0 0 50 51" fill="none" xmlns="http://www.w3.org/2000/svg">
<path d="M22.6597 32.3943V47.2446C22.6597 48.5042 22.9755 49.6769 23.5215 50.6522H3.95369C1.76962 50.6522 0 48.5279 0 45.91C0 40.4808 1.83212 35.5689 4.79574 32.0113C7.75936 28.4537 11.8545 26.2544 16.3739 26.2544H19.1073C21.0907 26.2544 22.9886 26.6768 24.7484 27.4508C23.4853 28.5642 22.6597 30.3648 22.6597 32.3943Z" fill="black"/>
<path d="M17.7423 22.0689C22.6416 22.0689 26.6134 17.3012 26.6134 11.4198C26.6134 5.53844 22.6416 0.77066 17.7423 0.77066C12.8429 0.77066 8.87112 5.53844 8.87112 11.4198C8.87112 17.3012 12.8429 22.0689 17.7423 22.0689Z" fill="black"/>
<path d="M47.0627 28.8722H45.8555V22.7797C45.8555 19.9841 44.9115 17.4531 43.3853 15.621C41.8591 13.7889 39.754 12.6557 37.4219 12.6557C32.7676 12.6557 28.9915 17.1886 28.9915 22.7797V28.8762H27.7844C26.1628 28.8762 24.8503 30.4516 24.8503 32.3982V47.2486C24.8503 49.1952 26.1628 50.7707 27.7844 50.7707H47.066C48.6876 50.7707 50 49.1952 50 47.2486V32.3982C49.9967 30.4477 48.6843 28.8722 47.0627 28.8722ZM33.159 22.7797C33.159 19.9604 35.0701 17.6624 37.4219 17.6624C39.7704 17.6624 41.6815 19.9604 41.6815 22.7797V28.8762H33.159V22.7797Z" fill="black"/>
</svg>
