<svg width="50" height="50" viewBox="0 0 50 50" fill="none" xmlns="http://www.w3.org/2000/svg">
<path fill-rule="evenodd" clip-rule="evenodd" d="M0.777837 15.2437H9.15264C9.20971 15.2437 9.25637 15.2993 9.25637 15.3676V47.3218C9.25637 48.798 10.2623 50 11.4979 50H38.3231C39.5586 50 40.5646 48.798 40.5646 47.3218V25.7937C40.5648 25.7774 40.5623 25.7612 40.557 25.7462C40.5518 25.7311 40.5441 25.7175 40.5343 25.7061L39.186 24.0951C39.1206 24.017 39.009 24.0722 39.009 24.1827V47.3216C39.009 47.7718 38.7 48.141 38.3232 48.141H11.4978C11.121 48.141 10.812 47.7717 10.812 47.3216V8.64978C10.812 6.1371 10.138 3.72586 8.92328 2.06433C8.91014 2.04643 8.9016 2.02438 8.89868 2.00083C8.89576 1.97727 8.89859 1.95321 8.90682 1.93153C8.91506 1.90985 8.92835 1.89147 8.94511 1.87858C8.96187 1.8657 8.98138 1.85887 9.00131 1.8589H35.1585C36.0822 1.8589 36.9463 2.5305 37.6193 3.63489C38.2363 4.64718 38.6882 6.00694 38.8911 7.55982C38.8994 7.62306 38.946 7.66791 38.9994 7.66437C39.4627 7.6333 39.9185 7.50963 40.3476 7.2985C40.3694 7.28803 40.3875 7.26892 40.399 7.24437C40.4104 7.21983 40.4144 7.19134 40.4103 7.16367C40.1599 5.3642 39.6142 3.7652 38.871 2.54578C37.9062 0.962769 36.6065 0 35.1583 0H5.40602C3.86195 0 2.48283 1.01257 1.50144 2.64977C0.573816 4.19713 0 6.31947 0 8.64978V14.3142C-2.38974e-09 14.5607 0.081947 14.7971 0.227816 14.9714C0.373686 15.1457 0.571531 15.2437 0.777837 15.2437ZM42.7688 23.4C42.7882 23.4233 42.7991 23.4548 42.7991 23.4876C42.7991 23.5204 42.7882 23.5519 42.7688 23.5752L41.6214 24.9461C41.602 24.9693 41.5756 24.9823 41.5481 24.9823C41.5207 24.9823 41.4943 24.9693 41.4749 24.9461L29.13 10.1961C29.1106 10.1729 29.0997 10.1414 29.0997 10.1086C29.0997 10.0757 29.1106 10.0443 29.13 10.021L30.2774 8.65006C30.2969 8.62688 30.3232 8.61386 30.3507 8.61386C30.3782 8.61386 30.4046 8.62688 30.4241 8.65006L42.7688 23.4ZM31.1833 7.74275C31.1639 7.71947 31.1531 7.68796 31.1531 7.6551C31.1531 7.62225 31.1639 7.59074 31.1833 7.56746L32.7118 5.74124C33.0735 5.30888 33.7628 5.15566 34.1719 5.64433L35.4958 7.22225C37.3385 9.3784 40.3206 9.35887 42.1445 7.17966C43.6124 5.42574 44.6783 3.68483 45.6406 1.4878C46.3474 -0.125775 48.2041 -0.520645 49.3242 0.81761C50.4443 2.15615 50.1136 4.37441 48.7632 5.21876C46.9248 6.36813 45.4674 7.6423 43.9997 9.3958C42.157 11.5975 42.1689 15.217 43.9943 17.3772L44.5018 17.9719L44.4955 17.9794L45.2843 18.9219C45.6639 19.3752 45.6637 20.1163 45.2843 20.5696L43.6748 22.4926C43.6553 22.5157 43.629 22.5287 43.6015 22.5287C43.574 22.5287 43.5477 22.5157 43.5282 22.4926L31.1833 7.74275ZM29.6929 37.6814C29.5678 37.4893 29.5108 37.2462 29.5344 37.0044C29.558 36.7627 29.6602 36.5417 29.8189 36.3892C29.9777 36.2367 30.1803 36.1649 30.383 36.1893C30.5856 36.2137 30.7722 36.3324 30.9022 36.5197L32.4783 38.869C32.4879 38.8835 32.5002 38.8953 32.5142 38.9033C32.5282 38.9114 32.5436 38.9156 32.5592 38.9156C32.5747 38.9156 32.5901 38.9114 32.6041 38.9033C32.6181 38.8953 32.6304 38.8835 32.64 38.869L34.2161 36.5197C34.3462 36.3324 34.5327 36.2137 34.7354 36.1893C34.938 36.1649 35.1406 36.2367 35.2994 36.3892C35.4581 36.5417 35.5603 36.7627 35.5839 37.0044C35.6075 37.2462 35.5506 37.4893 35.4254 37.6814L33.6054 40.3942C33.5905 40.4161 33.5823 40.4435 33.5823 40.4717C33.5823 40.4999 33.5905 40.5273 33.6054 40.5492L35.4254 43.262C35.4892 43.3569 35.5368 43.4659 35.5654 43.5827C35.594 43.6996 35.603 43.822 35.592 43.943C35.581 44.064 35.5502 44.1813 35.5013 44.2881C35.4523 44.3948 35.3863 44.4891 35.3069 44.5653C35.2275 44.6416 35.1363 44.6985 35.0385 44.7326C34.9407 44.7668 34.8382 44.7776 34.7369 44.7645C34.6356 44.7513 34.5375 44.7144 34.4481 44.656C34.3588 44.5975 34.2799 44.5186 34.2161 44.4237L32.64 42.0745C32.6303 42.0599 32.618 42.0482 32.604 42.0401C32.59 42.0321 32.5747 42.0279 32.5592 42.0279C32.5436 42.0279 32.5283 42.0321 32.5143 42.0401C32.5003 42.0482 32.488 42.0599 32.4783 42.0745L30.9022 44.4237C30.7722 44.611 30.5856 44.7297 30.383 44.7541C30.1803 44.7785 29.9777 44.7067 29.8189 44.5542C29.6602 44.4017 29.558 44.1807 29.5344 43.939C29.5108 43.6972 29.5678 43.4541 29.6929 43.262L31.5129 40.5492C31.5278 40.5273 31.536 40.4999 31.536 40.4717C31.536 40.4435 31.5278 40.4161 31.5129 40.3942L29.6929 37.6814ZM24.1903 36.7555C24.451 35.9782 25.3724 35.986 25.6305 36.7555L27.8921 43.498C27.9656 43.7255 27.9611 43.9783 27.8796 44.2019C27.7982 44.4254 27.6463 44.6016 27.4569 44.6923C27.2675 44.783 27.0558 44.781 26.8677 44.6865C26.6796 44.5921 26.5302 44.413 26.4518 44.1879L25.0066 39.8794C24.9718 39.7756 24.8489 39.7756 24.8141 39.8794L23.3689 44.1879C23.2905 44.413 23.1411 44.5921 22.9529 44.6865C22.7648 44.781 22.5531 44.783 22.3637 44.6923C22.1743 44.6016 22.0225 44.4254 21.941 44.2019C21.8595 43.9783 21.8551 43.7255 21.9285 43.498L24.1903 36.7555ZM19.5231 36.1711C19.6253 36.1711 19.7264 36.1951 19.8208 36.2418C19.9152 36.2885 20.0009 36.357 20.0731 36.4433C20.1454 36.5296 20.2027 36.632 20.2418 36.7448C20.2808 36.8576 20.301 36.9784 20.301 37.1005C20.301 37.2225 20.2808 37.3434 20.2418 37.4561C20.2027 37.5689 20.1454 37.6713 20.0731 37.7576C20.0009 37.8439 19.9152 37.9124 19.8208 37.9591C19.7264 38.0058 19.6253 38.0298 19.5231 38.0298H18.1401C18.1126 38.0299 18.0863 38.043 18.0668 38.0662C18.0474 38.0894 18.0364 38.1209 18.0364 38.1538V43.8428C18.0364 44.0884 17.9547 44.3238 17.8094 44.4975C17.6641 44.6711 17.467 44.7686 17.2615 44.7686C17.056 44.7686 16.8589 44.6711 16.7136 44.4975C16.5683 44.3238 16.4866 44.0884 16.4866 43.8428V38.1538C16.4866 38.1209 16.4756 38.0894 16.4562 38.0662C16.4367 38.043 16.4104 38.0299 16.3829 38.0298H14.9999C14.8977 38.0298 14.7966 38.0058 14.7022 37.9591C14.6078 37.9124 14.5221 37.8439 14.4498 37.7576C14.3776 37.6713 14.3203 37.5689 14.2812 37.4561C14.2421 37.3434 14.222 37.2225 14.222 37.1005C14.222 36.9784 14.2421 36.8576 14.2812 36.7448C14.3203 36.632 14.3776 36.5296 14.4498 36.4433C14.5221 36.357 14.6078 36.2885 14.7022 36.2418C14.7966 36.1951 14.8977 36.1711 14.9999 36.1711H19.5231ZM25.2356 19.0416C26.0779 19.0402 26.9095 19.2666 27.6681 19.7039C27.6884 19.7158 27.7115 19.7194 27.7337 19.7141C27.7559 19.7087 27.776 19.6947 27.7909 19.6743L29.7252 17.0546C29.8918 16.8298 30.1263 16.6931 30.3772 16.6748C30.628 16.6565 30.8747 16.758 31.0629 16.957C31.2511 17.156 31.3655 17.4362 31.3808 17.736C31.3961 18.0357 31.3112 18.3304 31.1446 18.5553L24.7633 27.1972C24.7539 27.2099 24.7425 27.2202 24.7297 27.2275C24.7168 27.2347 24.7029 27.2387 24.6887 27.2392C24.6746 27.2398 24.6605 27.2368 24.6473 27.2306C24.6341 27.2243 24.6222 27.2149 24.6122 27.2028L22.4288 24.5941C22.3407 24.4871 22.2358 24.4021 22.1201 24.3438C22.0044 24.2856 21.8802 24.2553 21.7546 24.2546C21.6291 24.254 21.5046 24.2831 21.3885 24.3403C21.2724 24.3974 21.1669 24.4814 21.0782 24.5875C20.9894 24.6936 20.919 24.8196 20.8712 24.9584C20.8234 25.0971 20.7991 25.2458 20.7996 25.3958C20.8001 25.5458 20.8254 25.6942 20.8742 25.8325C20.923 25.9707 20.9942 26.0961 21.0837 26.2013L24.0585 29.7557C24.452 30.2258 25.0588 30.2243 25.4972 29.626L30.2544 23.1835C30.2661 23.1677 30.281 23.1556 30.2976 23.1485C30.3143 23.1414 30.3322 23.1396 30.3496 23.1431C30.3671 23.1467 30.3834 23.1555 30.3972 23.1687C30.411 23.1819 30.4217 23.1992 30.4284 23.2188C31.9101 27.5646 29.2413 32.4291 25.2354 32.4291C22.1412 32.4291 19.6331 29.4324 19.6331 25.7354C19.6334 22.0383 22.1414 19.0416 25.2356 19.0416ZM25.5856 11.882C25.7919 11.882 25.9898 11.9799 26.1356 12.1542C26.2815 12.3285 26.3635 12.5649 26.3635 12.8114C26.3635 13.0579 26.2815 13.2943 26.1356 13.4686C25.9898 13.6429 25.7919 13.7408 25.5856 13.7408H14.3222C14.1159 13.7408 13.9181 13.6429 13.7722 13.4686C13.6263 13.2943 13.5444 13.0579 13.5444 12.8114C13.5444 12.5649 13.6263 12.3285 13.7722 12.1542C13.9181 11.9799 14.1159 11.882 14.3222 11.882H25.5856ZM14.3222 9.05964C14.1159 9.05964 13.9181 8.96172 13.7722 8.78743C13.6263 8.61314 13.5444 8.37675 13.5444 8.13026C13.5444 7.88377 13.6263 7.64738 13.7722 7.47309C13.9181 7.2988 14.1159 7.20088 14.3222 7.20088H25.5856C25.7919 7.20088 25.9898 7.2988 26.1356 7.47309C26.2815 7.64738 26.3635 7.88377 26.3635 8.13026C26.3635 8.37675 26.2815 8.61314 26.1356 8.78743C25.9898 8.96172 25.7919 9.05964 25.5856 9.05964H14.3222Z" fill="black"/>
</svg>
