<svg width="50" height="50" viewBox="0 0 50 50" fill="none" xmlns="http://www.w3.org/2000/svg">
<path d="M1.78439 22.5731C1.55826 22.5728 1.33974 22.4987 1.16839 22.3643C0.997042 22.2298 0.884192 22.044 0.850273 21.8403C0.77678 21.3985 0.708633 20.9559 0.645845 20.5127C0.629936 20.4004 0.638467 20.2864 0.670952 20.1771C0.703436 20.0678 0.759237 19.9654 0.835168 19.8757C0.911099 19.7861 1.00567 19.7109 1.11349 19.6545C1.22131 19.5982 1.34026 19.5617 1.46356 19.5472C1.58685 19.5327 1.71206 19.5405 1.83206 19.5701C1.95205 19.5997 2.06448 19.6505 2.16291 19.7197C2.26134 19.7888 2.34385 19.875 2.40573 19.9732C2.4676 20.0714 2.50764 20.1797 2.52355 20.2921C2.58317 20.7196 2.64942 21.1498 2.7223 21.5817C2.74276 21.7045 2.73383 21.83 2.69612 21.9494C2.65842 22.0687 2.59282 22.1793 2.50384 22.2735C2.41485 22.3676 2.30458 22.4431 2.18057 22.4949C2.05655 22.5466 1.92079 22.5733 1.78439 22.5731Z" fill="black"/>
<path d="M24.9992 50C24.5667 50 24.1351 49.925 23.7329 49.7741C11.7531 45.306 4.24982 36.8896 1.43042 24.7593C1.37846 24.5356 1.4262 24.3023 1.56313 24.1106C1.70006 23.9189 1.91497 23.7847 2.16059 23.7373C2.4062 23.69 2.66239 23.7335 2.8728 23.8582C3.08321 23.983 3.23061 24.1787 3.28257 24.4024C6.00165 36.1025 12.9257 43.8793 24.4503 48.1784C24.7995 48.3086 25.1989 48.3095 25.5481 48.1784C48.2292 39.7189 48.1478 19.2619 48.1033 8.27216C48.1018 7.92881 47.9564 7.59895 47.697 7.34984C47.4376 7.10074 47.0837 6.95116 46.7073 6.93163C40.1032 6.5049 31.8286 4.51179 25.6276 1.85401C25.4316 1.76799 25.2168 1.72333 24.9992 1.72333C24.7816 1.72333 24.5668 1.76799 24.3708 1.85401C18.1698 4.51179 9.89523 6.5049 3.29109 6.93163C2.91468 6.95096 2.56058 7.10047 2.30113 7.34962C2.04167 7.59877 1.89644 7.92875 1.89511 8.27216C1.88376 11.1101 1.89795 14.1601 2.19986 17.4877C2.21705 17.7138 2.1358 17.937 1.97372 18.1089C1.81163 18.2808 1.58174 18.3877 1.33379 18.4064C1.08583 18.4251 0.839773 18.3541 0.648851 18.2088C0.45793 18.0635 0.337505 17.8556 0.313639 17.63C0.00510449 14.2334 -0.00814545 11.0153 0.00226521 8.26526C0.00889018 6.64025 1.36512 5.32731 3.15764 5.21093C9.44947 4.80575 17.6502 2.82902 23.5644 0.293656C24.0131 0.100294 24.5033 0 24.9997 0C25.4961 0 25.9862 0.100294 26.4349 0.293656C32.3472 2.82902 40.5499 4.80575 46.8408 5.21093C48.6324 5.32731 49.9886 6.64025 49.9962 8.26526C50.0387 18.8498 50.1268 40.8741 26.2655 49.7741C25.8635 49.9237 25.4334 50.0004 24.9992 50Z" fill="black"/>
<path d="M24.9992 46.4465C24.8724 46.4465 24.7465 46.4233 24.6273 46.3776C3.73687 38.2534 3.7681 18.7739 3.78419 9.41354C3.78473 9.19972 3.87248 8.99371 4.03041 8.83552C4.18834 8.67733 4.40518 8.57824 4.63881 8.5575C11.0347 7.98508 18.6866 6.10662 24.6074 3.65402C24.7304 3.60288 24.864 3.57642 24.9992 3.57642C25.1344 3.57642 25.2681 3.60288 25.391 3.65402C28.1054 4.77816 31.2646 5.81179 34.5259 6.64369C34.6457 6.67413 34.7577 6.72576 34.8556 6.79565C34.9535 6.86554 35.0352 6.95231 35.0963 7.051C35.1573 7.1497 35.1964 7.25838 35.2113 7.37084C35.2262 7.48329 35.2166 7.59732 35.1831 7.7064C35.1496 7.81548 35.0928 7.91748 35.016 8.00656C34.9391 8.09564 34.8438 8.17006 34.7354 8.22556C34.627 8.28107 34.5077 8.31657 34.3842 8.33003C34.2607 8.3435 34.1355 8.33467 34.0158 8.30405C30.8178 7.48853 27.7107 6.48249 24.9992 5.3842C19.2223 7.72387 11.9414 9.53251 5.67609 10.1903C5.67609 19.3808 6.17202 37.0973 24.9992 44.6457C43.8255 37.0982 44.3233 19.3817 44.3224 10.1903C42.2214 9.96489 40.1344 9.64263 38.0693 9.22475C37.9464 9.20184 37.8297 9.15689 37.726 9.09253C37.6223 9.02816 37.5337 8.94566 37.4654 8.84982C37.397 8.75397 37.3503 8.64671 37.3278 8.53426C37.3054 8.42181 37.3078 8.30641 37.3347 8.1948C37.3617 8.08318 37.4128 7.97756 37.485 7.88409C37.5572 7.79061 37.6491 7.71115 37.7553 7.65032C37.8616 7.5895 37.98 7.54852 38.1038 7.52977C38.2275 7.51102 38.3542 7.51487 38.4763 7.54111C40.8802 8.02215 43.1971 8.36439 45.3606 8.5575C45.5942 8.57845 45.811 8.67775 45.9687 8.83611C46.1265 8.99446 46.214 9.20057 46.2143 9.4144C46.2304 18.7748 46.2616 38.2534 25.3712 46.3776C25.2519 46.4241 25.1251 46.4465 24.9992 46.4465Z" fill="black"/>
<path d="M37.2175 25.4766C37.0837 25.4767 36.9514 25.451 36.8294 25.4011C36.7073 25.3513 36.5982 25.2784 36.5093 25.1873C36.4204 25.0962 36.3537 24.989 36.3136 24.8728C36.2736 24.7565 36.261 24.6338 36.2768 24.5128C36.3298 24.105 36.3563 23.6886 36.3563 23.2757C36.3563 17.5714 31.2617 12.9308 24.9992 12.9308C18.7367 12.9308 13.6421 17.5714 13.6421 23.2757C13.6421 23.5043 13.5424 23.7236 13.3649 23.8853C13.1874 24.047 12.9467 24.1378 12.6957 24.1378C12.4447 24.1378 12.204 24.047 12.0265 23.8853C11.849 23.7236 11.7493 23.5043 11.7493 23.2757C11.7493 16.6205 17.6928 11.2067 24.9992 11.2067C32.3056 11.2067 38.2491 16.6205 38.2491 23.2757C38.2491 23.7559 38.2179 24.2412 38.1554 24.7154C38.1283 24.9249 38.0178 25.1181 37.8448 25.2584C37.6717 25.3987 37.4492 25.4763 37.2175 25.4766Z" fill="black"/>
<path d="M24.5923 35.3387C24.4144 35.3388 24.2402 35.2932 24.0895 35.2072C23.9388 35.1212 23.8177 34.9983 23.7402 34.8526C23.6626 34.7068 23.6317 34.5441 23.6511 34.3831C23.6704 34.2221 23.7391 34.0692 23.8493 33.9422C28.4045 28.6809 28.7849 25.6783 28.7849 23.2766C28.7849 21.3757 27.087 19.8283 24.9992 19.8283C22.9114 19.8283 21.2135 21.3757 21.2135 23.2766C21.2135 23.5052 21.1138 23.7245 20.9363 23.8862C20.7588 24.0478 20.5181 24.1386 20.2671 24.1386C20.0161 24.1386 19.7754 24.0478 19.5979 23.8862C19.4204 23.7245 19.3207 23.5052 19.3207 23.2766C19.3207 20.4248 21.8675 18.1041 24.9992 18.1041C28.1309 18.1041 30.6778 20.4248 30.6778 23.2766C30.6778 26.1645 30.0304 29.5861 25.3361 35.0111C25.2476 35.1136 25.1346 35.1964 25.0057 35.2533C24.8768 35.3102 24.7355 35.3389 24.5923 35.3387Z" fill="black"/>
<path d="M20.1346 34.3861C19.9483 34.3859 19.7662 34.3357 19.6112 34.2416C19.4561 34.1476 19.335 34.014 19.2629 33.8575C19.1909 33.701 19.1711 33.5286 19.2061 33.362C19.2412 33.1953 19.3294 33.0418 19.4598 32.9206C23.6051 29.0732 24.0528 24.7481 24.0528 23.0671C24.0528 22.8385 24.1525 22.6192 24.33 22.4575C24.5075 22.2958 24.7482 22.205 24.9992 22.205C25.2502 22.205 25.491 22.2958 25.6685 22.4575C25.8459 22.6192 25.9457 22.8385 25.9457 23.0671C25.9457 24.9593 25.445 29.8275 20.8094 34.1275C20.6239 34.2999 20.3797 34.3861 20.1346 34.3861Z" fill="black"/>
<path d="M31.7586 31.4197C31.5963 31.4202 31.4365 31.3826 31.2948 31.3105C31.1531 31.2384 31.0342 31.1342 30.9496 31.0081C30.8649 30.8819 30.8174 30.7381 30.8115 30.5903C30.8057 30.4425 30.8418 30.2959 30.9163 30.1646C32.3747 27.5732 32.5706 25.2283 32.5706 23.2757C32.5706 19.4731 29.1739 16.3791 24.9992 16.3791C20.8245 16.3791 17.4278 19.4731 17.4278 23.2757C17.4278 24.9016 17.248 26.849 15.0949 29.3999C14.9376 29.5691 14.7148 29.6767 14.4727 29.7003C14.2307 29.7239 13.9879 29.6618 13.7948 29.5267C13.6017 29.3916 13.4731 29.1941 13.4357 28.9749C13.3983 28.7558 13.4549 28.532 13.5939 28.3499C15.3864 26.2257 15.535 24.7378 15.535 23.2757C15.535 18.5222 19.7806 14.655 24.9992 14.655C30.2178 14.655 34.4635 18.5222 34.4635 23.2757C34.4635 25.4335 34.2429 28.0326 32.6009 30.9508C32.5215 31.092 32.4008 31.2105 32.2522 31.2932C32.1036 31.376 31.9328 31.4197 31.7586 31.4197Z" fill="black"/>
<path d="M16.7956 32.4835C16.612 32.4833 16.4323 32.4345 16.2786 32.343C16.1249 32.2515 16.0037 32.1212 15.9299 31.968C15.8561 31.8149 15.8327 31.6455 15.8628 31.4804C15.8928 31.3154 15.9749 31.1619 16.099 31.0387C17.8622 29.2878 18.4802 27.7964 18.7916 26.8266C18.8265 26.7179 18.8845 26.6165 18.9624 26.5283C19.0402 26.44 19.1364 26.3666 19.2454 26.3122C19.3545 26.2578 19.4742 26.2235 19.5978 26.2112C19.7213 26.199 19.8463 26.209 19.9657 26.2408C20.085 26.2725 20.1962 26.3254 20.2931 26.3963C20.39 26.4672 20.4706 26.5549 20.5304 26.6542C20.5901 26.7535 20.6277 26.8625 20.6412 26.9751C20.6546 27.0876 20.6436 27.2015 20.6087 27.3102C20.0295 29.1136 19.0396 30.6688 17.4941 32.2042C17.4055 32.2923 17.2977 32.3627 17.1776 32.4108C17.0575 32.4589 16.9268 32.4837 16.7956 32.4835Z" fill="black"/>
</svg>
