<svg width="15" height="13" viewBox="0 0 15 13" fill="none" xmlns="http://www.w3.org/2000/svg">
<path opacity="0.4" d="M6.2386 8.9082H1.56724C0.976017 8.9082 0.496094 9.3645 0.496094 9.92662C0.496094 10.488 0.976017 10.945 1.56724 10.945H6.2386C6.82982 10.945 7.30974 10.488 7.30974 9.92662C7.30974 9.3645 6.82982 8.9082 6.2386 8.9082Z" fill="#26273A"/>
<path opacity="0.4" d="M14.7035 2.32235C14.7035 1.76098 14.2236 1.30469 13.6331 1.30469H8.96177C8.37055 1.30469 7.89062 1.76098 7.89062 2.32235C7.89062 2.88446 8.37055 3.34076 8.96177 3.34076H13.6331C14.2236 3.34076 14.7035 2.88446 14.7035 2.32235Z" fill="#26273A"/>
<path d="M5.38215 2.32276C5.38215 3.60609 4.28891 4.64627 2.93912 4.64627C1.59013 4.64627 0.496094 3.60609 0.496094 2.32276C0.496094 1.04018 1.59013 0 2.93912 0C4.28891 0 5.38215 1.04018 5.38215 2.32276Z" fill="#26273A"/>
<path d="M14.7044 9.89968C14.7044 11.1823 13.6112 12.2224 12.2614 12.2224C10.9124 12.2224 9.81836 11.1823 9.81836 9.89968C9.81836 8.61635 10.9124 7.57617 12.2614 7.57617C13.6112 7.57617 14.7044 8.61635 14.7044 9.89968Z" fill="#26273A"/>
</svg>
