<svg width="208" height="140" viewBox="0 0 208 140" fill="none" xmlns="http://www.w3.org/2000/svg">
<g clip-path="url(#clip0_283_11308)">
<path d="M37.6462 26.8382L137.782 8.43925C140.057 8.02129 142.391 8.61445 144.268 10.0882C146.146 11.562 147.414 13.7956 147.795 16.2978L160.499 99.9129C160.879 102.415 160.34 104.981 159 107.046C157.659 109.111 155.628 110.506 153.353 110.924L49.3947 130.025C47.1193 130.443 44.7861 129.85 42.9083 128.376C41.0305 126.903 39.762 124.669 39.3819 122.167L27.3164 42.7556C26.7668 39.1385 27.5463 35.4294 29.4836 32.4443C31.4208 29.4592 34.357 27.4426 37.6462 26.8382Z" fill="#757575"/>
<path d="M146.484 15.0674L35.0403 35.5441C30.3021 36.4147 27.1027 41.3445 27.8944 46.5551L40.5986 130.17C41.3903 135.381 45.8732 138.899 50.6114 138.028L162.055 117.552C166.794 116.681 169.993 111.751 169.201 106.541L156.497 22.9257C155.705 17.7151 151.222 14.1968 146.484 15.0674Z" fill="black"/>
<path d="M162.105 117.89L50.6613 138.367C48.3045 138.797 45.8889 138.182 43.9443 136.655C41.9997 135.129 40.6851 132.817 40.2888 130.226L27.5846 46.6118C27.1936 44.0201 27.7533 41.3636 29.1411 39.2252C30.5289 37.0867 32.6313 35.641 34.9872 35.205L146.431 14.7283C148.788 14.2984 151.203 14.9141 153.148 16.4403C155.092 17.9664 156.407 20.2785 156.803 22.8692L169.508 106.484C169.899 109.075 169.339 111.732 167.951 113.87C166.563 116.009 164.461 117.454 162.105 117.89ZM35.0901 35.8821C32.8974 36.2876 30.9407 37.6331 29.6491 39.6233C28.3575 41.6135 27.8367 44.0859 28.2009 46.4979L40.905 130.112C41.2737 132.524 42.4972 134.675 44.3069 136.096C46.1166 137.516 48.3649 138.089 50.5582 137.688L162.002 117.212C164.195 116.806 166.151 115.461 167.443 113.471C168.734 111.481 169.255 109.008 168.891 106.596L156.187 22.9824C155.818 20.5713 154.595 18.4194 152.785 16.999C150.976 15.5786 148.727 15.0058 146.534 15.4062L35.0901 35.8821Z" fill="#262626"/>
<path d="M159.752 110.58L157.256 111.039L157.153 110.361L159.631 109.906L159.752 110.58ZM154.777 111.495L152.297 111.95L152.194 111.272L154.673 110.817L154.777 111.495ZM149.818 112.406L147.339 112.861L147.236 112.183L149.715 111.728L149.818 112.406ZM144.86 113.317L142.381 113.772L142.278 113.094L144.756 112.639L144.86 113.317ZM139.902 114.228L137.422 114.683L137.319 114.006L139.798 113.55L139.902 114.228ZM134.944 115.139L132.465 115.594L132.362 114.916L134.841 114.461L134.944 115.139ZM129.986 116.05L127.506 116.505L127.404 115.827L129.883 115.372L129.986 116.05ZM125.027 116.961L122.548 117.416L122.445 116.738L124.924 116.283L125.027 116.961ZM120.069 117.872L117.59 118.327L117.487 117.649L119.966 117.194L120.069 117.872ZM115.111 118.783L112.632 119.238L112.529 118.56L115.008 118.105L115.111 118.783ZM110.153 119.694L107.674 120.149L107.571 119.471L110.05 119.016L110.153 119.694ZM105.194 120.605L102.715 121.06L102.612 120.382L105.092 119.927L105.194 120.605ZM100.236 121.516L97.7572 121.971L97.6542 121.294L100.133 120.838L100.236 121.516ZM95.278 122.427L92.799 122.882L92.696 122.205L95.175 121.749L95.278 122.427ZM90.32 123.338L87.8407 123.793L87.7378 123.116L90.217 122.66L90.32 123.338ZM85.3617 124.249L82.8825 124.704L82.7795 124.027L85.2587 123.571L85.3617 124.249ZM80.4035 125.16L77.9245 125.615L77.8215 124.938L80.3005 124.482L80.4035 125.16ZM75.4452 126.071L72.9662 126.526L72.8632 125.849L75.3423 125.393L75.4452 126.071ZM70.487 126.982L68.008 127.437L67.905 126.76L70.384 126.304L70.487 126.982ZM65.529 127.893L63.0497 128.348L62.9467 127.671L65.426 127.215L65.529 127.893ZM60.5707 128.804L58.0915 129.26L57.9885 128.582L60.4677 128.126L60.5707 128.804ZM55.6125 129.715L53.1334 130.17L53.0305 129.493L55.5095 129.037L55.6125 129.715ZM50.6429 130.625C49.7471 130.754 48.8364 130.597 48.0201 130.171L48.2877 129.55C48.9955 129.919 49.7852 130.057 50.5621 129.945L50.6429 130.625ZM162.138 109.298L161.716 108.791C162.295 108.21 162.709 107.458 162.911 106.625L163.515 106.802C163.283 107.762 162.805 108.628 162.138 109.298ZM46.0361 128.231C45.7077 127.653 45.4867 127.01 45.3857 126.338L45.2565 125.488L45.8729 125.375L46.0021 126.225C46.0896 126.808 46.2813 127.366 46.5662 127.867L46.0361 128.231ZM163.502 103.921L162.886 104.034L162.472 101.308L163.088 101.194L163.502 103.921ZM45.4587 122.649L44.8423 122.762L44.4281 120.036L45.0445 119.922L45.4587 122.649ZM162.673 98.4684L162.057 98.5816L161.643 95.8552L162.259 95.742L162.673 98.4684ZM44.6302 117.196L44.0139 117.309L43.5997 114.583L44.216 114.47L44.6302 117.196ZM161.845 93.0158L161.229 93.1291L160.814 90.4027L161.431 90.2894L161.845 93.0158ZM43.8018 111.744L43.1855 111.857L42.7712 109.131L43.3876 109.017L43.8018 111.744ZM161.017 87.5633L160.4 87.6765L159.986 84.9502L160.602 84.8369L161.017 87.5633ZM42.9734 106.291L42.357 106.404L41.9428 103.678L42.5591 103.565L42.9734 106.291ZM160.188 82.1105L159.572 82.2238L159.158 79.4979L159.774 79.3846L160.188 82.1105ZM42.1449 100.839L41.5286 100.952L41.1144 98.2258L41.7307 98.1125L42.1449 100.839ZM159.36 76.6582L158.743 76.7715L158.329 74.0449L158.945 73.9316L159.36 76.6582ZM41.3165 95.3861L40.7001 95.4994L40.2859 92.7732L40.9023 92.66L41.3165 95.3861ZM158.531 71.2057L157.915 71.319L157.501 68.5928L158.117 68.4796L158.531 71.2057ZM40.4881 89.9336L39.8717 90.0469L39.4575 87.3207L40.0739 87.2075L40.4881 89.9336ZM157.703 65.7527L157.086 65.866L156.672 63.1403L157.289 63.027L157.703 65.7527ZM39.6597 84.4813L39.0433 84.5946L38.6291 81.8682L39.2454 81.7549L39.6597 84.4813ZM156.874 60.3009L156.258 60.4141L155.844 57.6871L156.46 57.5738L156.874 60.3009ZM38.8312 79.0288L38.2149 79.142L37.8006 76.4156L38.417 76.3024L38.8312 79.0288ZM156.046 54.8484L155.43 54.9616L155.015 52.2355L155.632 52.1222L156.046 54.8484ZM38.0028 73.5762L37.3864 73.6895L36.9722 70.9634L37.5886 70.8501L38.0028 73.5762ZM155.217 49.3949L154.601 49.5082L154.187 46.7829L154.803 46.6697L155.217 49.3949ZM37.1743 68.1237L36.558 68.237L36.1438 65.5108L36.7601 65.3976L37.1743 68.1237ZM154.389 43.9433L153.773 44.0566L153.359 41.3304L153.975 41.2172L154.389 43.9433ZM36.3459 62.6712L35.7295 62.7844L35.3153 60.0583L35.9317 59.945L36.3459 62.6712ZM153.561 38.491L152.944 38.6043L152.53 35.8779L153.146 35.7646L153.561 38.491ZM35.5175 57.2189L34.9011 57.3321L34.4869 54.6058L35.1033 54.4925L35.5175 57.2189ZM152.732 33.0385L152.116 33.1517L151.702 30.4254L152.318 30.3121L152.732 33.0385ZM34.6891 51.7664L34.0727 51.8796L33.6585 49.1532L34.2748 49.04L34.6891 51.7664ZM151.904 27.5859L151.287 27.6992L151.16 26.8583C151.072 26.2726 150.879 25.712 150.592 25.2093L151.122 24.8438C151.453 25.4231 151.675 26.069 151.777 26.7439L151.904 27.5859ZM34.2527 46.4494L33.6491 46.2714C33.8831 45.3121 34.3626 44.4469 35.0306 43.7785L35.4516 44.2862C34.872 44.8663 34.4559 45.6171 34.2527 46.4494ZM148.867 23.53C148.158 23.1624 147.368 23.0275 146.592 23.1414L146.509 22.4598C147.405 22.3283 148.316 22.484 149.133 22.9081L148.867 23.53ZM144.123 23.5923L141.644 24.0476L141.542 23.3698L144.021 22.9143L144.123 23.5923ZM139.165 24.5033L136.686 24.9588L136.583 24.281L139.062 23.8255L139.165 24.5033ZM134.207 25.4143L131.727 25.8698L131.624 25.192L134.104 24.7364L134.207 25.4143ZM129.248 26.3253L126.77 26.7808L126.667 26.1029L129.146 25.6474L129.248 26.3253ZM124.29 27.2363L121.811 27.6918L121.708 27.014L124.187 26.5585L124.29 27.2363ZM119.332 28.1474L116.853 28.6028L116.75 27.925L119.229 27.4695L119.332 28.1474ZM114.374 29.0584L111.895 29.5139L111.792 28.8361L114.271 28.3806L114.374 29.0584ZM109.416 29.9694L106.936 30.4249L106.833 29.7471L109.313 29.2916L109.416 29.9694ZM104.457 30.8804L101.978 31.3359L101.875 30.6581L104.354 30.2026L104.457 30.8804ZM99.4991 31.7914L97.0197 32.247L96.9167 31.5692L99.3959 31.1136L99.4991 31.7914ZM94.5409 32.7024L92.0618 33.1579L91.9588 32.4801L94.4379 32.0246L94.5409 32.7024ZM89.5826 33.6135L87.1036 34.069L87.0006 33.3912L89.4792 32.9357L89.5826 33.6135ZM84.6244 34.5245L82.1447 34.9801L82.0417 34.3023L84.5208 33.8468L84.6244 34.5245ZM79.6663 35.4355L77.1871 35.891L77.0841 35.2132L79.5633 34.7577L79.6663 35.4355ZM74.7081 36.3465L72.2289 36.802L72.1259 36.1242L74.6043 35.6689L74.7081 36.3465ZM69.7498 37.2575L67.2698 37.7132L67.1668 37.0354L69.6458 36.5799L69.7498 37.2575ZM64.7916 38.1686L62.3126 38.6241L62.2096 37.9463L64.6886 37.4908L64.7916 38.1686ZM59.8334 39.0796L57.3543 39.5351L57.2514 38.8573L59.7304 38.4018L59.8334 39.0796ZM54.8753 39.9906L52.3961 40.4461L52.2931 39.7683L54.7723 39.3128L54.8753 39.9906ZM49.9171 40.9016L47.4378 41.3571L47.3349 40.6793L49.8141 40.2238L49.9171 40.9016ZM44.9588 41.8126L42.4798 42.2681L42.3768 41.5903L44.8558 41.1348L44.9588 41.8126ZM40.0006 42.7237L37.53 43.1776L37.4186 42.5013L39.8976 42.0459L40.0006 42.7237Z" fill="#757575"/>
<path d="M121.734 56.5414L161.283 48.7913C162.525 48.548 163.791 48.8413 164.803 49.6067C165.815 50.3722 166.489 51.5471 166.678 52.873L169.692 74.0281C169.881 75.354 169.569 76.7222 168.824 77.8318C168.079 78.9415 166.963 79.7015 165.721 79.9449L126.173 87.6949C124.783 87.9673 123.366 87.639 122.234 86.7824C121.102 85.9258 120.347 84.6111 120.135 83.1273L117.291 63.1632C117.186 62.4285 117.218 61.6744 117.385 60.944C117.552 60.2136 117.85 59.5211 118.262 58.9062C118.675 58.2913 119.194 57.766 119.79 57.3602C120.385 56.9545 121.046 56.6762 121.734 56.5414Z" fill="white"/>
<path d="M165.77 80.2785L126.219 88.0296C124.747 88.3161 123.247 87.9676 122.048 87.0604C120.849 86.1532 120.049 84.7615 119.823 83.1905L116.979 63.2235C116.757 61.6518 117.128 60.0306 118.01 58.7155C118.893 57.4005 120.215 56.4989 121.686 56.2086L161.237 48.4575C162.562 48.1997 163.911 48.5132 164.989 49.3292C166.068 50.1453 166.788 51.3973 166.991 52.8105L170.004 73.9687C170.204 75.3824 169.871 76.8407 169.077 78.0236C168.283 79.2065 167.094 80.0174 165.77 80.2785ZM121.78 56.8714C120.474 57.1293 119.3 57.93 118.516 59.0978C117.733 60.2656 117.403 61.7053 117.6 63.1011L120.445 83.0674C120.645 84.4625 121.356 85.6984 122.42 86.504C123.485 87.3096 124.817 87.6192 126.124 87.3648L165.676 79.6137C166.835 79.3852 167.876 78.6751 168.571 77.6392C169.266 76.6034 169.558 75.3264 169.383 74.0884L166.369 52.9303C166.191 51.6929 165.561 50.5967 164.617 49.8821C163.672 49.1676 162.491 48.8931 161.332 49.119L121.78 56.8714Z" fill="#262626"/>
<path d="M134.131 77.8842C138.091 77.1063 140.812 73.0397 140.21 68.8013C139.608 64.5629 135.91 61.7576 131.95 62.5356C127.991 63.3136 125.269 67.3801 125.872 71.6185C126.474 75.857 130.172 78.6622 134.131 77.8842Z" fill="white"/>
<path d="M134.179 78.2188C132.699 78.5094 131.186 78.3237 129.83 77.6854C128.475 77.047 127.339 75.9845 126.564 74.6324C125.79 73.2802 125.414 71.699 125.482 70.0888C125.55 68.4786 126.059 66.9116 126.947 65.586C127.834 64.2605 129.059 63.2358 130.466 62.6417C131.873 62.0476 133.4 61.9107 134.853 62.2483C136.306 62.5858 137.621 63.3828 138.63 64.5383C139.639 65.6938 140.298 67.1559 140.523 68.7399C140.823 70.8638 140.323 73.0546 139.133 74.8317C137.944 76.6087 136.162 77.8269 134.179 78.2188ZM131.998 62.8699C130.642 63.1365 129.377 63.8276 128.364 64.8558C127.351 65.884 126.635 67.2031 126.307 68.6464C125.979 70.0896 126.053 71.5922 126.52 72.9641C126.987 74.3359 127.826 75.5154 128.93 76.3535C130.035 77.1915 131.356 77.6505 132.727 77.6723C134.097 77.6941 135.455 77.2777 136.629 76.4759C137.803 75.6741 138.741 74.5228 139.322 73.1677C139.904 71.8125 140.105 70.3143 139.899 68.8626C139.62 66.9167 138.632 65.1929 137.151 64.0694C135.669 62.9459 133.816 62.5145 131.998 62.8699Z" fill="#262626"/>
<path d="M17.678 60.1559C17.6182 60.1559 17.559 60.1429 17.5038 60.1178C17.4485 60.0926 17.3983 60.0557 17.356 60.0092C17.3137 59.9627 17.2802 59.9075 17.2573 59.8468C17.2344 59.786 17.2227 59.7209 17.2227 59.6551V45.5269C17.2227 45.3941 17.2706 45.2667 17.356 45.1728C17.4414 45.0789 17.5572 45.0261 17.678 45.0261C17.7988 45.0261 17.9146 45.0789 18 45.1728C18.0854 45.2667 18.1334 45.3941 18.1334 45.5269V59.6551C18.1334 59.7879 18.0854 59.9153 18 60.0092C17.9146 60.1031 17.7988 60.1559 17.678 60.1559Z" fill="#262626"/>
<path d="M21.8704 53.0916H13.4866C13.426 53.093 13.3657 53.0811 13.3094 53.0566C13.253 53.0321 13.2016 52.9954 13.1583 52.9488C13.115 52.9022 13.0806 52.8465 13.0571 52.7851C13.0336 52.7236 13.0215 52.6576 13.0215 52.591C13.0215 52.5243 13.0336 52.4583 13.0571 52.3969C13.0806 52.3354 13.115 52.2797 13.1583 52.2331C13.2016 52.1865 13.253 52.1498 13.3094 52.1253C13.3657 52.1008 13.426 52.0889 13.4866 52.0903H21.8704C21.9894 52.0931 22.1027 52.1471 22.186 52.2407C22.2693 52.3343 22.316 52.46 22.316 52.591C22.316 52.7219 22.2693 52.8476 22.186 52.9412C22.1027 53.0348 21.9894 53.0888 21.8704 53.0916Z" fill="#262626"/>
<path d="M178.936 80.2711C178.851 80.2711 178.77 80.2339 178.709 80.1677C178.649 80.1015 178.615 80.0117 178.615 79.9181V72.3403C178.614 72.2931 178.622 72.2462 178.637 72.2023C178.653 72.1585 178.677 72.1184 178.706 72.0847C178.736 72.0509 178.772 72.0241 178.812 72.0058C178.851 71.9875 178.894 71.978 178.936 71.978C178.979 71.978 179.022 71.9875 179.061 72.0058C179.101 72.0241 179.137 72.0509 179.166 72.0847C179.196 72.1184 179.22 72.1585 179.235 72.2023C179.251 72.2462 179.259 72.2931 179.258 72.3403V79.9181C179.258 79.9644 179.249 80.0104 179.233 80.0532C179.217 80.096 179.193 80.135 179.163 80.1677C179.134 80.2005 179.098 80.2265 179.059 80.2443C179.02 80.262 178.979 80.2711 178.936 80.2711Z" fill="#262626"/>
<path d="M181.186 76.4822H176.689C176.646 76.4834 176.603 76.4752 176.563 76.458C176.523 76.4408 176.487 76.4149 176.456 76.382C176.426 76.3491 176.401 76.3098 176.385 76.2664C176.368 76.2229 176.359 76.1762 176.359 76.1291C176.359 76.082 176.368 76.0353 176.385 75.9919C176.401 75.9484 176.426 75.9091 176.456 75.8762C176.487 75.8433 176.523 75.8175 176.563 75.8003C176.603 75.783 176.646 75.7748 176.689 75.776H181.186C181.269 75.7783 181.349 75.8166 181.407 75.8825C181.466 75.9485 181.499 76.037 181.499 76.1291C181.499 76.2212 181.466 76.3097 181.407 76.3757C181.349 76.4416 181.269 76.4799 181.186 76.4822Z" fill="#262626"/>
<path d="M173.798 16.0622C173.756 16.0622 173.714 16.0531 173.675 16.0354C173.636 16.0177 173.601 15.9917 173.571 15.9589C173.541 15.9261 173.517 15.8872 173.501 15.8443C173.485 15.8015 173.477 15.7556 173.477 15.7092V8.13138C173.476 8.08426 173.483 8.03736 173.499 7.99347C173.514 7.94958 173.538 7.90958 173.568 7.87582C173.598 7.84206 173.633 7.81524 173.673 7.79692C173.712 7.7786 173.755 7.76917 173.798 7.76917C173.841 7.76917 173.883 7.7786 173.923 7.79692C173.962 7.81524 173.998 7.84206 174.028 7.87582C174.058 7.90958 174.081 7.94958 174.097 7.99347C174.112 8.03736 174.12 8.08426 174.119 8.13138V15.7092C174.119 15.8028 174.085 15.8926 174.025 15.9588C173.965 16.025 173.883 16.0622 173.798 16.0622Z" fill="#262626"/>
<path d="M176.047 12.2734H171.55C171.507 12.2746 171.465 12.2663 171.425 12.2491C171.385 12.2319 171.348 12.2061 171.318 12.1732C171.287 12.1403 171.263 12.1009 171.246 12.0575C171.229 12.014 171.221 11.9674 171.221 11.9202C171.221 11.8731 171.229 11.8264 171.246 11.783C171.263 11.7396 171.287 11.7002 171.318 11.6673C171.348 11.6344 171.385 11.6086 171.425 11.5914C171.465 11.5742 171.507 11.5659 171.55 11.5671H176.047C176.131 11.5695 176.21 11.6077 176.269 11.6737C176.327 11.7396 176.36 11.8281 176.36 11.9202C176.36 12.0124 176.327 12.1008 176.269 12.1668C176.21 12.2328 176.131 12.271 176.047 12.2734H176.047Z" fill="#262626"/>
<path d="M20.1405 129.03C20.1012 129.03 20.0624 129.021 20.0262 129.004C19.9899 128.988 19.957 128.963 19.9293 128.932C19.9015 128.902 19.8796 128.865 19.8646 128.825C19.8496 128.785 19.8419 128.742 19.8419 128.698V119.345C19.8408 119.3 19.8476 119.256 19.8621 119.215C19.8766 119.173 19.8984 119.136 19.9262 119.104C19.9541 119.072 19.9874 119.047 20.0242 119.029C20.061 119.012 20.1006 119.003 20.1406 119.003C20.1806 119.003 20.2201 119.012 20.257 119.029C20.2938 119.047 20.3271 119.072 20.355 119.104C20.3828 119.136 20.4046 119.173 20.4191 119.215C20.4336 119.256 20.4404 119.3 20.4393 119.345V128.698C20.4393 128.742 20.4316 128.785 20.4166 128.825C20.4016 128.865 20.3796 128.902 20.3518 128.933C20.3241 128.963 20.2911 128.988 20.2548 129.004C20.2186 129.021 20.1797 129.03 20.1405 129.03Z" fill="#262626"/>
<path d="M22.8915 124.353H17.3906C17.3113 124.353 17.2353 124.318 17.1793 124.256C17.1233 124.194 17.0918 124.109 17.0918 124.021C17.0918 123.934 17.1233 123.849 17.1793 123.787C17.2353 123.725 17.3113 123.69 17.3906 123.69H22.8915C22.9707 123.69 23.0467 123.725 23.1028 123.787C23.1588 123.849 23.1903 123.934 23.1903 124.021C23.1903 124.109 23.1588 124.194 23.1028 124.256C23.0467 124.318 22.9707 124.353 22.8915 124.353Z" fill="#262626"/>
<path d="M4.48239 95.4076C4.40315 95.4076 4.32714 95.3727 4.27111 95.3105C4.21507 95.2483 4.18359 95.164 4.18359 95.076V80.8481C4.18359 80.7602 4.21507 80.6759 4.27111 80.6137C4.32714 80.5515 4.40315 80.5166 4.48239 80.5166C4.56164 80.5166 4.63763 80.5515 4.69366 80.6137C4.7497 80.6759 4.78118 80.7602 4.78118 80.8481V95.076C4.78111 95.1639 4.74962 95.2482 4.6936 95.3104C4.63758 95.3726 4.56162 95.4075 4.48239 95.4076Z" fill="#262626"/>
<path d="M8.66662 88.2936H0.298786C0.21954 88.2936 0.143535 88.2587 0.0875001 88.1965C0.031465 88.1343 0 88.05 0 87.962C0 87.8741 0.031465 87.7898 0.0875001 87.7276C0.143535 87.6654 0.21954 87.6305 0.298786 87.6305H8.66662C8.74587 87.6305 8.82187 87.6654 8.87791 87.7276C8.93394 87.7898 8.96542 87.8741 8.96542 87.962C8.96542 88.05 8.93394 88.1343 8.87791 88.1965C8.82187 88.2587 8.74587 88.2936 8.66662 88.2936Z" fill="#262626"/>
<path d="M23.1699 14.891C23.0906 14.891 23.0146 14.8561 22.9586 14.7939C22.9026 14.7317 22.8711 14.6474 22.8711 14.5594V0.331544C22.8711 0.243612 22.9026 0.159286 22.9586 0.0971084C23.0146 0.0349313 23.0906 0 23.1699 0C23.2491 0 23.3251 0.0349313 23.3812 0.0971084C23.4372 0.159286 23.4687 0.243612 23.4687 0.331544V14.5594C23.4686 14.6473 23.4371 14.7316 23.3811 14.7938C23.3251 14.856 23.2491 14.8909 23.1699 14.891Z" fill="#262626"/>
<path d="M27.3541 7.77699H18.9863C18.907 7.77699 18.831 7.74206 18.775 7.67988C18.719 7.6177 18.6875 7.53338 18.6875 7.44544C18.6875 7.35751 18.719 7.27318 18.775 7.211C18.831 7.14882 18.907 7.11389 18.9863 7.11389H27.3541C27.4334 7.11389 27.5094 7.14882 27.5654 7.211C27.6214 7.27318 27.6529 7.35751 27.6529 7.44544C27.6529 7.53338 27.6214 7.6177 27.5654 7.67988C27.5094 7.74206 27.4334 7.77699 27.3541 7.77699Z" fill="#262626"/>
<path d="M194.121 123.324C194.042 123.324 193.966 123.29 193.91 123.227C193.854 123.165 193.822 123.081 193.822 122.993V108.765C193.822 108.677 193.854 108.593 193.91 108.531C193.966 108.468 194.042 108.433 194.121 108.433C194.2 108.433 194.276 108.468 194.332 108.531C194.388 108.593 194.42 108.677 194.42 108.765V122.993C194.42 123.081 194.388 123.165 194.332 123.227C194.276 123.289 194.2 123.324 194.121 123.324Z" fill="#262626"/>
<path d="M198.305 116.21H189.937C189.858 116.21 189.782 116.176 189.726 116.113C189.67 116.051 189.639 115.967 189.639 115.879C189.639 115.791 189.67 115.707 189.726 115.644C189.782 115.582 189.858 115.547 189.937 115.547H198.305C198.385 115.547 198.461 115.582 198.517 115.644C198.573 115.707 198.604 115.791 198.604 115.879C198.604 115.967 198.573 116.051 198.517 116.113C198.461 116.176 198.385 116.21 198.305 116.21Z" fill="#262626"/>
<path d="M205.609 13.1105C205.57 13.1106 205.531 13.102 205.495 13.0854C205.459 13.0687 205.426 13.0443 205.398 13.0135C205.37 12.9827 205.348 12.9462 205.333 12.9059C205.318 12.8657 205.311 12.8225 205.311 12.779V5.66504C205.311 5.57711 205.342 5.49278 205.398 5.4306C205.454 5.36843 205.53 5.3335 205.609 5.3335C205.689 5.3335 205.765 5.36843 205.821 5.4306C205.877 5.49278 205.908 5.57711 205.908 5.66504V12.779C205.908 12.8225 205.9 12.8657 205.885 12.9059C205.87 12.9462 205.848 12.9827 205.821 13.0135C205.793 13.0443 205.76 13.0687 205.724 13.0854C205.687 13.102 205.649 13.1106 205.609 13.1105Z" fill="#262626"/>
<path d="M207.701 9.55371H203.518C203.478 9.55371 203.439 9.54514 203.403 9.52848C203.367 9.51182 203.334 9.48739 203.306 9.4566C203.279 9.42582 203.257 9.38927 203.241 9.34905C203.226 9.30882 203.219 9.26571 203.219 9.22217C203.219 9.17863 203.226 9.13552 203.241 9.09529C203.257 9.05507 203.279 9.01852 203.306 8.98773C203.334 8.95695 203.367 8.93252 203.403 8.91586C203.439 8.8992 203.478 8.89062 203.518 8.89062H207.701C207.781 8.89063 207.857 8.92556 207.913 8.98773C207.969 9.04991 208 9.13424 208 9.22217C208 9.3101 207.969 9.39443 207.913 9.4566C207.857 9.51878 207.781 9.55371 207.701 9.55371Z" fill="#262626"/>
</g>
<defs>
<clipPath id="clip0_283_11308">
<rect width="208" height="140" fill="white"/>
</clipPath>
</defs>
</svg>
