<svg width="16" height="16" viewBox="0 0 16 16" fill="none" xmlns="http://www.w3.org/2000/svg">
<path fill-rule="evenodd" clip-rule="evenodd" d="M2.42695 7.23603C2.42695 4.94882 4.35377 3.03083 6.81066 3.03083C9.26754 3.03083 11.1944 4.94882 11.1944 7.23603C11.1944 9.52324 9.26754 11.4412 6.81066 11.4412C4.35377 11.4412 2.42695 9.52324 2.42695 7.23603ZM6.81066 0.730835C3.15518 0.730835 0.126953 3.60806 0.126953 7.23603C0.126953 10.864 3.15518 13.7412 6.81066 13.7412C8.23494 13.7412 9.56399 13.3044 10.6558 12.5566L13.1259 14.947C13.5823 15.3887 14.3103 15.3768 14.752 14.9204C15.1937 14.464 15.1818 13.7359 14.7254 13.2942L12.3012 10.9483C13.052 9.89972 13.4944 8.62271 13.4944 7.23603C13.4944 3.60806 10.4661 0.730835 6.81066 0.730835Z" fill="#26273A"/>
</svg>
